<?xml version="1.0" encoding="UTF-8"?>
<svg version="1.1" xmlns="http://www.w3.org/2000/svg" width="512" height="512">
<path d="M0 0 C7.99805523 6.79504197 16.39055453 14.30233959 21.875 23.3125 C21.875 23.9725 21.875 24.6325 21.875 25.3125 C23.7621875 24.8175 23.7621875 24.8175 25.6875 24.3125 C41.5933826 20.86870299 56.88839264 25.36938468 70.5 33.625 C77.29832848 38.11624622 81.79041445 42.0799463 85.44213867 49.44140625 C86.99876308 52.45932659 88.53523497 54.83704327 90.875 57.3125 C94.79662489 58.13279514 97.93412275 57.9774074 101.8984375 57.4765625 C110.07771288 57.13910713 117.79925172 60.95130572 125.17578125 64.19921875 C126.03709152 64.5729512 126.89840179 64.94668365 127.78581238 65.33174133 C130.58866478 66.54930677 133.38804586 67.7746441 136.1875 69 C138.16511663 69.86059606 140.14298496 70.72061393 142.12109375 71.58007812 C146.13476843 73.32470241 150.14723331 75.07206263 154.15869141 76.82177734 C161.48582744 80.01647289 168.82316262 83.18742269 176.16146851 86.35635376 C179.14894001 87.64680734 182.13572048 88.93885616 185.12251282 90.23088074 C195.43123154 94.69009191 205.74277866 99.14274754 216.05459595 103.5947876 C222.56045772 106.40370023 229.06610849 109.21310152 235.57177734 112.02246094 C238.98088861 113.49462468 242.39007078 114.966624 245.79931641 116.43847656 C256.4942793 121.05607472 267.18642068 125.68014396 277.875 130.3125 C278.65750122 130.65154358 279.44000244 130.99058716 280.24621582 131.33990479 C299.28890024 139.59218609 318.30144145 147.90855231 337.25 156.375 C338.02052704 156.71876678 338.79105408 157.06253357 339.58493042 157.41671753 C343.96575979 159.37258701 348.34084698 161.34048338 352.70788574 163.32696533 C354.18558909 163.99897784 355.66422755 164.66893699 357.14367676 165.33709717 C359.40441914 166.36085798 361.65975346 167.39575496 363.9140625 168.43359375 C364.58158539 168.73427261 365.24910828 169.03495148 365.93685913 169.34474182 C367.21311634 169.93782419 368.47462089 170.56411743 369.71600533 171.22709846 C371.85739609 172.36738557 371.85739609 172.36738557 374.19351959 173.09105396 C377.28050919 174.45547162 378.81306858 175.60636003 380.875 178.3125 C382.71822259 184.99670321 382.06135724 192.3517779 381.97607422 199.21386719 C381.98172208 201.3857045 381.99125942 203.55753467 382.00439453 205.7293396 C382.02834727 211.62672255 381.99595843 217.52258607 381.95220327 223.41980648 C381.91452242 229.59441476 381.9239281 235.76896713 381.92703247 241.94366455 C381.92510548 252.31751714 381.88797648 262.6907789 381.82861328 273.06445312 C381.76033945 285.04682498 381.74093471 297.02816403 381.7493819 309.01076388 C381.75691814 320.54492652 381.73590596 332.07884908 381.69983292 343.61295319 C381.68462318 348.51702869 381.67822291 353.42099793 381.67873764 358.32509613 C381.67760384 364.10702858 381.65105783 369.88831795 381.60517883 375.67006302 C381.5922161 377.7879579 381.58761685 379.90592361 381.59215164 382.0238533 C381.62714823 403.50376234 381.62714823 403.50376234 374.35360527 412.11335373 C365.26279748 421.04342371 352.06110282 419.740187 340.26963806 419.69345093 C338.37001084 419.69691027 336.47038563 419.7016767 334.5707646 419.70763266 C329.36595474 419.72013409 324.16131032 419.71397613 318.95649993 419.70467401 C313.33748952 419.69788043 307.71850735 419.70836626 302.09950256 419.71661377 C291.09815488 419.7299497 280.09686861 419.72707404 269.09551852 419.71837585 C260.1546576 419.71159952 251.21381388 419.71068236 242.27295113 419.7139473 C241.00023836 419.714407 239.7275256 419.71486669 238.41624578 419.71534032 C235.83073269 419.7162995 233.24521961 419.71727214 230.65970654 419.7182581 C207.10985682 419.72656769 183.56004826 419.71795203 160.01020546 419.70223031 C138.51939964 419.68799228 117.02864715 419.68926935 95.5378418 419.70361328 C71.38196835 419.71968219 47.22613281 419.72598923 23.07025248 419.71677649 C20.49457936 419.71582084 17.91890624 419.71487773 15.34323311 419.7139473 C14.07595867 419.71348447 12.80868423 419.71302164 11.50300754 419.71254479 C2.57234521 419.70995446 -6.3582982 419.71432681 -15.2889576 419.72138596 C-26.17157036 419.72979895 -37.05411821 419.72752491 -47.93672354 419.71154372 C-53.48919995 419.70365862 -59.04156812 419.70057361 -64.59404373 419.71049118 C-69.67730322 419.71943337 -74.76035414 419.71451291 -79.84359472 419.69855852 C-81.68193429 419.69520875 -83.52029148 419.69690919 -85.3586197 419.70418589 C-107.28843584 419.78432925 -107.28843584 419.78432925 -116.3984375 411.21875 C-122.00790463 405.02549217 -123.27417973 398.89539199 -123.29908752 390.73858643 C-123.30558648 389.85230867 -123.31208543 388.96603092 -123.31878132 388.05289626 C-123.33922722 385.070755 -123.35241012 382.0886274 -123.36547852 379.10644531 C-123.37828857 376.97273061 -123.39142402 374.83901785 -123.40486145 372.70530701 C-123.52092222 353.19751141 -123.57743381 333.68920222 -123.62162876 314.18112564 C-123.65483212 299.76746631 -123.71431193 285.35443765 -123.80913979 270.94104886 C-123.87359061 260.80071901 -123.90718438 250.66056039 -123.91837829 240.5200336 C-123.92592122 234.46791434 -123.94695411 228.41655642 -124.00140572 222.36466217 C-124.05211064 216.66150227 -124.06436945 210.95950105 -124.04815483 205.2561512 C-124.04875504 203.17252359 -124.06286098 201.0888451 -124.09210205 199.00542259 C-124.4504131 172.04704688 -108.17785374 153.67217814 -90.0625 135 C-85.35782221 130.44052831 -80.25980734 126.37305159 -75.125 122.3125 C-74.1246875 121.50683594 -73.124375 120.70117188 -72.09375 119.87109375 C-63.85803435 113.31445459 -55.16390275 107.69491749 -46.125 102.3125 C-45.48820312 101.93287109 -44.85140625 101.55324219 -44.1953125 101.16210938 C-37.34841931 97.1065326 -30.48694621 93.35882257 -23.125 90.3125 C-23.09921875 89.24773437 -23.0734375 88.18296875 -23.046875 87.0859375 C-22.41643211 68.83059633 -17.73161424 52.30695572 -4.125 39.3125 C-1.20247669 36.86693249 1.79101053 34.55031549 4.875 32.3125 C-8.31550518 17.57157377 -21.60271587 5.59834452 -42.48828125 4.1484375 C-49.44346991 3.92174987 -55.80650774 5.12480703 -62.59375 6.56640625 C-73.73540068 8.9204497 -73.73540068 8.9204497 -78.125 7 C-81.10739068 4.48360786 -81.10589418 3.50674247 -81.5 -0.5 C-81.74226988 -3.79614552 -81.15322274 -4.65216892 -79.03125 -7.30859375 C-75.76965529 -9.97836684 -73.31197116 -10.88867594 -69.25 -11.9375 C-68.07695313 -12.25203125 -66.90390625 -12.5665625 -65.6953125 -12.890625 C-42.66935376 -18.02989807 -18.95984145 -14.52178939 0 0 Z M9.875 51.3125 C8.575625 52.4571875 8.575625 52.4571875 7.25 53.625 C-0.85406738 62.79539203 -5.09127595 72.00322234 -5.125 84.3125 C-4.39858808 95.33501132 0.46660717 106.37510263 8.62890625 113.9375 C18.82527646 121.68938405 29.10353173 125.22114201 41.875 124.3125 C53.99878123 122.32278347 63.87094671 116.14885293 71.30859375 106.44140625 C77.99458261 96.58106066 78.8953158 85.90699775 77.875 74.3125 C75.50823408 62.92948297 68.08342247 54.09951387 58.875 47.3125 C43.5223756 37.73581422 23.33973921 39.0074034 9.875 51.3125 Z M95.875 75.3125 C95.83761719 76.32828125 95.80023438 77.3440625 95.76171875 78.390625 C94.93640879 97.02489617 90.24810172 112.61480843 76.875 126.3125 C63.97488603 137.35483057 48.16407153 142.10719531 31.34765625 141.1015625 C16.94733961 139.41489558 2.67402728 133.14778972 -7.421875 122.48828125 C-11.12946405 117.75175121 -14.11611232 112.50966964 -17.125 107.3125 C-40.11984998 117.40779999 -58.88202552 131.17516034 -77.125 148.3125 C-77.76050781 148.89386719 -78.39601563 149.47523438 -79.05078125 150.07421875 C-86.45253752 157.08733865 -92.89340084 165.59316807 -98.125 174.3125 C42.455 174.3125 183.035 174.3125 327.875 174.3125 C324.16969391 171.53352043 320.671287 169.75819539 316.46484375 167.96875 C315.72251999 167.64765762 314.98019623 167.32656525 314.21537781 166.9957428 C312.60048 166.29779144 310.98455597 165.60221082 309.36773682 164.90872192 C304.94486686 163.01126687 300.52975034 161.09588768 296.11328125 159.18359375 C295.18972839 158.78430161 294.26617554 158.38500946 293.31463623 157.97361755 C283.35188533 153.66279736 273.42510323 149.27163222 263.5 144.875 C259.87783054 143.27162355 256.25539221 141.66885557 252.6328125 140.06640625 C251.29015068 139.47244553 251.29015068 139.47244553 249.92036438 138.8664856 C239.56889924 134.28944997 229.20333465 129.74461078 218.83758545 125.20004272 C207.40880894 120.18891308 195.99024333 115.15534822 184.57983398 110.10253906 C169.79213332 103.55445291 154.99769134 97.02212982 140.16223145 90.58282471 C138.63545436 89.91985176 137.10914141 89.25580854 135.58337402 88.59051514 C130.69585076 86.46074018 125.79488039 84.36644549 120.875 82.3125 C120.09360657 81.98515869 119.31221313 81.65781738 118.50714111 81.32055664 C116.09525032 80.31842238 113.67617575 79.33612239 111.25390625 78.359375 C110.15211281 77.9004184 110.15211281 77.9004184 109.02806091 77.43218994 C104.41290647 75.60271879 100.83888083 74.99490283 95.875 75.3125 Z M-105.125 192.3125 C-105.125 202.2125 -105.125 212.1125 -105.125 222.3125 C-101.34244617 224.38273368 -97.55781668 226.4477776 -93.76635742 228.50146484 C-92.48199515 229.1989331 -91.1990688 229.89905328 -89.91772461 230.60205078 C-73.04834519 239.85151106 -56.74686194 245.91943704 -37.4140625 240.5 C-33.2303547 238.98949267 -29.22820264 237.16658799 -25.1875 235.3125 C-7.09357836 227.06489905 12.89383305 225.1880513 31.98095703 231.6015625 C35.95938012 233.0948814 39.76802401 234.94032011 43.58569336 236.79931641 C56.70229075 243.17266639 70.72333155 244.42810442 84.83203125 240.4296875 C88.37650842 239.12837752 91.73757199 237.53130924 95.125 235.875 C112.63600896 227.3906294 132.31485088 225.14930258 151.11328125 230.8984375 C156.35144288 232.7783696 161.43464628 235.08407882 166.44799805 237.49414062 C179.82580463 243.83702665 194.35816386 244.11615241 208.375 239.65625 C212.16765505 238.20014136 215.78652107 236.52415924 219.4375 234.75 C235.96750361 226.7837839 255.53327618 225.46937448 273.1484375 230.8984375 C278.34982444 232.8721294 283.43388394 235.08386269 288.44824219 237.49414062 C301.3777304 243.62516336 316.01738826 244.45684487 329.5390625 239.69921875 C334.76114767 237.52844564 339.81335832 235.15484958 344.7734375 232.4375 C348.14132883 230.60370828 351.49244895 229.32579412 355.16650391 228.23828125 C358.36547393 226.74558991 358.36547393 226.74558991 363.875 221.3125 C363.875 211.7425 363.875 202.1725 363.875 192.3125 C209.105 192.3125 54.335 192.3125 -105.125 192.3125 Z M355.5 245.5 C334.35780246 257.48815814 313.88104114 262.91402886 289.875 256.3125 C285.67071184 254.80897973 281.65143071 252.92375969 277.61328125 251.02734375 C262.3712116 243.8783391 248.04663629 242.43885619 231.875 247.3125 C229.32385325 248.35806289 226.84959048 249.53563248 224.375 250.75 C206.80781547 259.36296028 186.75007447 262.40056411 167.87109375 256.015625 C161.64191934 253.7786205 155.57399868 251.18677892 149.5 248.5625 C135.44559038 242.65584947 122.12094257 243.4124073 107.875 248.3125 C105.24347722 249.40611986 102.68272061 250.61957777 100.125 251.875 C82.75778179 260.39913258 63.44367293 261.39175488 45 255.625 C40.1290384 253.8993251 35.45682094 251.80817367 30.75 249.6875 C16.80821291 243.44320094 3.5616783 242.54755848 -11.125 247.3125 C-15.00415878 248.89332088 -18.8014222 250.64921805 -22.609375 252.39282227 C-40.32947795 260.46878175 -59.23608188 261.37563647 -77.8125 255.3125 C-86.42394039 252.06604582 -94.44460844 247.58971684 -102.48950195 243.15112305 C-103.96697764 242.23645397 -103.96697764 242.23645397 -105.125 242.3125 C-105.125 254.8525 -105.125 267.3925 -105.125 280.3125 C-74.22370306 299.1580371 -74.22370306 299.1580371 -39.125 299.3125 C-35.0135797 297.87219352 -31.0785222 296.13760483 -27.125 294.3125 C-7.83568645 285.42377578 12.77214513 283.21332014 33.0625 290.44921875 C36.03244878 291.67509605 38.95633176 292.96936118 41.875 294.3125 C57.34798362 301.37141671 71.52494195 303.44438855 87.83984375 297.5546875 C91.09447853 296.22267481 94.26066366 294.75777829 97.4375 293.25 C115.29293618 284.78203266 135.38088895 283.7937897 154.06640625 290.44921875 C157.0345551 291.67595041 159.95754086 292.96991759 162.875 294.3125 C178.77381755 301.56568605 192.81437616 303.10703973 209.61328125 297.5546875 C214.12478497 295.83653399 218.4467724 293.78296517 222.80078125 291.703125 C238.53312798 284.58658696 256.45604652 284.52084623 272.875 289.3125 C277.03194834 290.88491089 281.05746574 292.74201259 285.09375 294.59765625 C299.14847299 301.04883066 313.67713778 303.66442411 328.59643555 298.34155273 C336.55113536 295.04037667 344.08008005 291.1430825 351.625 287 C355.6675 284.793125 359.71 282.58625 363.875 280.3125 C363.875 267.4425 363.875 254.5725 363.875 241.3125 C361.19500019 241.3125 357.86198475 244.1413575 355.5 245.5 Z M357.19799805 303.56469727 C336.76350054 315.32431035 315.45288549 321.6286931 291.8125 315.75 C286.0497768 313.94512025 280.70431323 311.46227558 275.2890625 308.82568359 C262.52253108 302.67374421 248.92185528 301.31417437 235.19921875 305.125 C230.998025 306.62577897 226.9893483 308.45175103 222.9375 310.3125 C203.87428566 318.99475603 182.78269714 320.46845383 162.875 313.3125 C159.6125076 311.91980252 156.4236172 310.38636613 153.23876953 308.82568359 C140.51630191 302.64465948 126.89081476 301.3187975 113.203125 305.125 C108.98318933 306.63070474 104.94814414 308.45145452 100.875 310.3125 C83.36550331 318.25354317 64.24687491 320.5289874 45.56640625 314.7265625 C40.38255264 312.74079001 35.30520261 310.53574174 30.30151367 308.13085938 C17.90099151 302.24999495 4.19297426 301.47436467 -9.04296875 305.1953125 C-12.62281063 306.49294847 -16.01800081 308.08681604 -19.4375 309.75 C-37.24428265 318.32413724 -57.45351117 320.69575908 -76.55859375 314.71875 C-84.70546558 311.50640185 -92.42240581 307.49052015 -99.96875 303.0625 C-102.81503259 301.15086415 -102.81503259 301.15086415 -105.125 301.3125 C-105.37299934 306.47164926 -105.55398392 311.62730788 -105.67431641 316.79101562 C-105.72448251 318.54521109 -105.7926401 320.29899084 -105.87939453 322.05175781 C-106.77143025 331.91920305 -106.77143025 331.91920305 -103.22363281 340.63110352 C-100.58553458 342.2317678 -98.0256943 343.26886396 -95.125 344.3125 C-93.37129873 345.24876227 -91.63133589 346.21122389 -89.90625 347.19921875 C-88.14748652 348.13592315 -86.38706257 349.06951644 -84.625 350 C-83.75230469 350.47244141 -82.87960938 350.94488281 -81.98046875 351.43164062 C-67.72418573 358.9610701 -52.9440185 361.40877391 -37.17578125 356.98876953 C-32.48554599 355.44210862 -28.03006638 353.31809157 -23.56030273 351.23242188 C-17.86761441 348.58081296 -12.29848361 346.56665779 -6.125 345.3125 C-5.01125 345.085625 -3.8975 344.85875 -2.75 344.625 C12.88720555 343.27696504 26.63070289 345.7574321 40.875 352.3125 C56.45887693 359.42200725 71.22786989 361.58344366 87.6953125 355.62109375 C90.03526412 354.65809155 92.32357775 353.66059119 94.6171875 352.59765625 C113.81440075 343.71321055 133.79276734 341.36641184 154.140625 348.44921875 C157.08692523 349.67170196 159.98292917 350.96707551 162.875 352.3125 C178.02612483 359.15304666 191.74887481 361.50728705 207.875 356.3125 C211.77917566 354.76492982 215.57985882 353.00143072 219.38745117 351.23217773 C225.09881188 348.59252485 230.69008223 346.56898067 236.875 345.3125 C237.98875 345.085625 239.1025 344.85875 240.25 344.625 C257.60221467 343.12911942 271.50452543 346.28185536 287.05566406 353.48876953 C300.88579455 359.75055969 315.3219467 361.19181434 329.875 356.3125 C335.43326139 354.09257176 340.64951038 351.21243033 345.875 348.3125 C347.54555199 347.39709723 349.21612569 346.48173406 350.88671875 345.56640625 C355.23403864 343.1786232 359.55126737 340.7445996 363.875 338.3125 C363.875 325.7725 363.875 313.2325 363.875 300.3125 C361.45897043 300.3125 359.25839688 302.37236324 357.19799805 303.56469727 Z M-105.125 359.3125 C-105.24885084 364.49022746 -105.33945571 369.66708788 -105.3996582 374.84594727 C-105.42476061 376.60651676 -105.45885028 378.36698247 -105.50219727 380.12719727 C-105.56304115 382.66188179 -105.59125113 385.19518575 -105.61328125 387.73046875 C-105.63908768 388.51399216 -105.6648941 389.29751556 -105.69148254 390.1047821 C-105.6918602 390.84517227 -105.69223785 391.58556244 -105.69262695 392.34838867 C-105.70373001 392.99458664 -105.71483307 393.64078461 -105.72627258 394.30656433 C-104.72731034 397.63925244 -102.78324754 399.13526167 -100.125 401.3125 C-97.33432523 401.80401405 -95.15493101 401.98526499 -92.37097168 401.93891239 C-91.59342529 401.94588 -90.81587891 401.95284761 -90.01477051 401.96002635 C-87.39932288 401.97732406 -84.78534606 401.95887772 -82.16992188 401.94068909 C-80.28000464 401.94573231 -78.39009217 401.9529594 -76.50019073 401.96218723 C-71.29905982 401.98116831 -66.09839717 401.96884271 -60.89727783 401.9514643 C-55.29119347 401.93812456 -49.68517917 401.95351518 -44.07910156 401.96528625 C-33.09374335 401.98369257 -22.10856268 401.97513053 -11.12320995 401.95719803 C-2.19744294 401.94318849 6.72827578 401.93927569 15.65405273 401.9426403 C16.92304712 401.94311775 18.1920415 401.94359519 19.49949026 401.9440871 C22.07719995 401.9451134 24.65490962 401.94616876 27.23261929 401.94725286 C50.73000851 401.95608514 74.22728179 401.93740878 97.72464311 401.90672263 C119.18104579 401.87886135 140.63733516 401.87389806 162.09375 401.88891602 C167.58784987 401.89273836 173.08194975 401.89653313 178.5760498 401.9000864 C179.25241012 401.90052422 179.92877043 401.90096203 180.6256265 401.90141311 C198.54736024 401.91264945 216.46908362 401.90523378 234.39081573 401.89220566 C236.9591929 401.89036121 239.52757008 401.88852649 242.09594727 401.88670158 C243.35973127 401.88578949 244.62351527 401.8848774 245.92559576 401.88393768 C254.84355502 401.87832499 263.76148565 401.88164628 272.67944336 401.88824654 C283.54328558 401.89596753 294.40700588 401.88927165 305.27082348 401.8640715 C310.8167183 401.85154783 316.36242306 401.84546465 321.9083252 401.85661316 C326.98115541 401.86661835 332.05360572 401.85827553 337.1263895 401.83503198 C338.96547598 401.829852 340.80459621 401.83147151 342.64366817 401.84042663 C345.13656223 401.85155938 347.62815771 401.83825731 350.12097168 401.81865788 C351.20131054 401.8322761 351.20131054 401.8322761 352.30347443 401.84616944 C355.83397548 401.79176366 357.78415769 401.36982998 360.79712677 399.46836513 C364.54262577 395.58228075 364.00760262 391.44209706 363.97265625 386.36328125 C363.9712413 385.59066452 363.96982635 384.81804779 363.96836853 384.02201843 C363.96277466 381.55630611 363.95022333 379.09068485 363.9375 376.625 C363.93248421 374.95247527 363.92792144 373.27994912 363.92382812 371.60742188 C363.91280724 367.50907954 363.89554684 363.41080521 363.875 359.3125 C360.5428989 360.58400307 357.45889655 362.0193406 354.35546875 363.7734375 C334.35102223 374.85115843 314.53393544 380.32563445 291.83007812 374.30322266 C285.71739167 372.4783787 279.91199644 369.8775111 274.16357422 367.13085938 C260.93718921 360.8432534 246.02289976 360.07599253 232.1484375 364.96875 C228.35351867 366.52656871 224.61586758 368.19262733 220.875 369.875 C202.77476553 377.96561248 182.6318658 379.23879418 163.875 372.3125 C159.91962284 370.69720632 156.01862769 368.97284121 152.16357422 367.13085938 C138.83418323 360.79428605 123.90721782 360.11473697 109.9375 365.0390625 C106.7558202 366.36205691 103.66528101 367.81434348 100.5625 369.3125 C82.87887744 377.65662849 63.49639455 379.10484143 44.84863281 373.0234375 C40.64528587 371.50931747 36.58833664 369.66700353 32.52050781 367.82568359 C18.0523364 361.28327488 3.55384714 360.09344714 -11.6640625 364.96875 C-15.42139164 366.42757757 -19.00646491 368.10711637 -22.625 369.875 C-39.44009773 378.03888305 -59.39990938 379.03428043 -77.14697266 373.06201172 C-82.6686305 370.96975184 -87.87260282 368.21702328 -93.05761719 365.41064453 C-97.0382467 363.2962289 -101.08639353 361.31331051 -105.125 359.3125 Z " fill="#000000" transform="translate(131.125,55.6875)"/>
<path d="M0 0 C2.67860177 2.77506111 3.28191755 4.71059292 3.34765625 8.5234375 C2.16345504 12.28501782 1.46738685 13.61375912 -1.71484375 15.8984375 C-3.05735231 16.42894492 -4.4129934 16.92693407 -5.77734375 17.3984375 C-9.24967837 18.6095672 -11.00867849 19.48610697 -12.71484375 22.8984375 C-13.02421875 24.0740625 -13.33359375 25.2496875 -13.65234375 26.4609375 C-14.71484375 29.8984375 -14.71484375 29.8984375 -16.33984375 31.8359375 C-19.81602707 33.39107214 -22.97354121 33.61289568 -26.71484375 32.8984375 C-29.14603998 31.02828656 -30.35553548 29.61705405 -31.71484375 26.8984375 C-31.78639959 19.19902951 -30.17148117 12.715301 -24.953125 6.953125 C-18.9918737 1.35493616 -8.12026625 -5.21620748 0 0 Z " fill="#000000" transform="translate(173.71484375,114.1015625)"/>
</svg>
