<?xml version="1.0" encoding="UTF-8"?>
<svg version="1.1" xmlns="http://www.w3.org/2000/svg" width="689" height="700">
<path d="M0 0 C0.40343376 1.07328804 0.40343376 1.07328804 0.8150177 2.16825867 C3.35511393 8.92325495 5.89989083 15.67646032 8.44989491 22.42772198 C9.76059492 25.89836122 11.06949808 29.3696557 12.37426758 32.8425293 C13.63437461 36.19632324 14.89923677 39.54828823 16.16736412 42.89905739 C16.64945639 44.17538764 17.12985494 45.45235901 17.60849953 46.72998619 C18.28109279 48.52441629 18.96036676 50.31633797 19.63989258 52.1081543 C20.02405838 53.12741501 20.40822418 54.14667572 20.80403137 55.19682312 C21.94777332 58.05509701 21.94777332 58.05509701 23.64750671 60.74324036 C25 63 25 63 25 65 C44.3891273 74.69456365 57.53790743 70.43417572 83 71 C82.67 105.65 82.34 140.3 82 176 C91.9 176.495 91.9 176.495 102 177 C106.04046312 177.47606665 109.94895268 177.97675859 113.9375 178.6875 C114.93563721 178.86192627 115.93377441 179.03635254 116.9621582 179.21606445 C154.03644617 186.00886039 186.93478364 202.85914212 214 229 C214.99451097 229.93128942 215.98930622 230.86227536 216.984375 231.79296875 C232.56550348 246.59933104 244.44404857 264.92671873 252.84375 284.65625 C253.77529287 287.13942537 253.77529287 287.13942537 256 288 C256.67578125 290.0546875 256.67578125 290.0546875 257.3125 292.875 C258.20276703 296.70269633 259.12538018 300.50527814 260.19921875 304.28515625 C273.15695733 350.19187174 267.99472145 397.25142786 245 439 C236.73000569 453.50220768 226.50461407 465.95044084 215 478 C214.46721436 478.55905029 213.93442871 479.11810059 213.38549805 479.6940918 C187.30453918 506.4614888 150.41907105 522.81456433 114 529 C113.31099609 529.11714355 112.62199219 529.23428711 111.91210938 529.35498047 C101.13599414 531.10674993 91.05038956 531 80 531 C80 562.68 80 594.36 80 627 C64.24687338 627 64.24687338 627 58.96630859 626.64868164 C57.18539322 626.53339867 57.18539322 626.53339867 55.36849976 626.41578674 C54.14087921 626.33142868 52.91325867 626.24707062 51.6484375 626.16015625 C50.34597076 626.07374374 49.04350403 625.98733124 47.7015686 625.89830017 C44.97710689 625.7171373 42.25288667 625.53278789 39.52880859 625.34594727 C36.04365527 625.10710445 32.55804879 624.87580374 29.07224083 624.6467371 C25.72238862 624.42573436 22.37293299 624.19900242 19.0234375 623.97265625 C17.77557465 623.89032242 16.52771179 623.80798859 15.24203491 623.72315979 C14.0862796 623.64315231 12.93052429 623.56314484 11.73974609 623.48071289 C10.21756973 623.37745445 10.21756973 623.37745445 8.66464233 623.27210999 C6.34183253 623.03490752 4.23978359 622.64133332 2 622 C1.83310669 622.53507675 1.66621338 623.0701535 1.4942627 623.6214447 C-0.41180059 629.55227765 -2.73006026 635.19955254 -5.28125 640.87890625 C-5.69175598 641.80141174 -6.10226196 642.72391724 -6.52520752 643.67437744 C-7.84590824 646.63899334 -9.1727469 649.60081256 -10.5 652.5625 C-11.40680599 654.59389127 -12.31338095 656.6253857 -13.21972656 658.65698242 C-19.3924731 672.47814119 -25.62287358 686.27177009 -32 700 C-38.00658324 698.1210125 -43.70083941 695.90977607 -49.390625 693.2265625 C-50.16510483 692.86641556 -50.93958466 692.50626862 -51.73753357 692.13520813 C-53.38931664 691.36666238 -55.04013027 690.59603009 -56.69003296 689.82345581 C-61.0502974 687.78218568 -65.41807998 685.75711401 -69.78515625 683.73046875 C-71.09363274 683.12257256 -71.09363274 683.12257256 -72.42854309 682.50239563 C-80.15369338 678.91769007 -87.91144961 675.41015591 -95.6875 671.9375 C-97.42580078 671.15874512 -97.42580078 671.15874512 -99.19921875 670.36425781 C-104.51839845 667.98502795 -109.84567042 665.62756726 -115.19140625 663.30859375 C-116.13733643 662.89424072 -117.0832666 662.4798877 -118.05786133 662.05297852 C-119.79461926 661.29303864 -121.53512112 660.54157164 -123.2800293 659.80053711 C-125.22366268 658.94667814 -127.11853557 657.98329928 -129 657 C-130.35797045 652.92608865 -129.16870813 651.7109527 -127.2734375 647.91015625 C-126.97430954 647.30224747 -126.67518158 646.69433868 -126.36698914 646.06800842 C-125.71806891 644.75151159 -125.0647232 643.43718904 -124.40750122 642.12481689 C-122.65426109 638.62289683 -120.93319651 635.10516518 -119.20703125 631.58984375 C-118.67676582 630.5134967 -118.67676582 630.5134967 -118.13578796 629.41540527 C-114.10495962 621.21804833 -110.27774506 612.93069326 -106.45385742 604.63525391 C-104.1341775 599.60412265 -101.81021454 594.5772881 -99.4140625 589.58203125 C-99.03241943 588.78458496 -98.65077637 587.98713867 -98.25756836 587.16552734 C-97.57057076 585.73510524 -96.87905815 584.30683788 -96.18188477 582.88134766 C-94.82159559 580.04420512 -94 578.19243319 -94 575 C-95.97597377 573.03504643 -95.97597377 573.03504643 -98.625 571.0625 C-99.64207031 570.25296875 -100.65914062 569.4434375 -101.70703125 568.609375 C-102.25053223 568.17947266 -102.7940332 567.74957031 -103.35400391 567.30664062 C-112.88857406 559.73781543 -121.68654695 551.51961039 -130.3125 542.9375 C-131.23135986 542.02782471 -132.15021973 541.11814941 -133.09692383 540.1809082 C-139.15579766 534.09468054 -144.69054468 527.74697707 -150 521 C-150.95024048 519.79887573 -150.95024048 519.79887573 -151.91967773 518.57348633 C-153.64824296 516.37211111 -155.35841277 514.15785508 -157.0625 511.9375 C-157.64193359 511.19306641 -158.22136719 510.44863281 -158.81835938 509.68164062 C-159.36427734 508.97072266 -159.91019531 508.25980469 -160.47265625 507.52734375 C-160.96000244 506.89562256 -161.44734863 506.26390137 -161.94946289 505.61303711 C-163 504 -163 504 -163 502 C-172.23628099 499.46487073 -179.48790853 501.78670906 -188.19921875 504.98046875 C-189.35186722 505.39033524 -190.50451569 505.80020172 -191.6920929 506.2224884 C-195.3621192 507.53093769 -199.02475666 508.8588176 -202.6875 510.1875 C-205.12909233 511.06184635 -207.57114598 511.93490563 -210.01367188 512.80664062 C-218.26952143 515.75788692 -226.51672596 518.73275741 -234.75634766 521.72900391 C-235.42132767 521.96960037 -236.08630768 522.21019684 -236.7714386 522.45808411 C-238.41602817 523.0532099 -240.05928704 523.65200977 -241.70239258 524.2512207 C-244 525 -244 525 -246 525 C-247.18627423 521.94273794 -248.37244268 518.88543484 -249.55859375 515.828125 C-250.12274994 514.37411537 -250.12274994 514.37411537 -250.69830322 512.89073181 C-252.80339321 507.46460502 -254.90724168 502.03800106 -257.0090332 496.6105957 C-260.93360699 486.47766281 -264.86039367 476.34575614 -268.8200531 466.22647095 C-270.40379206 462.17731053 -271.98253738 458.12621338 -273.56057739 454.0748291 C-274.31051113 452.15339679 -275.06284334 450.23289884 -275.81759644 448.31335449 C-276.86757464 445.64222906 -277.90929743 442.96802234 -278.94921875 440.29296875 C-279.26078918 439.50663559 -279.57235962 438.72030243 -279.89337158 437.91014099 C-281.26608748 434.35595148 -282 431.85972105 -282 428 C-276.08563262 425.09945499 -270.16868465 422.20422507 -264.25 419.3125 C-263.36974152 418.88226532 -262.48948303 418.45203064 -261.58255005 418.00875854 C-248.96346908 411.84611209 -236.30301899 405.79804463 -223.50683594 400.01098633 C-213.49299166 395.9862106 -213.49299166 395.9862106 -207 388 C-205.80806097 380.36755135 -205.78492421 372.72010146 -205.68359375 365.0078125 C-205.66293662 363.65371191 -205.64193852 362.29961648 -205.62062073 360.94552612 C-205.57689971 358.11312962 -205.53597013 355.28071228 -205.49731445 352.44824219 C-205.44854422 348.87703166 -205.39483231 345.30591856 -205.33939171 341.73480606 C-205.22449116 334.33297814 -205.12995944 326.93119479 -205.04705811 319.52893066 C-205.00455005 316.34121262 -204.94046409 313.15491485 -204.86767578 309.96777344 C-204.83976788 308.26758467 -204.81222479 306.56738984 -204.78515625 304.8671875 C-204.74992104 303.76819626 -204.74992104 303.76819626 -204.713974 302.64700317 C-204.66262706 297.96807948 -205.29440102 294.841771 -208 291 C-212.8082624 287.15345069 -218.4481745 284.7438547 -224.109375 282.43359375 C-224.86657837 282.11766266 -225.62378174 281.80173157 -226.40393066 281.47622681 C-228.85005241 280.45700941 -231.29999195 279.44733455 -233.75 278.4375 C-236.30073502 277.37682602 -238.85040859 276.31362669 -241.40008545 275.25041199 C-243.11267013 274.53653662 -244.8256019 273.82349338 -246.53887939 273.11128235 C-254.46559394 269.81495277 -262.36239092 266.45113964 -270.25 263.0625 C-271.42014648 262.56097412 -272.59029297 262.05944824 -273.79589844 261.54272461 C-281.71898496 258.14050752 -281.71898496 258.14050752 -284 257 C-282.61878755 252.58946168 -280.91535377 248.48796907 -278.9375 244.3125 C-278.63422791 243.66986206 -278.33095581 243.02722412 -278.01849365 242.3651123 C-277.01552315 240.24188107 -276.00774894 238.12096686 -275 236 C-274.28777624 234.49428708 -273.57586865 232.98842457 -272.86425781 231.48242188 C-270.58077875 226.65275925 -268.2907553 221.8262147 -266 217 C-265.22587756 215.36850567 -264.45178895 213.73699528 -263.67773438 212.10546875 C-263.29500366 211.2987825 -262.91227295 210.49209625 -262.51794434 209.66096497 C-260.97713132 206.41299655 -259.4368 203.16479978 -257.89648438 199.91659546 C-256.75480622 197.51013071 -255.61180048 195.10429948 -254.46875 192.69848633 C-251.02255504 185.43770974 -247.59936997 178.16866138 -244.265625 170.85546875 C-243.98193054 170.23427155 -243.69823608 169.61307434 -243.40594482 168.97305298 C-242.10363093 166.11884134 -240.80913317 163.26149637 -239.52636719 160.3984375 C-239.08454102 159.42519531 -238.64271484 158.45195312 -238.1875 157.44921875 C-237.80980469 156.60705811 -237.43210938 155.76489746 -237.04296875 154.8972168 C-236 153 -236 153 -234 152 C-231.37699868 153.01282876 -228.86719726 154.0957917 -226.3203125 155.27734375 C-225.5320105 155.63535568 -224.7437085 155.99336761 -223.93151855 156.36222839 C-222.22127213 157.14000582 -220.51265598 157.92137558 -218.80548096 158.70587158 C-216.11875972 159.94036729 -213.42802521 161.1656544 -210.73583984 162.38818359 C-207.01935137 164.07608723 -203.30418987 165.76686025 -199.58984375 167.45947266 C-191.74243067 171.03086376 -183.87513586 174.55740272 -175.99945068 178.06594849 C-173.64801409 179.11473526 -171.2988324 180.16846086 -168.94970703 181.22241211 C-167.52128692 181.85949945 -166.09274567 182.49631529 -164.6640625 183.1328125 C-164.01385132 183.42568649 -163.36364014 183.71856049 -162.69372559 184.02030945 C-159.47123562 185.51938318 -159.47123562 185.51938318 -156 186 C-154.46541507 183.9885321 -153.03894083 181.96912686 -151.625 179.875 C-143.27798476 167.93104537 -133.69866204 157.52471759 -123.4375 147.1875 C-122.57535889 146.31601318 -121.71321777 145.44452637 -120.82495117 144.54663086 C-114.85936239 138.61040973 -108.60083463 133.21628487 -102 128 C-101.32235596 127.45867432 -100.64471191 126.91734863 -99.9465332 126.35961914 C-98.28604678 125.03986119 -96.61489493 123.73565781 -94.9375 122.4375 C-94.38384766 122.00115234 -93.83019531 121.56480469 -93.25976562 121.11523438 C-89.23490237 118 -89.23490237 118 -87 118 C-86.71125 117.278125 -86.4225 116.55625 -86.125 115.8125 C-85.42499829 114.06249572 -84.6818624 112.32837618 -83.875 110.625 C-81.98677225 104.96031676 -83.00703725 100.1082117 -85.16796875 94.6953125 C-85.64331055 93.48713867 -86.11865234 92.27896484 -86.60839844 91.03417969 C-87.1346676 89.7310802 -87.66103729 88.42802131 -88.1875 87.125 C-88.72416237 85.77032388 -89.25962271 84.41517101 -89.79394531 83.05957031 C-91.21798128 79.45447184 -92.65560877 75.85495812 -94.09686279 72.25671387 C-96.53674301 66.1600638 -98.95822053 60.05610951 -101.37588501 53.95062256 C-102.24055597 51.77377576 -103.11239264 49.59990188 -103.98510742 47.42626953 C-104.51632222 46.09155449 -105.04733855 44.75676044 -105.578125 43.421875 C-106.04637695 42.25237305 -106.51462891 41.08287109 -106.99707031 39.87792969 C-108 37 -108 37 -108 34 C-94.80815455 29.55596185 -81.61282781 25.12240233 -68.41342735 20.70085144 C-62.28458026 18.64746339 -56.15689496 16.5907401 -50.03173828 14.52636719 C-44.12106002 12.53441719 -38.20749738 10.55126472 -32.29182816 8.57418823 C-30.03493839 7.8181951 -27.77910755 7.05903313 -25.52436447 6.29666138 C-22.36712884 5.22974081 -19.20632266 4.17412938 -16.04443359 3.12109375 C-15.11222992 2.80316864 -14.18002625 2.48524353 -13.21957397 2.15768433 C-8.67001941 0.65560162 -4.86092152 -0.39971454 0 0 Z " fill="#006EB6" transform="translate(284,0)"/>
<path d="M0 0 C0.88993652 0.20898926 1.77987305 0.41797852 2.69677734 0.63330078 C35.26871818 8.52648303 63.98113041 24.801447 88 48 C88.99451097 48.93128942 89.98930622 49.86227536 90.984375 50.79296875 C106.56550348 65.59933104 118.44404857 83.92671873 126.84375 103.65625 C127.77529287 106.13942537 127.77529287 106.13942537 130 107 C130.67578125 109.0546875 130.67578125 109.0546875 131.3125 111.875 C132.20276703 115.70269633 133.12538018 119.50527814 134.19921875 123.28515625 C147.15695733 169.19187174 141.99472145 216.25142786 119 258 C110.73000569 272.50220768 100.50461407 284.95044084 89 297 C88.46721436 297.55905029 87.93442871 298.11810059 87.38549805 298.6940918 C61.30453918 325.4614888 24.41907105 341.81456433 -12 348 C-12.68900391 348.11714355 -13.37800781 348.23428711 -14.08789062 348.35498047 C-24.76205216 350.09017629 -35.22130972 350.30002085 -46 350 C-46.82081055 349.98066406 -47.64162109 349.96132813 -48.48730469 349.94140625 C-59.23236344 349.660057 -69.53699101 348.77871248 -80.0390625 346.43261719 C-82.0317427 345.992997 -84.0297651 345.59272272 -86.03125 345.1953125 C-111.61233754 339.90465784 -136.48366597 328.11612028 -157 312 C-157.8765625 311.34386719 -158.753125 310.68773437 -159.65625 310.01171875 C-189.00787308 287.24652916 -209.60267188 256.27542629 -220.41113281 220.92578125 C-220.90192585 219.32073336 -221.41327027 217.72198773 -221.9296875 216.125 C-229.01071774 192.76490024 -229.88051829 164.74770653 -224.44873047 140.97998047 C-223.98927895 138.9526944 -223.58759899 136.91941892 -223.19140625 134.87890625 C-218.67197376 112.67090272 -209.17348149 91.28516984 -195.5 73.25 C-190.43650142 66.53552987 -188.90182038 61.92834627 -188.4140625 53.46484375 C-187.6659716 47.20487552 -184.44819775 41.44819775 -180 37 C-177.97665641 37.04598508 -175.95257087 37.10302323 -173.93286133 37.23266602 C-164.70526922 37.84214894 -164.70526922 37.84214894 -156.8125 33.5625 C-156.05839844 32.83160156 -155.30429688 32.10070312 -154.52734375 31.34765625 C-151.5327254 28.56594739 -148.38472342 26.56660272 -144.875 24.5 C-144.23925049 24.12520508 -143.60350098 23.75041016 -142.94848633 23.36425781 C-99.95302239 -1.55411665 -48.81583598 -11.68678517 0 0 Z " fill="#FDFCFC" transform="translate(410,181)"/>
<path d="M0 0 C14.0089056 12.61135846 23.06396244 28.37940249 25.28442383 47.19384766 C26.45293242 69.68763797 20.68227649 88.33959802 6.19458008 105.69775391 C-7.61938891 120.4892477 -26.44700246 127.69478386 -46.46557617 128.50634766 C-68.67311072 127.89347738 -86.69258115 119.16065753 -102.13745117 103.25244141 C-116.23376356 87.28674435 -119.71591966 67.51141006 -118.90209961 46.95068359 C-117.69232848 29.07013958 -108.22198612 14.34239347 -95.71557617 2.19384766 C-95.08651367 1.57896484 -94.45745117 0.96408203 -93.80932617 0.33056641 C-68.27268576 -22.97764076 -25.90969383 -22.15731137 0 0 Z " fill="#FBFCFD" transform="translate(522.715576171875,66.80615234375)"/>
<path d="M0 0 C12.99699806 11.17576267 21.46057042 26.22126808 24.453125 43.109375 C25.96888383 64.79831581 23.08265497 85.11418278 8.47387695 102.01806641 C-4.65422359 116.39766508 -21.06318113 126.45911202 -40.87890625 127.421875 C-62.46108358 128.06585211 -81.38171623 122.86752272 -97.5703125 108.05859375 C-110.83119029 95.27707591 -118.74016285 77.76981687 -119.75 59.41796875 C-120.01737243 37.33746199 -113.04395557 19.09086922 -97.859375 2.921875 C-70.28771756 -23.5974291 -29.23834799 -22.58531072 0 0 Z " fill="#FBFCFD" transform="translate(657.546875,194.890625)"/>
<path d="M0 0 C14.88593953 12.14262271 26.01225072 28.32032876 28.30664062 47.72021484 C29.81767536 67.94709372 26.63327574 86.17464662 14.13867188 102.56396484 C11.95553232 105.0678134 9.68492495 107.40188726 7.30664062 109.72021484 C6.57058594 110.48849609 5.83453125 111.25677734 5.07617188 112.04833984 C-6.10889687 123.06478946 -22.04955025 129.77297503 -37.69335938 130.72021484 C-38.97919922 130.79949219 -38.97919922 130.79949219 -40.29101562 130.88037109 C-60.49466856 131.505787 -78.23300385 124.73297024 -93.34960938 111.37255859 C-107.36661589 98.05218042 -115.41393099 80.1880532 -116.09814453 60.84814453 C-116.38448513 39.48799041 -109.0087162 21.69001092 -94.26757812 6.16552734 C-69.38669801 -18.0887232 -27.93164567 -21.10981641 0 0 Z " fill="#FBFCFD" transform="translate(547.693359375,510.27978515625)"/>
<path d="M0 0 C7.55493368 6.58262712 12.85528609 13.74077784 17.375 22.625 C17.70072998 23.2651001 18.02645996 23.9052002 18.36206055 24.56469727 C23.34741608 34.84269813 24.56277127 44.03024852 24.5 55.4375 C24.51998047 56.71431641 24.53996094 57.99113281 24.56054688 59.30664062 C24.55072339 78.6097952 16.45005975 94.91044525 3.0625 108.625 C-12.5181555 122.65196654 -31.1756857 128.58048773 -51.93359375 127.96875 C-71.40528606 126.92648775 -88.16533625 117.94491832 -101.5625 104 C-116.405918 86.84468681 -120.35710485 66.77559407 -118.9375 44.625 C-116.51685322 25.31805437 -105.00316781 8.40122069 -89.9375 -3.375 C-62.16877354 -22.78576941 -26.27481499 -20.41990436 0 0 Z " fill="#FBFBFD" transform="translate(664.9375,366.375)"/>
<path d="M0 0 C1.54202616 0.45712238 3.08360214 0.91576347 4.625 1.375 C5.48351562 1.63023437 6.34203125 1.88546875 7.2265625 2.1484375 C10 3 10 3 12.44189453 4.06030273 C17.56810795 5.41413802 22.43252882 5.06151471 27.703125 4.88671875 C76.13906537 3.95799502 76.13906537 3.95799502 94.45849609 19.03222656 C98.98240339 22.53488677 104.00508178 25.23061511 109 28 C107.77263344 31.39214757 106.45947848 33.96572583 104.12890625 36.71484375 C103.55970459 37.39442139 102.99050293 38.07399902 102.40405273 38.77416992 C101.79634033 39.48806885 101.18862793 40.20196777 100.5625 40.9375 C99.29294456 42.45201422 98.02473373 43.96765652 96.7578125 45.484375 C96.12520508 46.24041016 95.49259766 46.99644531 94.84082031 47.77539062 C91.69646523 51.57530621 88.66576812 55.46200091 85.64086914 59.35717773 C82.83108994 62.96895974 79.94496572 66.498588 77 70 C74.30782045 67.30782045 73.49398659 64.21849553 72.3125 60.6875 C72.07466797 60.02298828 71.83683594 59.35847656 71.59179688 58.67382812 C70.26764135 54.74795939 69.45494597 51.9115292 71 48 C73.03125 45.39453125 73.03125 45.39453125 75.5 42.8125 C78.61845094 39.6654128 78.61845094 39.6654128 81 36 C80.236875 35.773125 79.47375 35.54625 78.6875 35.3125 C75.44367239 34.15791729 72.39565225 32.85241567 69.26953125 31.41796875 C68.28186768 30.96574951 67.2942041 30.51353027 66.27661133 30.04760742 C65.52532959 29.70189697 64.77404785 29.35618652 64 29 C63.96795177 48.07327458 66.44547884 65.51340632 71 84 C71.58174842 86.40860822 72.16247185 88.81746422 72.7421875 91.2265625 C73.61615793 94.84854671 74.49262003 98.46982117 75.37768555 102.08911133 C77.52278783 110.88887196 79.52723507 119.70915676 81.4375 128.5625 C81.69660156 129.75230469 81.95570313 130.94210937 82.22265625 132.16796875 C82.45726562 133.26882813 82.691875 134.3696875 82.93359375 135.50390625 C83.2438147 136.95518921 83.2438147 136.95518921 83.56030273 138.43579102 C84 141 84 141 84 145 C80.19380871 146.85638226 76.38518959 148.7076563 72.57421875 150.55419922 C71.27763717 151.18332711 69.98173413 151.81385541 68.68652344 152.44580078 C66.82662989 153.35296172 64.96436859 154.25508803 63.1015625 155.15625 C61.98088379 155.70087891 60.86020508 156.24550781 59.70556641 156.80664062 C57 158 57 158 55 158 C53.56104954 149.35141769 52.12643765 140.70213012 50.69733429 132.05191517 C50.03358429 128.03514896 49.36835172 124.01864012 48.69970703 120.00268555 C48.05428887 116.1258932 47.4127965 112.24846974 46.77400208 108.37058067 C46.52980274 106.89241148 46.28419815 105.41447372 46.03715515 103.93677711 C45.69095051 101.86445548 45.3497855 99.79136167 45.00976562 97.71801758 C44.81435181 96.53887283 44.61893799 95.35972809 44.41760254 94.14485168 C44.05010817 91.37735104 43.91548424 88.78564855 44 86 C43.34 86 42.68 86 42 86 C41.94054199 86.54672363 41.88108398 87.09344727 41.81982422 87.65673828 C39.23908346 111.14955888 36.09420515 134.57051645 33 158 C24.27986808 156.90787054 15.66696213 155.68294146 7.0625 153.875 C6.17626953 153.69324219 5.29003906 153.51148438 4.37695312 153.32421875 C2.25035385 152.88740376 0.12502278 152.44442101 -2 152 C-1.40248287 143.9071577 0.60184555 136.36520206 2.75 128.5625 C3.11692264 127.21035392 3.48329173 125.85805751 3.84912109 124.50561523 C5.93126219 116.82583394 8.05167115 109.15641123 10.20605469 101.49658203 C12.1618889 94.51028981 13.96959314 87.48588203 15.7590332 80.45532227 C16.8752577 76.1131619 18.01782868 71.81376135 19.45703125 67.56640625 C23.41481817 55.7920948 23.91630211 44.3790814 24 32 C23.34 32 22.68 32 22 32 C21.63261719 33.85431641 21.63261719 33.85431641 21.2578125 35.74609375 C19.93798884 41.68530024 17.91851269 47.33994239 15.875 53.0625 C15.31619141 54.64708008 15.31619141 54.64708008 14.74609375 56.26367188 C13.83534623 58.84412317 12.91990295 61.42280144 12 64 C11.34 64 10.68 64 10 64 C8.21391695 61.63737766 6.5619625 59.28251017 4.9375 56.8125 C4.47794922 56.13896484 4.01839844 55.46542969 3.54492188 54.77148438 C-0.9658478 47.98214676 -0.9658478 47.98214676 -1 44 C0.109375 41.859375 0.109375 41.859375 1.75 39.75 C6.66571044 32.84514162 9.30191683 25.54114665 8 17 C6.30504449 11.1849988 4.00661476 6.5789883 0 2 C0 1.34 0 0.68 0 0 Z " fill="#1F3E71" transform="translate(331,307)"/>
<path d="M0 0 C1.03370224 0.23088318 2.06740448 0.46176636 3.13243103 0.699646 C5.30547284 1.1877432 7.47787513 1.6786955 9.6496582 2.17236328 C12.95544685 2.91975051 16.26553098 3.64554785 19.57617188 4.37109375 C21.69691478 4.85023572 23.81736808 5.3306617 25.9375 5.8125 C26.91791763 6.02416809 27.89833527 6.23583618 28.90846252 6.45391846 C36.43545462 8.20463726 43.26829928 11.03362398 48.27734375 17.171875 C48.96957031 17.99171875 48.96957031 17.99171875 49.67578125 18.828125 C53.77941635 24.99664656 53.69243595 31.50628631 52.90234375 38.671875 C51.61960298 43.1924633 50.06865406 47.49680422 47.90234375 51.671875 C46.91234375 52.166875 46.91234375 52.166875 45.90234375 52.671875 C46.11890625 52.05183594 46.33546875 51.43179688 46.55859375 50.79296875 C49.17211283 42.48052611 51.02902906 32.59160942 48 24.16015625 C46.86137181 22.05493128 46.86137181 22.05493128 44.90234375 19.671875 C44.7321875 20.27515625 44.56203125 20.8784375 44.38671875 21.5 C42.703481 27.05110322 41.23671617 30.65389256 36.1015625 33.76171875 C33.46637467 34.8523027 31.49298209 34.87162864 28.65234375 34.796875 C27.31429687 34.76980469 27.31429687 34.76980469 25.94921875 34.7421875 C25.27375 34.71898437 24.59828125 34.69578125 23.90234375 34.671875 C24.23234375 35.331875 24.56234375 35.991875 24.90234375 36.671875 C25.05101541 38.79330522 25.12367265 40.92043492 25.15234375 43.046875 C25.178125 44.18898438 25.20390625 45.33109375 25.23046875 46.5078125 C24.87855802 49.90123735 24.19817159 51.21896421 21.90234375 53.671875 C23.43196361 57.11351969 25.52963441 59.76339258 27.90234375 62.671875 C30.10583521 67.07885793 28.91881856 71.81805113 27.65234375 76.359375 C27.04691746 78.59689278 27.04691746 78.59689278 26.90234375 80.671875 C28.54853724 83.06815655 28.54853724 83.06815655 30.90234375 84.671875 C32.722227 87.60635803 33.15367438 89.80492909 33.08984375 93.234375 C33.08339844 93.99878906 33.07695312 94.76320313 33.0703125 95.55078125 C32.90234375 97.671875 32.90234375 97.671875 31.90234375 100.671875 C38.95010213 98.78326001 43.27472329 96.82802814 47.3125 90.44140625 C51.09216099 83.65065043 52.07645709 78.42836826 50.21484375 70.88671875 C49.50379369 68.45615819 48.74036715 66.06123935 47.90234375 63.671875 C52.3205841 67.70645863 54.02907032 73.05614962 54.40234375 78.921875 C54.08055112 86.67171415 50.83892898 94.32155645 45.27734375 99.734375 C37.28185716 105.69016671 26.4514838 106.38774024 16.83984375 107.734375 C15.06855103 107.98815918 15.06855103 107.98815918 13.26147461 108.24707031 C-25.97538161 113.79318004 -25.97538161 113.79318004 -33.5390625 108.2265625 C-36.90428587 104.86977328 -37.88051021 101.19189729 -38.53515625 96.609375 C-37.97091423 92.82089289 -36.38766496 90.70276888 -34.09765625 87.671875 C-33.43765625 86.681875 -32.77765625 85.691875 -32.09765625 84.671875 C-32.69578125 84.445 -33.29390625 84.218125 -33.91015625 83.984375 C-36.8980936 82.19161259 -37.74763099 80.91193563 -39.09765625 77.671875 C-39.78432971 72.71624362 -39.94747577 68.31653343 -37.09765625 64.046875 C-36.10765625 62.87125 -36.10765625 62.87125 -35.09765625 61.671875 C-35.50757813 61.22457031 -35.9175 60.77726562 -36.33984375 60.31640625 C-43.10882719 52.72154205 -43.10882719 52.72154205 -43.08984375 47.5390625 C-42.73570277 42.87364004 -41.94798142 39.51361762 -39.09765625 35.671875 C-40.30421875 34.2796875 -40.30421875 34.2796875 -41.53515625 32.859375 C-45.2211882 28.60626121 -45.44261317 24.64255631 -45.37890625 19.1796875 C-44.84219039 14.3939711 -42.40622791 11.73287905 -38.78515625 8.796875 C-35.42378052 7.38978749 -32.70531047 7.45966005 -29.09765625 7.671875 C-28.87078125 6.764375 -28.64390625 5.856875 -28.41015625 4.921875 C-23.41149101 -7.45577225 -10.04783774 -2.25692774 0 0 Z " fill="#EC842A" transform="translate(281.09765625,296.328125)"/>
<path d="M0 0 C14.88593953 12.14262271 26.01225072 28.32032876 28.30664062 47.72021484 C29.81767536 67.94709372 26.63327574 86.17464662 14.13867188 102.56396484 C11.95553232 105.0678134 9.68492495 107.40188726 7.30664062 109.72021484 C6.57058594 110.48849609 5.83453125 111.25677734 5.07617188 112.04833984 C-6.10889687 123.06478946 -22.04955025 129.77297503 -37.69335938 130.72021484 C-38.97919922 130.79949219 -38.97919922 130.79949219 -40.29101562 130.88037109 C-60.49466856 131.505787 -78.23300385 124.73297024 -93.34960938 111.37255859 C-107.36661589 98.05218042 -115.41393099 80.1880532 -116.09814453 60.84814453 C-116.38448513 39.48799041 -109.0087162 21.69001092 -94.26757812 6.16552734 C-69.38669801 -18.0887232 -27.93164567 -21.10981641 0 0 Z M-90.4296875 20.15185547 C-101.36373279 33.72223934 -105.02520031 49.62544645 -103.69335938 66.72021484 C-101.78782137 80.74349456 -93.29371404 96.38251158 -82.07324219 104.95849609 C-75.26215581 109.87740252 -68.77067836 113.31281663 -60.69335938 115.72021484 C-60.35079102 114.69250977 -60.00822266 113.66480469 -59.65527344 112.60595703 C-53.31054687 93.57177734 -53.31054687 93.57177734 -52.50524902 91.15661621 C-51.97609811 89.56867675 -51.44752982 87.98054302 -50.91955566 86.39221191 C-49.76314249 82.91528371 -48.59814539 79.4423987 -47.41015625 75.97607422 C-47.04470703 74.90679688 -46.67925781 73.83751953 -46.30273438 72.73583984 C-45.98788086 71.82608398 -45.67302734 70.91632813 -45.34863281 69.97900391 C-44.5540531 67.63199914 -44.5540531 67.63199914 -44.69335938 64.72021484 C-51.29335938 64.72021484 -57.89335937 64.72021484 -64.69335938 64.72021484 C-64.11779297 62.94864014 -63.54222656 61.17706543 -62.94921875 59.35180664 C-61.04968647 53.50161231 -59.15420227 47.65011879 -57.26148224 41.79771709 C-56.11365381 38.24907102 -54.96420095 34.70096833 -53.81103516 31.15405273 C-52.698464 27.73179547 -51.59016086 24.30818327 -50.4848175 20.88358498 C-50.06211925 19.57654351 -49.63787912 18.26999966 -49.21208191 16.96396446 C-48.61648895 15.13623171 -48.02685571 13.30656013 -47.4375 11.47680664 C-46.93120056 9.9146064 -46.93120056 9.9146064 -46.41467285 8.32084656 C-45.55972393 5.68820588 -45.55972393 5.68820588 -45.69335938 2.72021484 C-45.0373877 3.02314453 -44.38141602 3.32607422 -43.70556641 3.63818359 C-40.74494609 5.00276661 -37.78170302 6.36155666 -34.81835938 7.72021484 C-33.78582031 8.19716797 -32.75328125 8.67412109 -31.68945312 9.16552734 C-30.70332031 9.61669922 -29.7171875 10.06787109 -28.70117188 10.53271484 C-27.33436279 11.16113281 -27.33436279 11.16113281 -25.93994141 11.80224609 C-23.78927315 12.84629782 -23.78927315 12.84629782 -21.69335938 12.72021484 C-26.27744576 22.0008039 -30.95096239 31.21633277 -35.89819336 40.30981445 C-37.96765542 43.81497982 -37.96765542 43.81497982 -38.69335938 47.72021484 C-33.08335937 48.05021484 -27.47335937 48.38021484 -21.69335938 48.72021484 C-28.46352341 60.92072034 -35.2544808 73.09824309 -42.38085938 85.09521484 C-42.9079248 85.98257324 -43.43499023 86.86993164 -43.97802734 87.78417969 C-45.02585208 89.54715046 -46.07386379 91.31001011 -47.12207031 93.07275391 C-49.76678567 97.52882808 -52.39293824 101.9954327 -55.00585938 106.47021484 C-55.48047607 107.27507324 -55.95509277 108.07993164 -56.4440918 108.90917969 C-57.08761597 110.01447021 -57.08761597 110.01447021 -57.74414062 111.14208984 C-58.12223877 111.78758789 -58.50033691 112.43308594 -58.88989258 113.09814453 C-59.84131458 114.71721967 -59.84131458 114.71721967 -59.69335938 116.72021484 C-47.3866621 120.25343367 -31.28447364 118.94437902 -19.69335938 113.72021484 C-18.7575 113.30771484 -17.82164062 112.89521484 -16.85742188 112.47021484 C-2.22439255 105.25617238 8.4618463 92.58913299 13.80664062 77.28271484 C18.99788376 60.38714113 16.92124785 44.50146435 9.05664062 28.97021484 C0.64578466 14.20685585 -12.32816034 4.38408836 -28.69335938 -0.27978516 C-52.60963795 -4.6128521 -74.12898011 1.42905189 -90.4296875 20.15185547 Z " fill="#036FB7" transform="translate(547.693359375,510.27978515625)"/>
<path d="M0 0 C1.10658966 0.00607269 1.10658966 0.00607269 2.23553467 0.01226807 C3.01289978 0.00876343 3.79026489 0.00525879 4.59118652 0.00164795 C7.16803849 -0.00717493 9.74461727 -0.00131833 12.32147217 0.00543213 C14.10744276 0.00408564 15.89341299 0.00214524 17.67938232 -0.00036621 C21.42534876 -0.00331823 25.17121992 0.00098264 28.91717529 0.01031494 C33.7261005 0.02170953 38.53480248 0.01515047 43.34371948 0.00317001 C47.03250825 -0.00404651 50.72124383 -0.00176162 54.41003418 0.0034256 C56.18351264 0.00476267 57.95699587 0.00311237 59.73046875 -0.00153351 C62.20624642 -0.00659536 64.68165927 0.0011065 67.15740967 0.01226807 C67.89513611 0.0082196 68.63286255 0.00417114 69.39294434 0 C74.46794339 0.04252835 74.46794339 0.04252835 76.69647217 2.27105713 C76.9369812 4.3583374 76.9369812 4.3583374 76.92352295 6.9644165 C76.92337189 7.9388269 76.92322083 8.9132373 76.92306519 9.91717529 C76.91274261 10.9723938 76.90242004 12.0276123 76.89178467 13.11480713 C76.88895477 14.19484009 76.88612488 15.27487305 76.88320923 16.38763428 C76.87198845 19.84888653 76.84689024 23.30988278 76.82147217 26.77105713 C76.81144396 29.1056888 76.80231783 31.44032453 76.79412842 33.77496338 C76.77441606 38.91130857 76.74595807 44.04752131 76.70993042 49.18377686 C76.70114597 50.54618268 76.69647217 51.90862299 76.69647217 53.27105713 C76.69647217 56.57105713 76.69647217 59.87105713 76.69647217 63.27105713 C49.30647217 63.27105713 21.91647217 63.27105713 -6.30352783 63.27105713 C-6.30352783 59.64105713 -6.30352783 56.01105713 -6.30352783 52.27105713 C-6.63352783 51.94105713 -6.96352783 51.61105713 -7.30352783 51.27105713 C-7.40711562 49.74719482 -7.44203922 48.21858727 -7.4487915 46.69122314 C-7.45517136 45.71673721 -7.46155121 44.74225128 -7.46812439 43.73823547 C-7.46923721 42.67785568 -7.47035004 41.61747589 -7.47149658 40.52496338 C-7.47482498 39.44351547 -7.47815338 38.36206757 -7.48158264 37.24784851 C-7.48665661 34.95537747 -7.48899082 32.66289901 -7.48883057 30.37042236 C-7.49101628 26.85215146 -7.50916511 23.33419432 -7.52813721 19.815979 C-7.53107111 17.59397487 -7.53305593 15.37196925 -7.53399658 13.14996338 C-7.5411821 12.09160782 -7.54836761 11.03325226 -7.55577087 9.94282532 C-7.55269424 8.96518723 -7.54961761 7.98754913 -7.54644775 6.98028564 C-7.54787277 6.11726334 -7.54929779 5.25424103 -7.55076599 4.36506653 C-7.00263803 -0.27736043 -3.95695427 0.03315917 0 0 Z " fill="#F9FAFC" transform="translate(576.3035278320313,217.72894287109375)"/>
<path d="M0 0 C12.99699806 11.17576267 21.46057042 26.22126808 24.453125 43.109375 C25.96888383 64.79831581 23.08265497 85.11418278 8.47387695 102.01806641 C-4.65422359 116.39766508 -21.06318113 126.45911202 -40.87890625 127.421875 C-62.46108358 128.06585211 -81.38171623 122.86752272 -97.5703125 108.05859375 C-110.83119029 95.27707591 -118.74016285 77.76981687 -119.75 59.41796875 C-120.01737243 37.33746199 -113.04395557 19.09086922 -97.859375 2.921875 C-70.28771756 -23.5974291 -29.23834799 -22.58531072 0 0 Z M-71.546875 0.109375 C-72.31128906 0.46 -73.07570313 0.810625 -73.86328125 1.171875 C-89.71362421 9.11082938 -99.8837026 22.54965213 -105.546875 39.109375 C-109.45439587 52.48580202 -107.65367357 69.76269993 -101.546875 82.109375 C-92.42344884 98.50819857 -79.42145525 108.52502901 -61.546875 114.109375 C-58.84292109 114.7742817 -56.32593159 115.02763804 -53.546875 115.109375 C-52.1546875 115.2021875 -52.1546875 115.2021875 -50.734375 115.296875 C-34.06497352 115.95057702 -18.86101969 110.51456332 -6.21875 99.67578125 C5.93899056 87.9979515 12.32949066 73.57680988 12.74560547 56.75415039 C12.89492556 39.82452993 7.53908282 25.77647682 -4.1953125 13.39453125 C-10.55578395 7.21367444 -17.33746649 2.51441376 -25.546875 -0.890625 C-26.16844482 -1.15174072 -26.79001465 -1.41285645 -27.43041992 -1.68188477 C-33.9030931 -4.14581813 -39.98218381 -4.39289662 -46.859375 -4.328125 C-47.96861328 -4.32127686 -49.07785156 -4.31442871 -50.22070312 -4.30737305 C-58.05623204 -4.15327123 -64.4750797 -3.46770615 -71.546875 0.109375 Z " fill="#036FB7" transform="translate(657.546875,194.890625)"/>
<path d="M0 0 C14.0089056 12.61135846 23.06396244 28.37940249 25.28442383 47.19384766 C26.45293242 69.68763797 20.68227649 88.33959802 6.19458008 105.69775391 C-7.61938891 120.4892477 -26.44700246 127.69478386 -46.46557617 128.50634766 C-68.67311072 127.89347738 -86.69258115 119.16065753 -102.13745117 103.25244141 C-116.23376356 87.28674435 -119.71591966 67.51141006 -118.90209961 46.95068359 C-117.69232848 29.07013958 -108.22198612 14.34239347 -95.71557617 2.19384766 C-95.08651367 1.57896484 -94.45745117 0.96408203 -93.80932617 0.33056641 C-68.27268576 -22.97764076 -25.90969383 -22.15731137 0 0 Z M-92.71557617 16.19384766 C-104.16455389 30.89850159 -108.58110906 46.73764866 -106.71557617 65.19384766 C-103.77919657 81.14561791 -95.07026798 95.80659745 -81.71557617 105.19384766 C-66.22912142 114.38018556 -50.05735243 118.29385901 -32.10620117 114.31884766 C-23.81205406 112.08677767 -16.59466794 108.33286562 -9.71557617 103.19384766 C-9.08522461 102.75685547 -8.45487305 102.31986328 -7.80541992 101.86962891 C4.3542793 92.64598462 10.98519157 76.81159433 13.28442383 62.19384766 C14.54813694 45.41562584 10.0144843 30.26197578 -0.71557617 17.19384766 C-11.02933254 5.49103319 -23.92454874 -2.90153898 -39.85571289 -3.9465332 C-60.60825082 -4.80604237 -78.33409603 0.25888521 -92.71557617 16.19384766 Z " fill="#026FB7" transform="translate(522.715576171875,66.80615234375)"/>
<path d="M0 0 C7.55493368 6.58262712 12.85528609 13.74077784 17.375 22.625 C17.70072998 23.2651001 18.02645996 23.9052002 18.36206055 24.56469727 C23.34741608 34.84269813 24.56277127 44.03024852 24.5 55.4375 C24.51998047 56.71431641 24.53996094 57.99113281 24.56054688 59.30664062 C24.55072339 78.6097952 16.45005975 94.91044525 3.0625 108.625 C-12.5181555 122.65196654 -31.1756857 128.58048773 -51.93359375 127.96875 C-71.40528606 126.92648775 -88.16533625 117.94491832 -101.5625 104 C-116.405918 86.84468681 -120.35710485 66.77559407 -118.9375 44.625 C-116.51685322 25.31805437 -105.00316781 8.40122069 -89.9375 -3.375 C-62.16877354 -22.78576941 -26.27481499 -20.41990436 0 0 Z M-90.9375 14.625 C-91.49050781 15.14320313 -92.04351563 15.66140625 -92.61328125 16.1953125 C-100.95245775 24.78174221 -106.24283124 37.84519147 -106.9375 49.625 C-107.02902344 50.86894531 -107.12054687 52.11289062 -107.21484375 53.39453125 C-108.00876188 69.07393615 -102.54756781 83.41867406 -92.53515625 95.53125 C-81.27899303 107.5642703 -66.55795388 115.41477228 -49.86914062 116.04199219 C-42.2382749 116.11808344 -35.18926778 115.02150695 -27.9375 112.625 C-27.08800781 112.35816406 -26.23851562 112.09132813 -25.36328125 111.81640625 C-11.13775318 106.79169068 0.11309786 95.79577168 7.0625 82.625 C13.47807746 67.34666606 15.74803658 51.56595728 10.0625 35.625 C3.75549296 20.24061833 -7.0007337 8.05046141 -21.9375 0.625 C-47.16413343 -9.3764683 -71.67914853 -4.53109473 -90.9375 14.625 Z " fill="#026FB7" transform="translate(664.9375,366.375)"/>
<path d="M0 0 C3.5 0.4375 3.5 0.4375 5.14599609 1.59350586 C11.19944065 9.83758569 8.8993432 27.50169065 8.875 37.375 C8.8737915 38.28168427 8.87258301 39.18836853 8.87133789 40.12252808 C8.70317154 86.65590164 -8.75178554 128.46820249 -41.3125 161.6875 C-60.12481495 180.30817401 -83.96119927 193.46764512 -109.3125 200.8125 C-110.13516357 201.05121826 -110.95782715 201.28993652 -111.80541992 201.53588867 C-124.73987528 205.07931174 -137.32577815 205.75939542 -150.65600586 205.69824219 C-153.42909678 205.68753245 -156.20153817 205.69818662 -158.97460938 205.7109375 C-169.00920632 205.71923222 -178.61206683 205.29268443 -188.5 203.4375 C-189.29494873 203.29151367 -190.08989746 203.14552734 -190.90893555 202.99511719 C-205.61368007 200.09525532 -220.5988425 195.18286038 -233.5 187.4375 C-234.89935013 184.63879973 -234.75265405 182.53251208 -234.5 179.4375 C-233.375 177.5 -233.375 177.5 -231.5 176.4375 C-226.76787928 176.89277692 -222.85328518 178.39703918 -218.5 180.25 C-211.30485611 183.22585736 -204.0481371 185.50274762 -196.5 187.4375 C-195.41976562 187.71464844 -194.33953125 187.99179687 -193.2265625 188.27734375 C-189.99470955 189.06378739 -186.75906024 189.77310774 -183.5 190.4375 C-182.48292969 190.64503906 -181.46585937 190.85257813 -180.41796875 191.06640625 C-157.27305174 195.06848984 -131.70085381 193.08849518 -109.5 185.4375 C-108.56994141 185.12256592 -108.56994141 185.12256592 -107.62109375 184.80126953 C-68.71200763 171.48670403 -37.86167246 145.41946002 -19.5 108.4375 C-11.86779747 92.81462852 -8.5052095 76.46654597 -5.5 59.4375 C-5.28601563 58.28378906 -5.07203125 57.13007813 -4.8515625 55.94140625 C-4.27520731 50.19706622 -4.31063926 44.45690575 -4.3125 38.6875 C-4.30968018 37.40302979 -4.30686035 36.11855957 -4.30395508 34.79516602 C-4.33889671 26.46289136 -4.74796714 18.30796435 -6.05200195 10.07324219 C-6.51199434 6.87734976 -6.73245033 4.90387654 -5.26953125 1.96875 C-3.5 0.4375 -3.5 0.4375 0 0 Z " fill="#EB7E20" transform="translate(523.5,312.5625)"/>
<path d="M0 0 C1.74009671 -0.08155818 3.48131228 -0.1394432 5.22265625 -0.1875 C6.6768396 -0.23970703 6.6768396 -0.23970703 8.16040039 -0.29296875 C12.32134433 0.13632647 14.46593695 2.02047332 17.34375 4.921875 C21.68998373 10.37516827 24.40299099 16.5772903 24.2734375 23.625 C23.49262659 30.40690044 21.29466647 36.06940751 16.1875 40.625 C13.48340634 43.44991487 13.01874516 44.69587599 12.7734375 48.67578125 C12.95174978 52.35185692 13.37711921 55.9992767 13.7890625 59.65527344 C14.14600556 63.62295993 14.10256106 67.58211726 14.0625 71.5625 C14.05806885 72.30685303 14.0536377 73.05120605 14.04907227 73.81811523 C14.03740801 75.54544822 14.01945603 77.2727372 14 79 C12.22868439 78.69024532 10.45796222 78.37709575 8.6875 78.0625 C7.70136719 77.88847656 6.71523438 77.71445312 5.69921875 77.53515625 C3 77 3 77 0 76 C-5.59414356 75.50758621 -10.42891058 75.25579975 -15.5625 77.6875 C-18.11060061 79.86771845 -18.11060061 79.86771845 -19.5 82.75 C-19.995 83.4925 -20.49 84.235 -21 85 C-24.1875 85.3125 -24.1875 85.3125 -27 85 C-27.82508158 82.01096821 -28.25201055 79.12911167 -28.53515625 76.04296875 C-28.62216797 75.09486328 -28.70917969 74.14675781 -28.79882812 73.16992188 C-28.88583984 72.18572266 -28.97285156 71.20152344 -29.0625 70.1875 C-29.15337891 69.21490234 -29.24425781 68.24230469 -29.33789062 67.24023438 C-29.797425 62.13698416 -30.10718694 57.12353583 -30 52 C-30.680625 51.814375 -31.36125 51.62875 -32.0625 51.4375 C-39.04576293 48.02015857 -43.18675184 42.17186764 -46.11328125 35.09375 C-48.34521553 27.30656079 -48.20836089 19.65386952 -44.6875 12.3125 C-43.09572937 9.46834527 -41.57424696 7.01924713 -39 5 C-36.30078125 4.70703125 -36.30078125 4.70703125 -33.3125 4.8125 C-32.31863281 4.83957031 -31.32476562 4.86664063 -30.30078125 4.89453125 C-29.16189453 4.94673828 -29.16189453 4.94673828 -28 5 C-28.01123901 5.9446814 -28.01123901 5.9446814 -28.02270508 6.90844727 C-28.47163397 18.37949363 -28.47163397 18.37949363 -24.69384766 28.76123047 C-21.25417517 31.65259557 -17.3814035 33.22108382 -13 34 C-8.22716865 32.05535711 -4.07664722 29.14590533 -1 25 C0.09658603 20.67240157 0.07582428 16.50833014 0 12.0625 C0.01160156 10.90169922 0.02320313 9.74089844 0.03515625 8.54492188 C0.05861397 5.69480898 0.04587555 2.8496998 0 0 Z " fill="#203F72" transform="translate(272,216)"/>
<path d="M0 0 C1.38949558 8.99799566 2.4262611 17.91076799 3 27 C3.75410156 27.2784375 4.50820313 27.556875 5.28515625 27.84375 C11.8751623 30.65042883 16.45160591 35.91465607 19.8828125 42.109375 C22.56427288 49.04741935 22.35974205 56.14544713 19.453125 62.97265625 C15.35078905 71.64921095 15.35078905 71.64921095 13 74 C11.31391034 74.07205511 9.62499341 74.08386068 7.9375 74.0625 C6.55884766 74.04896484 6.55884766 74.04896484 5.15234375 74.03515625 C4.08693359 74.01775391 4.08693359 74.01775391 3 74 C2.32861379 70.73011701 1.66370737 67.45894951 1 64.1875 C0.80921875 63.25873047 0.6184375 62.32996094 0.421875 61.37304688 C0.24140625 60.48037109 0.0609375 59.58769531 -0.125 58.66796875 C-0.37636719 57.43469849 -0.37636719 57.43469849 -0.6328125 56.17651367 C-1 54 -1 54 -1 51 C-1.66 50.7525 -2.32 50.505 -3 50.25 C-6.14754464 48.93852307 -9.06321879 47.37249323 -12.03515625 45.70703125 C-15.31212912 44.52784221 -17.42457347 45.78377912 -20.578125 46.96875 C-24.16459114 49.02415165 -25.81125558 50.42587053 -28 54 C-29.32575014 62.22135416 -28.60523554 70.73155138 -28 79 C-37.01758164 79.44817273 -37.01758164 79.44817273 -40.5859375 77.8203125 C-47.86717338 70.9206261 -50.18196981 64.37307397 -50.5 54.375 C-50.32877071 48.30859096 -49.5676048 43.92669235 -46 39 C-45.29875 38.01 -44.5975 37.02 -43.875 36 C-43.25625 35.34 -42.6375 34.68 -42 34 C-41.34 34 -40.68 34 -40 34 C-40.144375 32.76765625 -40.28875 31.5353125 -40.4375 30.265625 C-40.62534675 28.59378892 -40.81282684 26.92191162 -41 25.25 C-41.09539062 24.44433594 -41.19078125 23.63867188 -41.2890625 22.80859375 C-42.01858262 16.19080407 -42.10329443 9.65388299 -42 3 C-36.50084543 2.57128714 -31.00157703 2.14407622 -25.50219727 1.71826172 C-23.63107137 1.57316791 -21.75997734 1.42766246 -19.88891602 1.28173828 C-17.20076624 1.07216097 -14.51250563 0.86406033 -11.82421875 0.65625 C-10.98662521 0.59062866 -10.14903168 0.52500732 -9.28605652 0.45739746 C-6.18283375 0.21861872 -3.1137105 0 0 0 Z " fill="#203F71" transform="translate(306,406)"/>
<path d="M0 0 C0.886875 0.495 1.77375 0.99 2.6875 1.5 C0.74484259 5.87097918 -2.03020473 9.29097874 -5.5 12.5625 C-7.40374975 14.59754283 -7.92414058 15.78148409 -8.3125 18.5 C-2.43295167 16.49845163 1.22530738 13.45894563 5.671875 9.14453125 C7.6875 7.5 7.6875 7.5 10.6875 7.5 C13.93955453 13.8686068 14.84237183 19.12192658 12.99609375 26.12109375 C10.67843091 32.64739958 8.13585537 36.18294456 1.91015625 39.42578125 C-1.9990692 41.11258405 -5.29583043 41.55758971 -9.5390625 41.60546875 C-16.28492991 42.17291491 -19.4762953 45.29958146 -24 50.0625 C-24.69416016 50.75408203 -25.38832031 51.44566406 -26.10351562 52.15820312 C-28.19612726 54.25081476 -30.25470391 56.37320435 -32.3125 58.5 C-33.72967964 59.93564923 -35.15016854 61.36804057 -36.57421875 62.796875 C-37.19385498 63.42045898 -37.81349121 64.04404297 -38.4519043 64.68652344 C-41.61394959 67.76849069 -44.94787746 70.64285152 -48.3125 73.5 C-49.18648438 74.24830078 -49.18648438 74.24830078 -50.078125 75.01171875 C-54.91245242 79.10681649 -57.51709043 79.85847793 -63.7734375 79.77734375 C-68.89259175 79.21817459 -71.49044594 76.47348508 -74.6875 72.6875 C-76.74100877 68.65946357 -77.29495304 66.95882534 -76.3125 62.5 C-71.60888534 56.36729667 -65.20001345 51.68590462 -59.203125 46.88671875 C-55.58497775 43.89930257 -52.15515871 40.73987796 -48.74755859 37.51611328 C-45.54778776 34.51980214 -42.21658234 32.00182873 -38.625 29.5 C-35.83439491 27.33495185 -34.5185355 26.28270471 -33.61328125 22.84375 C-33.49665221 20.95695127 -33.43233348 19.06615222 -33.421875 17.17578125 C-33.21592456 12.1373508 -31.0722443 8.37678192 -27.66796875 4.74609375 C-20.09562769 -2.10035841 -9.62971019 -4.15515102 0 0 Z " fill="#0972B9" transform="translate(507.3125,83.5)"/>
<path d="M0 0 C0.85311768 0.00370605 1.70623535 0.00741211 2.58520508 0.01123047 C30.73408921 0.18487533 56.07362718 6.83803025 80.8125 20.4375 C81.85277344 20.98921875 82.89304687 21.5409375 83.96484375 22.109375 C95.5621704 28.51000206 105.44307479 36.82640574 114.8125 46.125 C115.72866089 47.03282227 115.72866089 47.03282227 116.66333008 47.95898438 C127.72976253 59.20358837 127.72976253 59.20358837 127.9375 64.8125 C126.8125 67.4375 126.8125 67.4375 125.0625 68.8125 C122.23799887 69.59708365 120.75231459 69.92678383 117.8125 69.4375 C115.22856296 67.42927528 113.08787601 65.02755932 110.875 62.625 C103.99812035 55.46889474 96.86112064 49.23339376 88.8125 43.4375 C88.21469727 43.00598633 87.61689453 42.57447266 87.00097656 42.12988281 C70.14985889 30.11640657 51.8254754 21.97966459 31.875 16.625 C31.10631592 16.41786377 30.33763184 16.21072754 29.5456543 15.99731445 C1.32153524 8.76372178 -30.76983786 13.54904656 -57.55859375 24.13671875 C-61.66764222 25.60960695 -63.99593857 25.52730597 -68.1875 24.4375 C-68.8475 23.7775 -69.5075 23.1175 -70.1875 22.4375 C-70.14453125 19.00390625 -70.14453125 19.00390625 -69.1875 15.4375 C-63.07596453 10.56320382 -53.85830478 8.55598933 -46.4375 6.25 C-45.29800903 5.8931311 -45.29800903 5.8931311 -44.13549805 5.52905273 C-29.51174564 1.22794908 -15.16958516 -0.11875593 0 0 Z " fill="#EB7E20" transform="translate(369.1875,189.5625)"/>
<path d="M0 0 C1.10658966 0.00607269 1.10658966 0.00607269 2.23553467 0.01226807 C3.01289978 0.00876343 3.79026489 0.00525879 4.59118652 0.00164795 C7.16803849 -0.00717493 9.74461727 -0.00131833 12.32147217 0.00543213 C14.10744276 0.00408564 15.89341299 0.00214524 17.67938232 -0.00036621 C21.42534876 -0.00331823 25.17121992 0.00098264 28.91717529 0.01031494 C33.7261005 0.02170953 38.53480248 0.01515047 43.34371948 0.00317001 C47.03250825 -0.00404651 50.72124383 -0.00176162 54.41003418 0.0034256 C56.18351264 0.00476267 57.95699587 0.00311237 59.73046875 -0.00153351 C62.20624642 -0.00659536 64.68165927 0.0011065 67.15740967 0.01226807 C67.89513611 0.0082196 68.63286255 0.00417114 69.39294434 0 C74.46794339 0.04252835 74.46794339 0.04252835 76.69647217 2.27105713 C76.9369812 4.3583374 76.9369812 4.3583374 76.92352295 6.9644165 C76.92337189 7.9388269 76.92322083 8.9132373 76.92306519 9.91717529 C76.91274261 10.9723938 76.90242004 12.0276123 76.89178467 13.11480713 C76.88895477 14.19484009 76.88612488 15.27487305 76.88320923 16.38763428 C76.87198845 19.84888653 76.84689024 23.30988278 76.82147217 26.77105713 C76.81144396 29.1056888 76.80231783 31.44032453 76.79412842 33.77496338 C76.77441606 38.91130857 76.74595807 44.04752131 76.70993042 49.18377686 C76.70114597 50.54618268 76.69647217 51.90862299 76.69647217 53.27105713 C76.69647217 56.57105713 76.69647217 59.87105713 76.69647217 63.27105713 C49.30647217 63.27105713 21.91647217 63.27105713 -6.30352783 63.27105713 C-6.30352783 59.64105713 -6.30352783 56.01105713 -6.30352783 52.27105713 C-6.63352783 51.94105713 -6.96352783 51.61105713 -7.30352783 51.27105713 C-7.40711562 49.74719482 -7.44203922 48.21858727 -7.4487915 46.69122314 C-7.45517136 45.71673721 -7.46155121 44.74225128 -7.46812439 43.73823547 C-7.46923721 42.67785568 -7.47035004 41.61747589 -7.47149658 40.52496338 C-7.47482498 39.44351547 -7.47815338 38.36206757 -7.48158264 37.24784851 C-7.48665661 34.95537747 -7.48899082 32.66289901 -7.48883057 30.37042236 C-7.49101628 26.85215146 -7.50916511 23.33419432 -7.52813721 19.815979 C-7.53107111 17.59397487 -7.53305593 15.37196925 -7.53399658 13.14996338 C-7.5411821 12.09160782 -7.54836761 11.03325226 -7.55577087 9.94282532 C-7.55269424 8.96518723 -7.54961761 7.98754913 -7.54644775 6.98028564 C-7.54787277 6.11726334 -7.54929779 5.25424103 -7.55076599 4.36506653 C-7.00263803 -0.27736043 -3.95695427 0.03315917 0 0 Z M-1.30352783 6.27105713 C-1.30352783 19.80105713 -1.30352783 33.33105713 -1.30352783 47.27105713 C22.78647217 47.27105713 46.87647217 47.27105713 71.69647217 47.27105713 C71.69647217 33.74105713 71.69647217 20.21105713 71.69647217 6.27105713 C47.60647217 6.27105713 23.51647217 6.27105713 -1.30352783 6.27105713 Z " fill="#0972B9" transform="translate(576.3035278320313,217.72894287109375)"/>
<path d="M0 0 C-0.433125 0.49628906 -0.86625 0.99257812 -1.3125 1.50390625 C-4.16668621 4.98574915 -5.87209914 7.23259483 -6.625 11.75 C-6.21376299 15.02051426 -6.21376299 15.02051426 -4.375 17.4375 C-1.24562501 19.49629933 0.30849963 19.59064006 4 19 C7.11211359 17.23084477 7.11211359 17.23084477 10 15 C11.66026356 13.98940479 13.32470102 12.98546999 15 12 C15.45152731 18.43426415 14.81636142 21.73960993 11 27 C6.86487115 30.17571946 3.56105247 30.29966559 -1.5625 30.5 C-11.20200618 31.30136318 -15.73256201 36.09209389 -22 43 C-23.57579976 44.59083123 -25.1585541 46.17482101 -26.75 47.75 C-27.46671875 48.47703125 -28.1834375 49.2040625 -28.921875 49.953125 C-31.49314834 52.48573258 -34.20394498 54.81903728 -36.9453125 57.1640625 C-40.14741818 60.02525959 -43.12375777 63.10281722 -46.1171875 66.1796875 C-49.19212881 69.15255607 -51.6841973 69.40218635 -55.953125 69.34765625 C-58 69 -58 69 -61.0625 66.8125 C-63 64 -63 64 -62.92578125 61.62109375 C-61.69735086 58.14313259 -59.9046088 56.65951924 -57.125 54.25 C-56.63249756 53.8180835 -56.13999512 53.38616699 -55.63256836 52.94116211 C-51.45512399 49.30591507 -47.1412643 45.83635274 -42.83203125 42.359375 C-39.17969736 39.31660304 -35.67442815 36.13303792 -32.22143555 32.86645508 C-29.566939 30.36529634 -26.90862447 28.25773072 -23.875 26.25 C-20.85852615 23.78594064 -20.51219245 21.26427313 -20.01416016 17.48144531 C-19.81979889 15.51147861 -19.69943986 13.53464039 -19.58203125 11.55859375 C-18.77913591 6.64961619 -16.5700434 4.33915466 -12.875 1.1875 C-8.62085033 -0.56964877 -4.54231134 -0.23814059 0 0 Z " fill="#F9FAFC" transform="translate(500,88)"/>
<path d="M0 0 C2.70311603 4.05467405 2.63531452 7.24350052 2 12 C0.625 14.9375 0.625 14.9375 -2 17 C-9.69502632 19.29129673 -17.98870075 19.78963021 -25.9375 20.625 C-27.13568359 20.7590625 -28.33386719 20.893125 -29.56835938 21.03125 C-49.47670985 23.15770051 -49.47670985 23.15770051 -54.125 19.625 C-57.08552233 15.48026873 -57.42835187 13.1402224 -57 8 C-55.5 4.6875 -55.5 4.6875 -53 2 C-46.09143898 -0.30849101 -38.86386917 -0.76880979 -31.64624023 -1.43261719 C-29.56997001 -1.62431033 -27.49499593 -1.82705584 -25.41992188 -2.03125 C-4.89637517 -4.00612514 -4.89637517 -4.00612514 0 0 Z " fill="#FDFBF8" transform="translate(304,357)"/>
<path d="M0 0 C1.71533936 -0.04181396 1.71533936 -0.04181396 3.46533203 -0.08447266 C4.96567993 -0.12737427 4.96567993 -0.12737427 6.49633789 -0.17114258 C10.56474341 0.29733174 13.15845107 2.09161533 16.06298828 4.89599609 C17.82147558 8.22786676 17.76311315 10.42946582 17.25048828 14.14599609 C15.46025043 17.11646482 13.40044 19.57102023 10.25048828 21.14599609 C8.37121735 21.36971445 6.48532637 21.53883644 4.59814453 21.68115234 C3.43742432 21.76872803 2.2767041 21.85630371 1.08081055 21.9465332 C-19.45001765 23.37396654 -19.45001765 23.37396654 -28.68701172 23.58349609 C-29.44167725 23.61773682 -30.19634277 23.65197754 -30.97387695 23.68725586 C-34.8054532 23.71865135 -36.59620895 23.25905183 -39.71044922 20.96240234 C-41.94857057 17.87105082 -42.45290097 16.41704515 -42.43701172 12.64599609 C-42.46150391 11.72818359 -42.48599609 10.81037109 -42.51123047 9.86474609 C-41.65893609 6.82271078 -40.5780726 5.05700148 -38.03051758 3.15039062 C-32.53614449 0.7310552 -26.11381943 1.05604554 -20.18701172 0.83349609 C-18.78260852 0.76198682 -17.37830779 0.68843444 -15.97412109 0.61279297 C-10.65147453 0.33928869 -5.32541543 0.20735763 0 0 Z " fill="#FDFBF9" transform="translate(286.74951171875,329.85400390625)"/>
<path d="M0 0 C4.61166209 -0.17388234 7.57544871 0.19844951 11.1953125 3.16015625 C13.29231674 6.30566261 13.52455718 8.2231106 13.75390625 11.9296875 C12.87577652 15.43606564 10.93325502 17.89905864 8.1953125 20.16015625 C4.875 21.11328125 4.875 21.11328125 1.0703125 21.41015625 C0.38018066 21.47187012 -0.30995117 21.53358398 -1.02099609 21.59716797 C-2.50533882 21.72988178 -3.99061697 21.85245292 -5.4765625 21.96582031 C-7.85469331 22.16433039 -10.21676692 22.42927408 -12.5859375 22.71484375 C-34.03686602 25.28021647 -34.03686602 25.28021647 -40.8046875 24.16015625 C-43.64566665 21.83179897 -45.56730783 19.88624553 -46.078125 16.171875 C-46.11164063 15.40488281 -46.14515625 14.63789063 -46.1796875 13.84765625 C-46.22867188 13.08839844 -46.27765625 12.32914062 -46.328125 11.546875 C-45.49554068 7.75053904 -43.90928781 6.46432144 -40.8046875 4.16015625 C-37.40830188 3.14939847 -34.01021296 2.77177194 -30.4921875 2.41015625 C-29.51612549 2.29438232 -28.54006348 2.1786084 -27.53442383 2.05932617 C-18.35945946 1.01065142 -9.21329719 0.5261075 0 0 Z " fill="#FDFCFA" transform="translate(296.8046875,378.83984375)"/>
<path d="M0 0 C2.47510412 0.61261098 4.95036369 1.22459427 7.42578125 1.8359375 C8.63057129 2.13725586 9.83536133 2.43857422 11.07666016 2.74902344 C15.65553715 3.85984228 20.25863635 4.8455404 24.87182617 5.80322266 C27.88109219 6.68150146 30.12289235 7.83231443 32.6875 9.625 C34.28495879 12.81991759 34.19566842 16.15709389 33.6875 19.625 C31.48009319 22.59358157 30.20152627 23.45365791 26.6875 24.625 C21.76627542 24.85460785 17.46766741 24.3123145 12.6796875 23.19921875 C12.0323465 23.05096146 11.38500549 22.90270416 10.7180481 22.74995422 C8.66447845 22.27791129 6.61352842 21.79545128 4.5625 21.3125 C3.21109898 20.99995202 1.85953724 20.68809808 0.5078125 20.37695312 C-2.15216765 19.76429911 -4.80948237 19.14141892 -7.46582031 18.51318359 C-9.9790165 17.93289623 -12.49931907 17.38236213 -15.02636719 16.86572266 C-16.17008789 16.62772949 -17.31380859 16.38973633 -18.4921875 16.14453125 C-20.00014893 15.84639526 -20.00014893 15.84639526 -21.53857422 15.54223633 C-24.80442827 14.46233722 -26.79700498 12.94748957 -29.3125 10.625 C-30.93964693 7.37070614 -30.98813245 4.13026141 -30.3125 0.625 C-23.067042 -8.71782742 -9.75396709 -2.45242601 0 0 Z " fill="#FDFBFA" transform="translate(287.3125,302.375)"/>
<path d="M0 0 C4.4350403 3.4914147 6.94762278 5.95594076 7.6875 11.625 C7.77 12.841875 7.8525 14.05875 7.9375 15.3125 C4.6375 15.3125 1.3375 15.3125 -2.0625 15.3125 C-2.7225 13.3325 -3.3825 11.3525 -4.0625 9.3125 C-10.16638818 8.16369565 -14.61238174 7.78595289 -20.0625 11.3125 C-24.93387069 18.43447356 -25.83818027 25.84845943 -25.0625 34.3125 C-23.90491028 37.70144779 -23.90491028 37.70144779 -21.0625 39.3125 C-17.90852772 40.00684464 -15.21517255 40.02185132 -12.0625 39.3125 C-8.45402041 36.54855818 -7.10683273 34.40116546 -5.0625 30.3125 C-1.4325 30.9725 2.1975 31.6325 5.9375 32.3125 C3.4625 37.2625 3.4625 37.2625 0.9375 42.3125 C0.2775 42.3125 -0.3825 42.3125 -1.0625 42.3125 C-1.0625 42.9725 -1.0625 43.6325 -1.0625 44.3125 C-2.49820266 45.12817174 -3.93613434 45.93992093 -5.375 46.75 C-6.17550781 47.20246094 -6.97601563 47.65492188 -7.80078125 48.12109375 C-12.55513926 50.62554832 -16.80330898 50.79459251 -22.0625 50.3125 C-28.78817461 48.18270304 -32.58571897 45.11329161 -35.875 38.875 C-38.68599852 30.3289183 -38.13781065 20.59440797 -34.3125 12.4921875 C-27.58387302 0.75914421 -13.17165318 -6.89674544 0 0 Z " fill="#E97D24" transform="translate(388.0625,258.6875)"/>
<path d="M0 0 C3 1 3 1 4.53393555 3.43334961 C7.41724164 9.22411744 7.41724164 9.22411744 8.78051758 12.06176758 C9.67420353 13.91000155 10.59830461 15.7406089 11.52539062 17.57226562 C17.89509853 30.70575785 17.89509853 30.70575785 16 38 C13.97130275 40.61364053 11.808079 42.27414212 9 44 C7.5459375 44.928125 7.5459375 44.928125 6.0625 45.875 C1.9582465 47.38268496 -0.63105473 47.49326801 -5 47 C-7.5 45 -7.5 45 -9 43 C-8.67 42.01 -8.34 41.02 -8 40 C-6.783125 39.855625 -5.56625 39.71125 -4.3125 39.5625 C2.18415544 38.81167442 2.18415544 38.81167442 8 36 C7.43260132 31.87026372 7.43260132 31.87026372 6 28 C5.62875 28.763125 5.2575 29.52625 4.875 30.3125 C2.52771052 33.67694825 0.87958723 34.68240434 -3 36 C-7.57057341 36.30470489 -10.24741808 35.61878958 -13.8125 32.6875 C-14.534375 31.800625 -15.25625 30.91375 -16 30 C-16.5775 29.29875 -17.155 28.5975 -17.75 27.875 C-20.7505371 23.37419435 -20.79375328 18.20262051 -20 13 C-18.58308955 9.83015292 -16.98344364 7.80055486 -14 6 C-10.58210208 5.44560882 -7.42682819 5.57333957 -4 6 C-4.33 5.01 -4.66 4.02 -5 3 C-2.6875 1.4375 -2.6875 1.4375 0 0 Z " fill="#F5F7FB" transform="translate(264,138)"/>
<path d="M0 0 C1.98 0 3.96 0 6 0 C6 13.2 6 26.4 6 40 C-2.58 40 -11.16 40 -20 40 C-20 34.72 -20 29.44 -20 24 C-22.31 24 -24.62 24 -27 24 C-27 29.28 -27 34.56 -27 40 C-35.91 40 -44.82 40 -54 40 C-54 27.46 -54 14.92 -54 2 C-52.02 2 -50.04 2 -48 2 C-48 12.56 -48 23.12 -48 34 C-43.05 34 -38.1 34 -33 34 C-33 28.72 -33 23.44 -33 18 C-27.06 18 -21.12 18 -15 18 C-15 23.28 -15 28.56 -15 34 C-10.05 34 -5.1 34 0 34 C0 22.78 0 11.56 0 0 Z " fill="#0A73B9" transform="translate(647,421)"/>
<path d="M0 0 C4.65751627 2.14619774 7.95981535 4.85186614 10.60546875 9.31640625 C10.99495359 12.69531366 10.90633649 15.93331568 10.60546875 19.31640625 C7.96546875 18.98640625 5.32546875 18.65640625 2.60546875 18.31640625 C2.52296875 17.22328125 2.44046875 16.13015625 2.35546875 15.00390625 C1.92589514 11.39958642 1.92589514 11.39958642 0.04296875 9.44140625 C-3.51307879 7.80015354 -6.46937637 7.5063331 -10.39453125 7.31640625 C-11.05453125 7.97640625 -11.71453125 8.63640625 -12.39453125 9.31640625 C-12.47831988 11.78230242 -12.47831988 11.78230242 -11.39453125 14.31640625 C-9.02781855 16.5141372 -9.02781855 16.5141372 -6.08203125 18.37890625 C2.86502209 24.41129869 2.86502209 24.41129869 4.35546875 28.24609375 C4.87308986 32.27383298 4.79529536 33.95031208 2.85546875 37.69140625 C0.38153037 40.5776677 -1.21201061 42.14997742 -5.03125 42.6875 C-12.22163659 42.8440129 -16.86725985 42.04455407 -22.39453125 37.31640625 C-22.94625 36.86265625 -23.49796875 36.40890625 -24.06640625 35.94140625 C-25.7949522 33.82647944 -25.88636095 32.32915639 -26.08203125 29.62890625 C-26.14777344 28.82066406 -26.21351563 28.01242187 -26.28125 27.1796875 C-26.31863281 26.56480469 -26.35601562 25.94992187 -26.39453125 25.31640625 C-22.62828454 24.06099068 -21.02264191 24.94578667 -17.39453125 26.31640625 C-17.06453125 28.62640625 -16.73453125 30.93640625 -16.39453125 33.31640625 C-12.7204234 34.49212076 -9.22523942 34.39007371 -5.39453125 34.31640625 C-5.44650813 31.96934586 -5.44650813 31.96934586 -6.39453125 29.31640625 C-9.0260009 26.89354174 -9.0260009 26.89354174 -12.26953125 24.75390625 C-20.91369019 18.74465359 -20.91369019 18.74465359 -21.86328125 13.94921875 C-21.91882113 9.49214378 -21.92469821 6.30371085 -19.01953125 2.75390625 C-13.82615032 -2.0685189 -6.68509685 -1.90846974 0 0 Z " fill="#F6F8FB" transform="translate(302.39453125,550.68359375)"/>
<path d="M0 0 C4.85569795 1.73220344 8.15365496 4.73048243 11 9 C12.54033038 13.62099115 12.5385555 17.44769296 10.9375 22.0625 C8.0255194 26.47743833 4.92384536 30.02366294 -0.2109375 31.73828125 C-5.00915407 32.54890146 -8.3742825 32.02315331 -12.4296875 29.31640625 C-15.92092153 26.38967523 -19.66680023 22.73114564 -20.23828125 18.046875 C-20.47372963 10.76036733 -18.28377498 7.50127736 -13.375 2.125 C-8.80131205 -0.75472945 -5.27009033 -0.90201229 0 0 Z " fill="#F5F7FB" transform="translate(189,203)"/>
<path d="M0 0 C4.421436 1.7797477 7.88625223 4.29984498 10.5 8.3125 C12.70119585 13.72377313 12.86309228 17.55457186 10.875 23.1875 C8.05299253 27.42051121 4.92271008 30.35909664 0 32 C-4.13797756 32.71822885 -7.55886295 32.83879652 -11.26171875 30.68359375 C-16.71432991 26.17838637 -19.42719193 22.0096565 -20.4375 14.9375 C-19.46955721 8.43845558 -14.95387409 4.76925202 -10 1 C-6.74079323 -0.62960338 -3.52139434 -0.53747598 0 0 Z " fill="#F6F8FB" transform="translate(230,162)"/>
<path d="M0 0 C3.91209308 1.59415503 6.37218086 4.13893332 9.3125 7.125 C10.04424438 7.86641235 10.04424438 7.86641235 10.79077148 8.62280273 C14.06235782 11.96370922 17.15886562 15.41651149 20.19140625 18.97265625 C22.36958492 21.41428634 24.67248008 23.70048032 27 26 C38.37544274 37.27139906 38.37544274 37.27139906 41 43 C39.68 43.99 38.36 44.98 37 46 C23.03547557 32.20979002 23.03547557 32.20979002 17.78125 26.00390625 C13.74493855 21.46305587 9.32387196 17.26427801 5 13 C3.66598814 11.66734553 2.33253771 10.33412848 1 9 C-3.00517282 12.98025787 -7.00689955 16.96393867 -11.00561523 20.95068359 C-12.36342127 22.30349355 -13.72212751 23.65540066 -15.08178711 25.00634766 C-25.36213282 35.20206293 -25.36213282 35.20206293 -35 46 C-36.32 45.34 -37.64 44.68 -39 44 C-39 42.68 -39 41.36 -39 40 C-37.55396367 38.89283279 -36.06729097 37.83838714 -34.5625 36.8125 C-29.57816276 32.23440969 -29.33950425 28.06096715 -29.00952148 21.43432617 C-28.9034884 16.28615035 -28.87794358 11.14797778 -29 6 C-27.02 6 -25.04 6 -23 6 C-22.505 14.415 -22.505 14.415 -22 23 C-16.28355387 17.35412728 -10.65743157 11.7709896 -5.4375 5.66015625 C-3.71819357 3.6745442 -1.89435001 1.81857601 0 0 Z " fill="#0972B9" transform="translate(622,379)"/>
<path d="M0 0 C5.08039 0.44273551 9.29220187 2.34110807 13.9609375 4.3125 C14.88777344 4.6940625 15.81460938 5.075625 16.76953125 5.46875 C19.04571264 6.4073815 21.31744504 7.3554698 23.5859375 8.3125 C22.8359375 14.0625 22.8359375 14.0625 20.5859375 16.3125 C19.41675781 15.879375 18.24757812 15.44625 17.04296875 15 C15.49494368 14.43708179 13.94675807 13.87460493 12.3984375 13.3125 C11.62951172 13.02632813 10.86058594 12.74015625 10.06835938 12.4453125 C4.48371506 10.41407275 4.48371506 10.41407275 -1.4140625 10.3125 C-2.71327596 11.41504126 -2.71327596 11.41504126 -2.8515625 14.125 C-2.76072058 17.52013341 -2.76072058 17.52013341 0.15234375 19.33984375 C3.69502601 21.37517315 7.09598399 22.74987428 10.9609375 24.0625 C12.82878906 24.70445312 12.82878906 24.70445312 14.734375 25.359375 C15.67539063 25.67390625 16.61640625 25.9884375 17.5859375 26.3125 C16.9259375 28.9525 16.2659375 31.5925 15.5859375 34.3125 C10.56175271 33.67674474 6.24064645 32.20363714 1.5625 30.37109375 C0.81632416 30.08396011 0.07014832 29.79682648 -0.69863892 29.50099182 C-3.06420673 28.58930874 -5.426637 27.66979089 -7.7890625 26.75 C-9.39953826 26.12773393 -11.01021342 25.50598364 -12.62109375 24.88476562 C-16.55441592 23.36663629 -20.48494486 21.84147647 -24.4140625 20.3125 C-23.81544508 17.96078869 -23.14481898 15.6265622 -22.4140625 13.3125 C-20.4140625 12.3125 -20.4140625 12.3125 -17.59375 13.08984375 C-16.50320312 13.47269531 -15.41265625 13.85554688 -14.2890625 14.25 C-13.19335938 14.63027344 -12.09765625 15.01054687 -10.96875 15.40234375 C-10.12570313 15.70269531 -9.28265625 16.00304687 -8.4140625 16.3125 C-8.50107422 15.31669922 -8.50107422 15.31669922 -8.58984375 14.30078125 C-8.96277864 7.00191259 -8.96277864 7.00191259 -5.9765625 3.25 C-5.1309375 2.610625 -4.2853125 1.97125 -3.4140625 1.3125 C-2.4140625 0.3125 -2.4140625 0.3125 0 0 Z " fill="#F3F6FA" transform="translate(142.4140625,270.6875)"/>
<path d="M0 0 C0 6.6 0 13.2 0 20 C1.98 19.34 3.96 18.68 6 18 C6.33 15.69 6.66 13.38 7 11 C6.01 10.34 5.02 9.68 4 9 C3.59156077 6.28796348 3.86663133 3.7562858 4 1 C8.25491665 1.47276852 10.22542845 3.92547477 13 7 C14.85858852 10.71717704 14.43689228 14.94314308 14 19 C11.95207836 23.42351075 9.37207697 26.07333479 4.984375 28.3046875 C-0.27037487 30.14591876 -5.2498833 29.61122576 -10.3125 27.4375 C-14.57466947 25.0214199 -16.15996964 22.52340797 -18 18 C-18.85743959 11.99792289 -17.40324775 8.78294279 -14 4 C-9.28268301 0.46201226 -5.84133991 0 0 0 Z " fill="#F2F5FA" transform="translate(139,346)"/>
<path d="M0 0 C4.05202513 -0.48238394 5.70783598 -0.18904731 9.1875 2.0625 C12.72792318 5.37931751 14.81310643 9.07766417 15.12890625 14.015625 C14.85796633 18.31782259 13.6883974 21.46400738 10.6484375 24.6796875 C6.36069799 28.11394331 1.70886938 29.7682889 -3.6875 30.5 C-9.03125728 29.69339513 -11.85586656 27.29467731 -15.375 23.3125 C-17.4867863 19.00770485 -18.18770523 15.69539466 -17 11 C-13.91666494 5.96158935 -10.60120104 2.92511055 -5 1 C-3.66180502 3.6226232 -2.3292849 6.24786599 -1 8.875 C-0.6184375 9.62136719 -0.236875 10.36773437 0.15625 11.13671875 C0.5171875 11.85214844 0.878125 12.56757813 1.25 13.3046875 C1.58515625 13.96452637 1.9203125 14.62436523 2.265625 15.30419922 C3 17 3 17 3 19 C6.22401946 16.29775069 6.22401946 16.29775069 7.375 12.375 C7.20984251 9.81772804 7.20984251 9.81772804 5 8 C2.93125966 7.3574765 2.93125966 7.3574765 1 7 C0.67 4.69 0.34 2.38 0 0 Z " fill="#F3F6FB" transform="translate(158,430)"/>
<path d="M0 0 C4.67036597 0.71851784 8.00555852 2.69153138 11.203125 6.234375 C13.58275251 10.07517729 13.12859079 14.02811562 12.5390625 18.390625 C10.83701111 23.75300197 8.28839123 27.26606663 3.5390625 30.390625 C0.0649794 32.12766655 -3.66250419 31.85104116 -7.4609375 31.390625 C-11.84392833 29.19912958 -14.66168474 26.98871538 -16.4609375 22.390625 C-16.98927622 17.23303275 -17.10991596 12.96037669 -14.4609375 8.390625 C-10.14056795 9.03218364 -6.6390207 10.57351053 -2.7109375 12.453125 C0.75684509 14.40880476 0.75684509 14.40880476 4.5390625 15.390625 C4.2090625 13.080625 3.8790625 10.770625 3.5390625 8.390625 C-0.99234403 7.45681539 -0.99234403 7.45681539 -5.4609375 8.390625 C-8.6484375 6.453125 -8.6484375 6.453125 -11.4609375 4.390625 C-8.33544404 -0.1555473 -5.13683265 -0.21214058 0 0 Z " fill="#F6F8FB" transform="translate(262.4609375,535.609375)"/>
<path d="M0 0 C0.12280214 9.40118599 -0.00342268 18.79080463 -0.3125 28.1875 C-0.33497803 29.17886963 -0.35745605 30.17023926 -0.38061523 31.19165039 C-0.61304344 37.34704502 -1.25253068 41.25253068 -5.75 45.75 C-8.76613724 47.4256318 -11.59518967 47.67261439 -15 48 C-15.33 46.02 -15.66 44.04 -16 42 C-14.35 41.34 -12.7 40.68 -11 40 C-10.47810245 36.33705237 -10.32195859 34.13590505 -12.24804688 30.90917969 C-14.01150885 28.65906806 -15.84886187 26.5100083 -17.75 24.375 C-18.38421875 23.63765625 -19.0184375 22.9003125 -19.671875 22.140625 C-22.26365189 19.12768436 -24.87828091 16.13721749 -27.515625 13.1640625 C-28.00546875 12.44992188 -28.4953125 11.73578125 -29 11 C-28.67 10.01 -28.34 9.02 -28 8 C-24.535 7.505 -24.535 7.505 -21 7 C-17.04 12.28 -13.08 17.56 -9 23 C-8.67 16.07 -8.34 9.14 -8 2 C-3 0 -3 0 0 0 Z " fill="#F3F6FB" transform="translate(304,124)"/>
<path d="M0 0 C3.45129157 1.34385297 6.64013963 3.07950411 9.875 4.875 C10.74125 5.33519531 11.6075 5.79539063 12.5 6.26953125 C18.85226739 9.70453477 18.85226739 9.70453477 20 12 C19.06553465 14.03144641 18.06775224 16.03533587 17 18 C11.17295512 16.26858546 6.33721998 13.42906098 1.12109375 10.36328125 C-2.2469402 8.89213751 -3.57903131 8.84693607 -7 10 C-7.85650653 12.80045046 -7.85650653 12.80045046 -8 16 C-4.31655769 20.66630596 0.97500929 22.66185105 6.19921875 25.21875 C9 27 9 27 9.984375 29.078125 C10.00661875 31.81410581 8.77586929 33.01102639 7 35 C1.05384306 33.36036204 -4.03522078 30.37624538 -9.375 27.375 C-10.30183594 26.859375 -11.22867188 26.34375 -12.18359375 25.8125 C-14.45829425 24.54617189 -16.73028792 23.27524075 -19 22 C-18.125 17.25 -18.125 17.25 -17 15 C-16.01 15 -15.02 15 -14 15 C-13.97421875 14.40832031 -13.9484375 13.81664062 -13.921875 13.20703125 C-13.54454807 7.95018101 -12.94197007 4.82251643 -9 1 C-5.97995911 -0.51002045 -3.26600989 -0.52492146 0 0 Z " fill="#F5F7FB" transform="translate(163,235)"/>
<path d="M0 0 C1.134375 0.020625 2.26875 0.04125 3.4375 0.0625 C3.7675 3.6925 4.0975 7.3225 4.4375 11.0625 C5.21351562 10.91103516 5.98953125 10.75957031 6.7890625 10.60351562 C10.33710238 9.91550073 13.88723134 9.23891576 17.4375 8.5625 C18.65824219 8.32402344 19.87898438 8.08554687 21.13671875 7.83984375 C27.33878744 6.6664794 33.12364148 5.74680707 39.4375 6.0625 C39.9325 10.0225 39.9325 10.0225 40.4375 14.0625 C39.0445874 14.32728149 39.0445874 14.32728149 37.62353516 14.59741211 C34.18280772 15.2529222 30.74260854 15.91107789 27.30273438 16.57104492 C25.81302919 16.85629035 24.32312061 17.14047561 22.83300781 17.42358398 C20.69281694 17.83039124 18.55338337 18.2409891 16.4140625 18.65234375 C15.12580566 18.89847412 13.83754883 19.14460449 12.51025391 19.39819336 C9.541879 19.9069301 9.541879 19.9069301 7.4375 21.0625 C7.52128906 21.84496094 7.60507813 22.62742187 7.69140625 23.43359375 C7.79324219 24.44550781 7.89507812 25.45742188 8 26.5 C8.10441406 27.50933594 8.20882812 28.51867187 8.31640625 29.55859375 C8.35636719 30.38488281 8.39632812 31.21117187 8.4375 32.0625 C7.4375 33.0625 7.4375 33.0625 4.375 33.125 C3.405625 33.104375 2.43625 33.08375 1.4375 33.0625 C1.29127197 32.27077393 1.14504395 31.47904785 0.99438477 30.66333008 C0.32996778 27.06715011 -0.33501024 23.4710741 -1 19.875 C-1.23009766 18.62912109 -1.46019531 17.38324219 -1.69726562 16.09960938 C-2.03081055 14.2965332 -2.03081055 14.2965332 -2.37109375 12.45703125 C-2.57532959 11.35206299 -2.77956543 10.24709473 -2.98999023 9.10864258 C-3.35980382 7.140982 -3.76089106 5.17882714 -4.19946289 3.2253418 C-4.31926514 2.511604 -4.43906738 1.79786621 -4.5625 1.0625 C-3.5625 0.0625 -3.5625 0.0625 0 0 Z " fill="#F2F6FA" transform="translate(115.5625,380.9375)"/>
<path d="M0 0 C2.93814003 1.46907001 3.3286226 3.59447806 4.625 6.5625 C5.07101562 7.57441406 5.51703125 8.58632812 5.9765625 9.62890625 C6.31429687 10.41136719 6.65203125 11.19382813 7 12 C7.33 11.67 7.66 11.34 8 11 C11.15173563 10.62149092 14.33026242 10.53051382 17.5 10.375 C18.39332031 10.3234375 19.28664063 10.271875 20.20703125 10.21875 C21.05652344 10.17492187 21.90601563 10.13109375 22.78125 10.0859375 C23.56564453 10.0451709 24.35003906 10.0044043 25.15820312 9.96240234 C27 10 27 10 28 11 C28.125 14 28.125 14 28 17 C27.505 17.495 27.505 17.495 27 18 C25.27633865 17.90120478 23.55277287 17.79967821 21.83032227 17.68164062 C15.44109017 17.12345407 15.44109017 17.12345407 9.89453125 19.77734375 C8.66781741 21.82426509 7.73396663 23.73229622 7 26 C3.97873574 22.40325684 3.00097619 19.66894445 1 15 C-1.64 20.94 -4.28 26.88 -7 33 C-7.66 33 -8.32 33 -9 33 C-9.83698386 30.54285453 -10.66972424 28.08441143 -11.5 25.625 C-11.73847656 24.92632812 -11.97695313 24.22765625 -12.22265625 23.5078125 C-14 18.2265625 -14 18.2265625 -14 16 C-15.32 15.34 -16.64 14.68 -18 14 C-18 8.69520066 -16.4637943 7.81017373 -13 4 C-9.69586725 7.30413275 -8.66440826 11.67253853 -7 16 C-4.69 10.72 -2.38 5.44 0 0 Z " fill="#0972B8" transform="translate(608,229)"/>
<path d="M0 0 C0.5859375 1.953125 1.171875 3.90625 1.7578125 5.859375 C4.03785979 9.78851309 7.24962168 11.45346396 11.45361328 12.76611328 C14.29152603 13.47521132 17.13518887 14.0966802 20 14.6875 C20.97195313 14.89955078 21.94390625 15.11160156 22.9453125 15.33007812 C27.6132535 16.33807356 32.27849454 17.27422805 37 18 C34.00649563 19.69274776 31.59211403 20.33264229 28.17578125 20.6328125 C27.23718262 20.71708496 26.29858398 20.80135742 25.33154297 20.88818359 C24.33525879 20.96633301 23.33897461 21.04448242 22.3125 21.125 C21.29043457 21.2070166 20.26836914 21.2890332 19.21533203 21.37353516 C12.94049238 21.84701548 6.66713912 22.24959402 0.375 22.375 C-0.93726563 22.40335937 -2.24953125 22.43171875 -3.6015625 22.4609375 C-7.577426 21.92168245 -9.19250998 20.80749002 -12 18 C-13.85726616 14.28546768 -13.58501089 10.04420575 -13 6 C-8.97138142 0.80520235 -6.3760714 -0.13861025 0 0 Z " fill="#FDFAF6" transform="translate(254,307)"/>
<path d="M0 0 C0 2.64 0 5.28 0 8 C-1.32 8.33 -2.64 8.66 -4 9 C-4.23397834 11.85453575 -4.42468097 14.203724 -4 17 C-1.20897253 19.79102747 1.31923395 20.17908754 5.125 20.3125 C9.05987019 20.31110205 9.05987019 20.31110205 12 18 C12.5 14.5 12.5 14.5 12 11 C11.01 10.34 10.02 9.68 9 9 C9.33 6.36 9.66 3.72 10 1 C13.901043 2.11458371 16.54072516 3.8579616 19.046875 7.09375 C20.96603616 10.93207233 20.72222636 14.85563565 20 19 C17.67031069 23.83858548 14.83858548 26.67031069 10 29 C4.10907011 29.96864283 -1.10872436 29.3152779 -6.3046875 26.328125 C-10.27907361 23.21455063 -11.77377648 19.5552867 -12.5 14.5625 C-11.71205349 8.94838108 -9.96970441 4.53733027 -5.4375 1 C-3 0 -3 0 0 0 Z " fill="#F3F6FA" transform="translate(135,309)"/>
<path d="M0 0 C4.13333451 0.07848104 6.56443281 0.41838472 9.75 3.25 C12.77132865 6.96598316 14.57282228 10.10818802 15.3125 14.875 C14.19039887 21.60760675 10.01212591 25.38394831 4.75 29.25 C0.99553657 31.2210933 -2.02757013 31.76703223 -6.25 31.25 C-11.17286834 28.5916511 -14.73284609 25.28430782 -17.25 20.25 C-17.41796875 18.19140625 -17.41796875 18.19140625 -17.4375 15.8125 C-17.45167969 15.03003906 -17.46585938 14.24757813 -17.48046875 13.44140625 C-17.25 11.25 -17.25 11.25 -15.25 8.25 C-12.78199953 9.40173355 -11.20216435 10.29783565 -9.25 12.25 C-9.25 14.91666667 -9.25 17.58333333 -9.25 20.25 C-7.38999185 22.51339699 -7.38999185 22.51339699 -4.5 22.625 C-0.47211178 22.16024367 1.59776733 20.74246304 4.75 18.25 C6.13125018 15.48749964 5.94079306 13.30268901 5.75 10.25 C3.85244856 7.90026182 3.85244856 7.90026182 0.625 8.125 C-0.798125 8.186875 -0.798125 8.186875 -2.25 8.25 C-3.24 5.94 -4.23 3.63 -5.25 1.25 C-3.68966377 -0.31033623 -2.16052864 0.04292441 0 0 Z " fill="#F4F7FB" transform="translate(175.25,459.75)"/>
<path d="M0 0 C2.15702113 1.03300998 3.39017111 1.91025912 4.79394531 3.85913086 C4.79569856 10.58371018 1.09287002 17.76760294 -1.33105469 23.92163086 C-1.70359375 24.88262695 -2.07613281 25.84362305 -2.45996094 26.83374023 C-3.36960953 29.17783469 -4.28504423 31.51948267 -5.20605469 33.85913086 C-8.20605469 33.85913086 -8.20605469 33.85913086 -10.45605469 32.17163086 C-12.20605469 29.85913086 -12.20605469 29.85913086 -12.00683594 27.67163086 C-11.00769352 24.16244773 -9.62055501 20.87416522 -8.14355469 17.54663086 C-7.86189453 16.90145508 -7.58023438 16.2562793 -7.29003906 15.59155273 C-6.59978038 14.01214728 -5.90352271 12.43536593 -5.20605469 10.85913086 C-6.31464844 11.44823242 -7.42324219 12.03733398 -8.56542969 12.64428711 C-10.02864379 13.40403289 -11.49220371 14.16311292 -12.95605469 14.92163086 C-13.68566406 15.31157227 -14.41527344 15.70151367 -15.16699219 16.10327148 C-15.87597656 16.46743164 -16.58496094 16.8315918 -17.31542969 17.20678711 C-17.96479492 17.54718018 -18.61416016 17.88757324 -19.28320312 18.23828125 C-21.78810719 19.04706376 -22.80452928 18.95500943 -25.20605469 17.85913086 C-27.45605469 15.29663086 -27.45605469 15.29663086 -29.20605469 12.85913086 C-25.44145752 10.97416829 -21.66955719 9.10499242 -17.89013672 7.25 C-16.60579308 6.6169071 -15.32353543 5.97956383 -14.04345703 5.33789062 C-12.20195237 4.41570966 -10.35346116 3.50912695 -8.50292969 2.60522461 C-7.39272461 2.05535889 -6.28251953 1.50549316 -5.13867188 0.93896484 C-2.20605469 -0.14086914 -2.20605469 -0.14086914 0 0 Z " fill="#F5F7FB" transform="translate(217.2060546875,504.140869140625)"/>
<path d="M0 0 C0.66 0 1.32 0 2 0 C2 0.66 2 1.32 2 2 C2.54293701 2.22059082 3.08587402 2.44118164 3.64526367 2.66845703 C6.76660909 4.43349777 9.14624863 6.80188617 11.67578125 9.3046875 C12.20519821 9.82507599 12.73461517 10.34546448 13.28007507 10.88162231 C14.39295341 11.98003406 15.50307652 13.08124348 16.6105957 14.18505859 C18.31212681 15.87462943 20.03142393 17.54465115 21.75195312 19.21484375 C22.83187272 20.28530591 23.91068831 21.35688322 24.98828125 22.4296875 C25.50586502 22.92773895 26.02344879 23.42579041 26.55671692 23.93893433 C27.97387695 25.37451172 27.97387695 25.37451172 30 28 C29.88818609 30.80913311 29.30215368 31.66158788 27.4375 33.75 C26.963125 34.1625 26.48875 34.575 26 35 C21.80374091 33.36221955 19.01323215 30.26676818 15.921875 27.1171875 C15.35043762 26.54292023 14.77900024 25.96865295 14.19024658 25.37698364 C12.37207055 23.5476419 10.56098508 21.71145807 8.75 19.875 C7.51608671 18.63105226 6.28171678 17.3875573 5.046875 16.14453125 C2.02593257 13.10157633 -0.98867092 10.05246746 -4 7 C-2.79618552 4.50638429 -1.54571278 2.31856917 0 0 Z " fill="#EFF3F9" transform="translate(187,176)"/>
<path d="M0 0 C2.96175123 0.61277612 4.38058783 1.25372522 7 3 C5.56913168 7.000591 3.64191567 10.24556542 1.25 13.75 C0.19039062 15.31234375 0.19039062 15.31234375 -0.890625 16.90625 C-1.58671875 17.9271875 -2.2828125 18.948125 -3 20 C-4.16893253 21.74848731 -5.33589306 23.49829622 -6.5 25.25 C-7.33333333 26.5 -8.16666667 27.75 -9 29 C-11.03833424 27.7260411 -13.03852126 26.38938077 -15 25 C-15 24.34 -15 23.68 -15 23 C-18.02734375 22.31640625 -18.02734375 22.31640625 -21.0546875 21.6328125 C-23 21 -23 21 -25 19 C-25 18.01 -25 17.02 -25 16 C-23.02 15.01 -21.04 14.02 -19 13 C-18.608125 13.515625 -18.21625 14.03125 -17.8125 14.5625 C-16.08244612 16.24748491 -16.08244612 16.24748491 -13.6796875 15.95703125 C-9.88482498 14.60172321 -8.61495805 12.38518678 -6.3125 9.125 C-5.54550781 8.05507813 -4.77851563 6.98515625 -3.98828125 5.8828125 C-2.64320126 3.93257865 -1.31414228 1.97121341 0 0 Z " fill="#F5F7FB" transform="translate(241,524)"/>
<path d="M0 0 C1.134375 0.020625 2.26875 0.04125 3.4375 0.0625 C2.7775 3.6925 2.1175 7.3225 1.4375 11.0625 C5.0675 11.0625 8.6975 11.0625 12.4375 11.0625 C12.581875 9.61875 12.72625 8.175 12.875 6.6875 C13.3125 2.3125 13.3125 2.3125 14.4375 0.0625 C16.7475 0.0625 19.0575 0.0625 21.4375 0.0625 C21.12897815 2.021464 20.8155582 3.97965713 20.5 5.9375 C20.23896484 7.57332031 20.23896484 7.57332031 19.97265625 9.2421875 C19.4375 12.0625 19.4375 12.0625 18.4375 14.0625 C15.69921875 14.84375 15.69921875 14.84375 12.125 15.5625 C10.86816406 15.81644531 9.61132812 16.07039063 8.31640625 16.33203125 C3.03611987 17.32640542 -2.25343256 18.23599683 -7.5625 19.0625 C-5.75664226 0.10099372 -5.75664226 0.10099372 0 0 Z " fill="#EB8228" transform="translate(412.5625,266.9375)"/>
<path d="M0 0 C7.73773151 -0.10181226 15.29928525 0.24739961 23 1 C23 1.66 23 2.32 23 3 C17.72 3 12.44 3 7 3 C6.67 5.31 6.34 7.62 6 10 C11.61 10 17.22 10 23 10 C22.67 11.98 22.34 13.96 22 16 C13.75 16 5.5 16 -3 16 C-2.01 10.72 -1.02 5.44 0 0 Z " fill="#274476" transform="translate(474,282)"/>
<path d="M0 0 C1.65 1.32 3.3 2.64 5 4 C4.15166014 8.63825318 1.3404177 10.85375771 -2.0625 13.875 C-2.64797607 14.40512695 -3.23345215 14.93525391 -3.83666992 15.48144531 C-8.04608876 19.25432753 -12.37922807 22.73827864 -17 26 C-18.70884005 24.37660195 -20.37446717 22.70680947 -22 21 C-22 19 -22 19 -20.6015625 17.58984375 C-19.94929687 17.04457031 -19.29703125 16.49929688 -18.625 15.9375 C-14.43508769 12.38129329 -10.35965009 8.71611441 -6.296875 5.015625 C-4.26187041 3.22980465 -2.19099251 1.58796705 0 0 Z " fill="#F5F7FB" transform="translate(199,485)"/>
<path d="M0 0 C4.08003318 1.53001244 5.61619975 3.51524533 8 7.125 C9.125 10.1875 9.125 10.1875 9 13.125 C7 16.0625 7 16.0625 4 18.125 C0.4375 18.25 0.4375 18.25 -3 17.125 C-6.01351033 14.03218677 -7.81520361 11.54177234 -8.375 7.25 C-8 4.125 -8 4.125 -5.875 1.6875 C-3 0.125 -3 0.125 0 0 Z " fill="#0972B8" transform="translate(226,168.875)"/>
<path d="M0 0 C0.9583374 0.00523682 1.9166748 0.01047363 2.90405273 0.01586914 C4.45576172 0.02070313 4.45576172 0.02070313 6.03881836 0.02563477 C7.12743164 0.03401367 8.21604492 0.04239258 9.33764648 0.05102539 C10.97636719 0.05779297 10.97636719 0.05779297 12.64819336 0.06469727 C15.35723144 0.07652713 18.06616248 0.09300996 20.77514648 0.11352539 C20.44514648 2.09352539 20.11514648 4.07352539 19.77514648 6.11352539 C14.16514648 6.11352539 8.55514648 6.11352539 2.77514648 6.11352539 C2.77514648 7.76352539 2.77514648 9.41352539 2.77514648 11.11352539 C7.72514648 11.11352539 12.67514648 11.11352539 17.77514648 11.11352539 C17.77514648 12.10352539 17.77514648 13.09352539 17.77514648 14.11352539 C15.25406545 13.97127952 12.73334245 13.82482418 10.21264648 13.67602539 C9.50817383 13.63670898 8.80370117 13.59739258 8.07788086 13.55688477 C3.59529238 13.2883426 -0.78778849 12.80736342 -5.22485352 12.11352539 C-4.91715645 10.30020385 -4.60356287 8.48788194 -4.28735352 6.67602539 C-4.02631836 5.16202148 -4.02631836 5.16202148 -3.76000977 3.61743164 C-3.01979436 0.15408805 -3.01979436 0.15408805 0 0 Z " fill="#EC8127" transform="translate(480.224853515625,266.886474609375)"/>
<path d="M0 0 C4.64037422 1.36010968 6.43414068 2.40468565 9.625 6.0625 C10.40770376 9.12759181 10.14866451 10.81578001 9.625 14.0625 C8.0625 16.125 8.0625 16.125 5.625 17.0625 C1.34052753 17.0625 -0.79207363 16.49335862 -4.25 13.9375 C-6.81575504 10.46618436 -7.45334622 8.37154226 -7.375 4.0625 C-5.24679882 0.51549804 -4.138449 0.07663794 0 0 Z " fill="#0671B8" transform="translate(183.375,209.9375)"/>
<path d="M0 0 C3.89496705 2.21931201 6.53691471 4.57987177 7.9375 8.875 C7.958125 9.57625 7.97875 10.2775 8 11 C4.75 11.25 4.75 11.25 1 11 C-0.33333333 9.66666667 -1.66666667 8.33333333 -3 7 C-6.09648876 6.83551119 -6.09648876 6.83551119 -9 8 C-11.43285133 10.43285133 -12.39929092 12.63602917 -13 16 C-15.64 16 -18.28 16 -21 16 C-19.38945862 9.0976798 -17.06368421 4.85870814 -11 1 C-7.23772347 -0.25409218 -3.89062108 -0.7539412 0 0 Z " fill="#EB8127" transform="translate(523,266)"/>
<path d="M0 0 C3.6875 0.5 3.6875 0.5 6.625 3 C9.39209191 6.84470527 9.2931294 9.88207584 8.6875 14.5 C7.5625 16.5 7.5625 16.5 5.6875 17.5 C2.75 18 2.75 18 -0.3125 17.5 C-3.71062901 14.01002966 -5.45553765 11.33750388 -5.5 6.5 C-5.51417969 5.79875 -5.52835938 5.0975 -5.54296875 4.375 C-5.09852113 0.75915498 -3.35683919 0.50669271 0 0 Z " fill="#0570B7" transform="translate(257.3125,148.5)"/>
<path d="M0 0 C2.31 0 4.62 0 7 0 C7.99 1.98 8.98 3.96 10 6 C12.64 6 15.28 6 18 6 C18.33 5.01 18.66 4.02 19 3 C21.31 3.33 23.62 3.66 26 4 C25.08315806 7.30063098 24.06877946 8.93474769 21.5625 11.3125 C16.64012286 13.64415233 12.35915899 13.80877552 7 13 C3.65342048 11.15596639 2.44462531 9.84690536 0.6875 6.5 C0 4 0 4 0 0 Z " fill="#264375" transform="translate(502,285)"/>
<path d="M0 0 C8.25 0 16.5 0 25 0 C25 1.98 25 3.96 25 6 C21.7 6 18.4 6 15 6 C14.67 7.65 14.34 9.3 14 11 C12.02 11 10.04 11 8 11 C8 9.35 8 7.7 8 6 C5.03 6 2.06 6 -1 6 C-0.67 4.02 -0.34 2.04 0 0 Z " fill="#EC8228" transform="translate(449,267)"/>
<path d="M0 0 C2.64 0 5.28 0 8 0 C7.52434234 2.45906037 7.04463948 4.91720993 6.5625 7.375 C6.42779297 8.07367188 6.29308594 8.77234375 6.15429688 9.4921875 C5.11328125 14.7734375 5.11328125 14.7734375 4 17 C1.69 17 -0.62 17 -3 17 C-2.68985608 14.91631462 -2.3767948 12.83306332 -2.0625 10.75 C-1.88847656 9.58984375 -1.71445312 8.4296875 -1.53515625 7.234375 C-1.1272264 4.76893039 -0.66098697 2.40575438 0 0 Z " fill="#294678" transform="translate(455,281)"/>
<path d="M0 0 C2.31 0 4.62 0 7 0 C6.40984815 5.50808397 5.43336231 10.64878069 4 16 C1.69 16 -0.62 16 -3 16 C-2.52013969 10.43109483 -1.70084819 5.32932432 0 0 Z " fill="#294678" transform="translate(436,282)"/>
<path d="M0 0 C1.4540625 0.0309375 1.4540625 0.0309375 2.9375 0.0625 C1.97394647 9.47252278 1.97394647 9.47252278 0.9375 14.0625 C-1.7025 14.0625 -4.3425 14.0625 -7.0625 14.0625 C-6.58775225 11.91568469 -6.10758251 9.77006772 -5.625 7.625 C-5.35816406 6.43003906 -5.09132813 5.23507812 -4.81640625 4.00390625 C-3.81010244 0.07775719 -3.81010244 0.07775719 0 0 Z " fill="#284577" transform="translate(427.0625,283.9375)"/>
<path d="M0 0 C2.31 0 4.62 0 7 0 C6.85831863 1.43791516 6.71148957 2.8753237 6.5625 4.3125 C6.48128906 5.11300781 6.40007812 5.91351563 6.31640625 6.73828125 C6 9 6 9 5 12 C2.69 12.33 0.38 12.66 -2 13 C-1.85769192 11.58297487 -1.71099254 10.1663904 -1.5625 8.75 C-1.48128906 7.96109375 -1.40007812 7.1721875 -1.31640625 6.359375 C-1.02365007 4.17635361 -0.57935581 2.1226818 0 0 Z " fill="#EB8127" transform="translate(439,267)"/>
<path d="M0 0 C-0.33 0.99 -0.66 1.98 -1 3 C-12.35349319 4.21086752 -23.56772513 5.38178283 -35 5 C-31.6645711 2.77638073 -29.91141094 2.56678942 -25.9765625 2.1484375 C-24.790625 2.01953125 -23.6046875 1.890625 -22.3828125 1.7578125 C-21.14273437 1.63148438 -19.90265625 1.50515625 -18.625 1.375 C-17.39265625 1.2409375 -16.1603125 1.106875 -14.890625 0.96875 C-4.96462447 -0.08629127 -4.96462447 -0.08629127 0 0 Z " fill="#FBF7F4" transform="translate(298,404)"/>
<path d="M0 0 C1.65 0 3.3 0 5 0 C5 3.63 5 7.26 5 11 C3.35 11 1.7 11 0 11 C-2 9 -2 9 -2.25 5.5 C-2 2 -2 2 0 0 Z " fill="#1A7ABD" transform="translate(130,355)"/>
<path d="M0 0 C3 1 3 1 4.6875 3.8125 C6 7 6 7 6 11 C3.1875 11.25 3.1875 11.25 0 11 C-1.9375 9.3125 -1.9375 9.3125 -3 7 C-2.75925978 3.62963689 -2.41201979 2.41201979 0 0 Z " fill="#1075BB" transform="translate(150,441)"/>
<path d="M0 0 C-0.33 3.3 -0.66 6.6 -1 10 C-3.64 10 -6.28 10 -9 10 C-8.8125 6.6875 -8.8125 6.6875 -8 3 C-5.12075508 0.65114231 -3.72527067 0 0 0 Z " fill="#2A4778" transform="translate(411,288)"/>
<path d="M0 0 C4.12751449 0.60698743 7.3321148 2.03810791 11 4 C9.125 7.875 9.125 7.875 8 9 C5.22806071 9.29178308 3.58590175 9.36366316 1.1875 7.875 C-0.49106106 5.22464043 -0.20450238 3.06753576 0 0 Z " fill="#0B74BA" transform="translate(253,552)"/>
<path d="M0 0 C0.33 2.64 0.66 5.28 1 8 C-1.64 8.33 -4.28 8.66 -7 9 C-8.35439668 6.29120665 -8.06501451 3.99066732 -8 1 C-5.29120665 -0.35439668 -2.99066732 -0.06501451 0 0 Z " fill="#EDF2F9" transform="translate(322,144)"/>
<path d="M0 0 C1.98 1.65 3.96 3.3 6 5 C4.68 6.65 3.36 8.3 2 10 C-0.62187494 8.95125002 -1.79371361 8.35068687 -3.25 5.875 C-3.4975 5.25625 -3.745 4.6375 -4 4 C-2.68 2.68 -1.36 1.36 0 0 Z " fill="#F9FAFC" transform="translate(173,508)"/>
<path d="M0 0 C3.94932407 3.60638556 5.67251481 8.0625571 6.2578125 13.3125 C6.36687322 17.92421047 5.77087836 21.68348399 4 26 C3.01 26 2.02 26 1 26 C1.33 25.030625 1.66 24.06125 2 23.0625 C4.28908545 14.86131614 2.76958953 7.8966273 0 0 Z " fill="#F39C4C" transform="translate(329,360)"/>
<path d="M0 0 C0.99 0.33 1.98 0.66 3 1 C2.45730469 1.36351562 1.91460937 1.72703125 1.35546875 2.1015625 C-3.15418557 5.27050878 -5.97574073 7.68631943 -8 13 C-9.65 13 -11.3 13 -13 13 C-12.67 12.01 -12.34 11.02 -12 10 C-11.01 9.67 -10.02 9.34 -9 9 C-8.566875 8.236875 -8.13375 7.47375 -7.6875 6.6875 C-5.59490266 3.35484498 -3.43937861 1.86299675 0 0 Z " fill="#F6F2EF" transform="translate(260,291)"/>
<path d="M0 0 C5.28 0.33 10.56 0.66 16 1 C16 1.99 16 2.98 16 4 C10.72 3.67 5.44 3.34 0 3 C0 2.01 0 1.02 0 0 Z " fill="#F6BA82" transform="translate(482,277)"/>
<path d="M0 0 C-0.33 0.99 -0.66 1.98 -1 3 C-4.63 3.33 -8.26 3.66 -12 4 C-12.66 3.01 -13.32 2.02 -14 1 C-4.58997722 -0.14806378 -4.58997722 -0.14806378 0 0 Z " fill="#F3E8E1" transform="translate(298,404)"/>
<path d="M0 0 C0.66 0.66 1.32 1.32 2 2 C1.98252073 4.75589777 1.86136729 7.38786676 1.625 10.125 C1.56828125 10.87910156 1.5115625 11.63320313 1.453125 12.41015625 C1.3115535 14.27418096 1.15700041 16.13721137 1 18 C0.67 18 0.34 18 0 18 C0 12.72 0 7.44 0 2 C-1.65 2 -3.3 2 -5 2 C-5 1.67 -5 1.34 -5 1 C-2.625 0.375 -2.625 0.375 0 0 Z " fill="#C6D4ED" transform="translate(653,419)"/>
<path d="M0 0 C1.98 0 3.96 0 6 0 C6 1.32 6 2.64 6 4 C4.02 4 2.04 4 0 4 C0 2.68 0 1.36 0 0 Z " fill="#ECF1F8" transform="translate(640,274)"/>
<path d="M0 0 C0.66 0.99 1.32 1.98 2 3 C1.34 4.32 0.68 5.64 0 7 C-1.65 7 -3.3 7 -5 7 C-4.67 6.01 -4.34 5.02 -4 4 C-3.01 3.67 -2.02 3.34 -1 3 C-0.67 2.01 -0.34 1.02 0 0 Z " fill="#F4E7DD" transform="translate(252,297)"/>
<path d="M0 0 C0.33 0.99 0.66 1.98 1 3 C-0.9375 6.1875 -0.9375 6.1875 -3 9 C-4 7 -4 7 -3.1875 3.9375 C-2 1 -2 1 0 0 Z " fill="#237FC1" transform="translate(491,617)"/>
</svg>
