<?xml version="1.0" encoding="UTF-8"?>
<svg version="1.1" xmlns="http://www.w3.org/2000/svg" width="161" height="57">
<path d="M0 0 C3.52541643 -0.00026866 7.0508327 -0.00000057 10.57624912 0.00029182 C8.10124912 4.95029182 8.10124912 4.95029182 5.57624912 10.00029182 C4.91624912 10.00029182 4.25624912 10.00029182 3.57624912 10.00029182 C3.36999912 10.68091682 3.16374912 11.36154182 2.95124912 12.06279182 C1.42885862 15.31517153 -0.45044109 17.44052375 -2.83390713 20.08622932 C-5.00777946 22.70342206 -6.66566596 25.54525599 -8.34562588 28.49638557 C-8.87929775 29.24081917 -8.87929775 29.24081917 -9.42375088 30.00029182 C-10.08375088 30.00029182 -10.74375088 30.00029182 -11.42375088 30.00029182 C-11.42375088 31.65029182 -11.42375088 33.30029182 -11.42375088 35.00029182 C-12.08375088 35.00029182 -12.74375088 35.00029182 -13.42375088 35.00029182 C-14.08375088 37.31029182 -14.74375088 39.62029182 -15.42375088 42.00029182 C-16.08375088 42.00029182 -16.74375088 42.00029182 -17.42375088 42.00029182 C-18.08375088 43.32029182 -18.74375088 44.64029182 -19.42375088 46.00029182 C-20.08375088 46.00029182 -20.74375088 46.00029182 -21.42375088 46.00029182 C-21.42375088 47.65029182 -21.42375088 49.30029182 -21.42375088 51.00029182 C-32.75328056 51.02377774 -44.08280417 51.04138704 -55.41235352 51.052104 C-60.67682238 51.05725544 -65.94127423 51.06420645 -71.2057333 51.07573128 C-95.29970087 51.12712916 -119.34881909 51.04483013 -143.42375088 50.00029182 C-142.13280715 45.91857007 -140.94781488 43.02418718 -138.17375088 39.75029182 C-134.40193107 35.10021044 -131.43615762 30.16067555 -128.42375088 25.00029182 C-127.1584661 22.91360906 -125.87387616 20.968319 -124.42375088 19.00029182 C-123.76375088 19.00029182 -123.10375088 19.00029182 -122.42375088 19.00029182 C-122.01769619 18.13017464 -122.01769619 18.13017464 -121.60343838 17.24247932 C-120.42285035 14.99858023 -119.10025777 13.12697688 -117.54875088 11.12529182 C-115.6977874 8.73163749 -114.25363148 6.65166959 -112.91644192 3.91139412 C-110.23786117 0.78319955 -110.00685883 0.57151844 -106.19827175 0.24080086 C-104.43515262 0.20567245 -102.67119162 0.20365023 -100.90788174 0.22734261 C-99.942953 0.21671288 -98.97802425 0.20608315 -97.98385525 0.1951313 C-94.78491084 0.16697772 -91.58760769 0.18118426 -88.38859463 0.19560432 C-86.15294881 0.18434376 -83.91731481 0.17045858 -81.68170071 0.1540699 C-75.77874034 0.11792535 -69.87629608 0.11766296 -63.97325039 0.12474251 C-58.03412604 0.12564574 -52.09520691 0.09280273 -46.15617275 0.06279182 C-34.51475033 0.00964846 -22.87361148 -0.00602278 -11.23208141 -0.0008297 C-7.48805402 0.0006655 -3.74402761 0.00031923 0 0 Z " fill="#E53131" transform="translate(149.42375087738037,3.9997081756591797)"/>
<path d="M0 0 C-1.65 3.3 -3.3 6.6 -5 10 C-5.66 10 -6.32 10 -7 10 C-7.20625 10.680625 -7.4125 11.36125 -7.625 12.0625 C-9.1473905 15.31487971 -11.02669022 17.44023193 -13.41015625 20.0859375 C-15.58402859 22.70313024 -17.24191508 25.54496417 -18.921875 28.49609375 C-19.27765625 28.99238281 -19.6334375 29.48867188 -20 30 C-20.66 30 -21.32 30 -22 30 C-22 31.65 -22 33.3 -22 35 C-22.66 35 -23.32 35 -24 35 C-24.66 37.31 -25.32 39.62 -26 42 C-26.66 42 -27.32 42 -28 42 C-28.66 43.32 -29.32 44.64 -30 46 C-30.66 46 -31.32 46 -32 46 C-31.35695256 42.40060458 -29.82992412 39.96140944 -27.8125 36.9375 C-25.37230349 33.19520271 -23.09911801 29.44362602 -21 25.5 C-18.40575507 20.63927764 -15.53018451 16.02025964 -12.515625 11.41015625 C-10.81542732 8.79345382 -10.81542732 8.79345382 -9 5 C-46.29 5 -83.58 5 -122 5 C-121.67 3.68 -121.34 2.36 -121 1 C-108.02900636 0.86849133 -95.05800265 0.73802771 -82.08698559 0.60884857 C-76.06213561 0.54881495 -70.03728949 0.48843963 -64.01245117 0.42724609 C-58.18338638 0.3680542 -52.35431279 0.30980859 -46.52523232 0.25218201 C-44.3164366 0.23018657 -42.10764409 0.20786686 -39.89885521 0.18519592 C-26.59868531 0.04893435 -13.3008865 -0.03093501 0 0 Z " fill="#FCF6F6" transform="translate(160,4)"/>
<path d="M0 0 C3.28604789 0.2651158 6.5071635 0.65757624 9.75 1.25 C8.86285162 5.30411942 7.01632179 8.57100704 4.9375 12.125 C4.59396484 12.72441406 4.25042969 13.32382812 3.89648438 13.94140625 C-2.3932828 24.8216414 -2.3932828 24.8216414 -5.25 26.25 C-6.77148326 26.33372659 -8.29655778 26.35730027 -9.8203125 26.34765625 C-10.71621094 26.34443359 -11.61210938 26.34121094 -12.53515625 26.33789062 C-13.47230469 26.32951172 -14.40945312 26.32113281 -15.375 26.3125 C-16.31988281 26.30798828 -17.26476563 26.30347656 -18.23828125 26.29882812 C-20.57558387 26.28702357 -22.91276061 26.27055759 -25.25 26.25 C-14.56315179 -0.72956768 -14.56315179 -0.72956768 0 0 Z " fill="#FBEEEF" transform="translate(52.25,17.75)"/>
<path d="M0 0 C0.825 0.04189453 1.65 0.08378906 2.5 0.12695312 C3.34046875 0.14951172 4.1809375 0.17207031 5.046875 0.1953125 C7.11534964 0.25407598 9.18290488 0.34375428 11.25 0.43945312 C11.875 2.81445312 11.875 2.81445312 12.25 5.43945312 C11.59 6.09945313 10.93 6.75945313 10.25 7.43945312 C8.16348053 7.3501132 6.07956015 7.19424122 4 7.00195312 C-0.9173035 6.81308049 -0.9173035 6.81308049 -4.90625 9.33007812 C-7.0599844 12.60290982 -8.51252665 15.72703307 -9.75 19.43945312 C-6.75847418 18.66465576 -6.75847418 18.66465576 -3.75 17.43945312 C-3.42 16.44945313 -3.09 15.45945312 -2.75 14.43945312 C-3.41 14.43945312 -4.07 14.43945312 -4.75 14.43945312 C-3.875 10.56445312 -3.875 10.56445312 -2.75 9.43945312 C-0.89712498 9.36718811 0.95833878 9.35564093 2.8125 9.37695312 C3.82441406 9.38597656 4.83632812 9.395 5.87890625 9.40429688 C7.05259766 9.42169922 7.05259766 9.42169922 8.25 9.43945312 C7.95996094 10.15488281 7.66992188 10.8703125 7.37109375 11.60742188 C6.22997908 14.38970781 6.22997908 14.38970781 5.41015625 17.11523438 C4.03887503 20.40923731 3.04759467 22.16938017 0.25 24.43945312 C-5.96156848 25.75035909 -12.48240314 24.99795185 -18.75 24.43945312 C-19.23383643 19.09306063 -17.88468963 16.33558838 -15 11.87695312 C-14.30390625 10.78253906 -13.6078125 9.688125 -12.890625 8.56054688 C-12.18421875 7.53058594 -11.4778125 6.500625 -10.75 5.43945312 C-10.193125 4.488125 -9.63625 3.53679688 -9.0625 2.55664062 C-6.00462378 -0.24296902 -4.03203898 -0.08129111 0 0 Z " fill="#FAF0F1" transform="translate(107.75,18.560546875)"/>
<path d="M0 0 C1.33224609 0.03383789 1.33224609 0.03383789 2.69140625 0.06835938 C4.87932812 0.12717448 7.06379671 0.20928732 9.25 0.3125 C8.375 5.0625 8.375 5.0625 7.25 7.3125 C4.61 7.3125 1.97 7.3125 -0.75 7.3125 C-0.75 6.6525 -0.75 5.9925 -0.75 5.3125 C-3.16459827 5.48070634 -3.16459827 5.48070634 -5.75 6.3125 C-7.39053038 8.21796463 -7.39053038 8.21796463 -8.5 10.625 C-8.90734375 11.40488281 -9.3146875 12.18476563 -9.734375 12.98828125 C-10.65673878 15.09907529 -11.27660974 17.06389625 -11.75 19.3125 C-9.80000871 19.11778889 -9.80000871 19.11778889 -7.75 18.3125 C-6.46563266 16.3287233 -6.46563266 16.3287233 -5.75 14.3125 C-6.41 14.3125 -7.07 14.3125 -7.75 14.3125 C-7.09 12.6625 -6.43 11.0125 -5.75 9.3125 C-2.12 9.3125 1.51 9.3125 5.25 9.3125 C4.59 10.9625 3.93 12.6125 3.25 14.3125 C2.97285156 15.19550781 2.69570312 16.07851563 2.41015625 16.98828125 C1.03887503 20.28228418 0.04759467 22.04242705 -2.75 24.3125 C-8.96156848 25.62340596 -15.48240314 24.87099873 -21.75 24.3125 C-22.23383643 18.9661075 -20.88468963 16.20863525 -18 11.75 C-17.30390625 10.65558594 -16.6078125 9.56117187 -15.890625 8.43359375 C-15.18421875 7.40363281 -14.4778125 6.37367187 -13.75 5.3125 C-13.2034375 4.36117188 -12.656875 3.40984375 -12.09375 2.4296875 C-8.42197653 -0.88714786 -4.75850523 -0.22843637 0 0 Z " fill="#FBF4F5" transform="translate(86.75,18.6875)"/>
<path d="M0 0 C0.33 1.32 0.66 2.64 1 4 C0.34 4 -0.32 4 -1 4 C-1.26425781 4.53367187 -1.52851563 5.06734375 -1.80078125 5.6171875 C-5.92045949 13.8028674 -10.2069886 21.66248886 -15.6171875 29.07421875 C-17.04065837 30.94929877 -17.04065837 30.94929877 -18 33 C20.28 33 58.56 33 98 33 C98.33 32.01 98.66 31.02 99 30 C99.33 30 99.66 30 100 30 C100 31.65 100 33.3 100 35 C88.67047032 35.02348591 77.34094671 35.04109522 66.01139736 35.05181217 C60.7469285 35.05696362 55.48247665 35.06391462 50.21801758 35.07543945 C26.12405001 35.12683733 2.07493179 35.04453831 -22 34 C-20.70905627 29.91827824 -19.524064 27.02389535 -16.75 23.75 C-12.97818019 19.09991862 -10.01240674 14.16038373 -7 9 C-5.73471522 6.91331724 -4.45012529 4.96802717 -3 3 C-2.34 3 -1.68 3 -1 3 C-0.67 2.01 -0.34 1.02 0 0 Z " fill="#FDF8F7" transform="translate(28,20)"/>
<path d="M0 0 C2.21582031 -0.00244141 2.21582031 -0.00244141 5.84863281 0.57177734 C4.29340397 4.82649666 2.18352463 8.66910076 -0.08886719 12.57177734 C-0.43626953 13.17505859 -0.78367187 13.77833984 -1.14160156 14.39990234 C-2.13868862 16.12743548 -3.14484364 17.84972517 -4.15136719 19.57177734 C-4.64378906 20.53470703 -5.13621094 21.49763672 -5.64355469 22.48974609 C-7.15136719 24.57177734 -7.15136719 24.57177734 -9.19433594 25.06005859 C-11.18001302 24.89729818 -13.1656901 24.73453776 -15.15136719 24.57177734 C-13.15260304 19.40592518 -10.67740275 14.61588757 -8.02636719 9.75927734 C-7.57777344 8.875625 -7.12917969 7.99197266 -6.66699219 7.08154297 C-3.22562798 0.85728787 -3.22562798 0.85728787 0 0 Z " fill="#FBEFF0" transform="translate(67.1513671875,18.42822265625)"/>
<path d="M0 0 C1.134375 0.020625 2.26875 0.04125 3.4375 0.0625 C1.67375879 4.7017245 -0.56639832 8.93705292 -2.99609375 13.2578125 C-3.96907321 14.99995528 -4.90627524 16.76323037 -5.78515625 18.5546875 C-6.90463972 20.68739839 -7.83465148 22.38173182 -9.5625 24.0625 C-12.5110868 24.75142215 -14.49929804 24.47784942 -17.5625 24.0625 C-6.14956928 0.10788718 -6.14956928 0.10788718 0 0 Z " fill="#FAEEEF" transform="translate(128.5625,18.9375)"/>
<path d="M0 0 C0.66 0 1.32 0 2 0 C2.98644027 2.98314785 3.35515263 5.13229985 2.14501953 8.08886719 C0.85521281 10.40327719 -0.5122306 12.6415101 -1.9375 14.875 C-2.65969727 16.050625 -2.65969727 16.050625 -3.39648438 17.25 C-4.5829349 19.17651372 -5.78406311 21.09201223 -7 23 C-4.69 23.33 -2.38 23.66 0 24 C0 24.33 0 24.66 0 25 C-1.04800781 24.98259766 -1.04800781 24.98259766 -2.1171875 24.96484375 C-3.02726562 24.95582031 -3.93734375 24.94679688 -4.875 24.9375 C-5.77992187 24.92589844 -6.68484375 24.91429688 -7.6171875 24.90234375 C-10.0168585 24.83750743 -10.0168585 24.83750743 -12 26 C-14.88912732 25.91061582 -17.74393255 25.765952 -20.625 25.5625 C-21.42679687 25.51029297 -22.22859375 25.45808594 -23.0546875 25.40429688 C-25.03679103 25.27451629 -27.01844499 25.13790265 -29 25 C-29 24.67 -29 24.34 -29 24 C-23.06 24 -17.12 24 -11 24 C-10.34 22.35 -9.68 20.7 -9 19 C-7.99139993 17.21012681 -6.94914489 15.43882319 -5.875 13.6875 C-5.33617188 12.80449219 -4.79734375 11.92148437 -4.2421875 11.01171875 C-3.83226563 10.34785156 -3.42234375 9.68398438 -3 9 C-4.79260132 9.05995322 -6.58425795 9.1487241 -8.375 9.25 C-9.37273437 9.29640625 -10.37046875 9.3428125 -11.3984375 9.390625 C-14.1526477 9.72160885 -14.1526477 9.72160885 -15.3515625 12.046875 C-15.56554687 12.69140625 -15.77953125 13.3359375 -16 14 C-15.34 14 -14.68 14 -14 14 C-14.875 17.875 -14.875 17.875 -16 19 C-17.66617115 19.04063832 -19.33388095 19.042721 -21 19 C-19.92117985 13.88733061 -18.01272883 9.45500298 -14 6 C-9.57279881 5.21656416 -5.44835426 5.4654055 -1 6 C-0.29733387 3.02425724 -0.29733387 3.02425724 0 0 Z " fill="#E63939" transform="translate(119,19)"/>
<path d="M0 0 C1.23828125 1.59765625 1.23828125 1.59765625 2 4 C0.82982204 6.35539676 -0.32190904 8.30285664 -1.8125 10.4375 C-4.37518906 14.19294148 -6.47284412 17.37658365 -7 22 C-7.99 22 -8.98 22 -10 22 C-10.66 22.33 -11.32 22.66 -12 23 C-10.62712658 19.30123909 -8.93644547 16.0485524 -6.875 12.6875 C-6.33617188 11.80449219 -5.79734375 10.92148437 -5.2421875 10.01171875 C-4.83226563 9.34785156 -4.42234375 8.68398438 -4 8 C-5.79260132 8.05995322 -7.58425795 8.1487241 -9.375 8.25 C-10.37273437 8.29640625 -11.37046875 8.3428125 -12.3984375 8.390625 C-15.1526477 8.72160885 -15.1526477 8.72160885 -16.3515625 11.046875 C-16.56554687 11.69140625 -16.77953125 12.3359375 -17 13 C-16.34 13 -15.68 13 -15 13 C-15.66 14.65 -16.32 16.3 -17 18 C-18.32 18 -19.64 18 -21 18 C-20.59008949 12.53452651 -18.65603469 8.07126301 -15 4 C-12.1875 3.5 -12.1875 3.5 -10 4 C-10 4.66 -10 5.32 -10 6 C-7.36 6 -4.72 6 -2 6 C-1.34 4.02 -0.68 2.04 0 0 Z " fill="#E95153" transform="translate(96,20)"/>
<path d="M0 0 C0.33 1.32 0.66 2.64 1 4 C0.34 4 -0.32 4 -1 4 C-1.26425781 4.53367187 -1.52851563 5.06734375 -1.80078125 5.6171875 C-5.92378114 13.80946741 -10.1745592 21.64633986 -15.71484375 28.9765625 C-17.26806859 31.02255442 -17.26806859 31.02255442 -17 34 C-18.65 34 -20.3 34 -22 34 C-20.78849438 28.75014233 -18.1822643 25.51576451 -14.87109375 21.43359375 C-11.86247564 17.52050589 -9.48455235 13.2561462 -7 9 C-5.73471522 6.91331724 -4.45012529 4.96802717 -3 3 C-2.34 3 -1.68 3 -1 3 C-0.67 2.01 -0.34 1.02 0 0 Z " fill="#FCF8F8" transform="translate(28,20)"/>
<path d="M0 0 C0.66 1.32 1.32 2.64 2 4 C0.625 6 0.625 6 -1 8 C-1.66 8 -2.32 8 -3 8 C-3 9.65 -3 11.3 -3 13 C-3.66 13 -4.32 13 -5 13 C-5.66 15.31 -6.32 17.62 -7 20 C-7.66 20 -8.32 20 -9 20 C-9.66 21.32 -10.32 22.64 -11 24 C-11.66 24 -12.32 24 -13 24 C-12.35527218 20.3606811 -10.78136524 17.87279589 -8.75 14.8125 C-5.60297741 9.98490246 -2.72089486 5.07816782 0 0 Z " fill="#F9DBDD" transform="translate(141,26)"/>
<path d="M0 0 C0.66 0.99 1.32 1.98 2 3 C0.35 5.97 -1.3 8.94 -3 12 C-0.69 12.33 1.62 12.66 4 13 C4 13.33 4 13.66 4 14 C3.30132812 13.98839844 2.60265625 13.97679687 1.8828125 13.96484375 C0.97273438 13.95582031 0.06265625 13.94679688 -0.875 13.9375 C-1.77992187 13.92589844 -2.68484375 13.91429687 -3.6171875 13.90234375 C-6.0168585 13.83750743 -6.0168585 13.83750743 -8 15 C-10.88912732 14.91061582 -13.74393255 14.765952 -16.625 14.5625 C-17.42679687 14.51029297 -18.22859375 14.45808594 -19.0546875 14.40429688 C-21.03679103 14.27451629 -23.01844499 14.13790265 -25 14 C-25 13.67 -25 13.34 -25 13 C-19.06 13 -13.12 13 -7 13 C-6.34 11.35 -5.68 9.7 -5 8 C-4.16013694 6.54169232 -3.28623313 5.10230933 -2.375 3.6875 C-1.92898437 2.99011719 -1.48296875 2.29273438 -1.0234375 1.57421875 C-0.51683594 0.79498047 -0.51683594 0.79498047 0 0 Z " fill="#EB6566" transform="translate(115,30)"/>
<path d="M0 0 C1.15185547 1.70214844 1.15185547 1.70214844 2 4 C1.12548828 6.29003906 1.12548828 6.29003906 -0.4296875 8.765625 C-0.97753906 9.65507812 -1.52539062 10.54453125 -2.08984375 11.4609375 C-2.97349609 12.84152344 -2.97349609 12.84152344 -3.875 14.25 C-4.45636719 15.18585937 -5.03773437 16.12171875 -5.63671875 17.0859375 C-7.07708073 19.39996166 -8.53171506 21.70363019 -10 24 C-7.36 24 -4.72 24 -2 24 C-2 24.33 -2 24.66 -2 25 C-4.97 25 -7.94 25 -11 25 C-11 24.34 -11 23.68 -11 23 C-11.66 22.67 -12.32 22.34 -13 22 C-12.29875 21.071875 -11.5975 20.14375 -10.875 19.1875 C-6.58518728 13.19887256 -3.25782145 6.59284246 0 0 Z " fill="#E84D4E" transform="translate(62,19)"/>
<path d="M0 0 C1.23828125 1.59765625 1.23828125 1.59765625 2 4 C0.82982204 6.35539676 -0.32190904 8.30285664 -1.8125 10.4375 C-4.37518906 14.19294148 -6.47284412 17.37658365 -7 22 C-7.99 22 -8.98 22 -10 22 C-10.66 22.33 -11.32 22.66 -12 23 C-10.57250019 19.20950293 -8.83763458 15.72877544 -6.875 12.1875 C-6.33617188 11.21167969 -5.79734375 10.23585938 -5.2421875 9.23046875 C-4.62730469 8.12638672 -4.62730469 8.12638672 -4 7 C-3.34 7 -2.68 7 -2 7 C-1.855625 6.401875 -1.71125 5.80375 -1.5625 5.1875 C-1.1127561 3.43849596 -0.57107659 1.71322977 0 0 Z " fill="#E84D4E" transform="translate(96,20)"/>
<path d="M0 0 C0.33 1.32 0.66 2.64 1 4 C0.34 4 -0.32 4 -1 4 C-1.2578125 4.52207031 -1.515625 5.04414063 -1.78125 5.58203125 C-3.32040162 8.63566859 -4.90201993 11.66420296 -6.5 14.6875 C-7.1084375 15.84636719 -7.716875 17.00523438 -8.34375 18.19921875 C-10 21 -10 21 -12 22 C-11.61322843 14.65134015 -6.95317629 8.92976443 -3 3 C-2.34 3 -1.68 3 -1 3 C-0.67 2.01 -0.34 1.02 0 0 Z " fill="#F7C8CB" transform="translate(28,20)"/>
<path d="M0 0 C0.66 0.99 1.32 1.98 2 3 C1.50628906 3.73605469 1.01257813 4.47210938 0.50390625 5.23046875 C-0.13675781 6.20628906 -0.77742188 7.18210937 -1.4375 8.1875 C-2.07558594 9.15042969 -2.71367188 10.11335938 -3.37109375 11.10546875 C-4.91546187 13.84977757 -5.59816641 15.90418343 -6 19 C-7.32 18.67 -8.64 18.34 -10 18 C-8.47146065 13.72813475 -6.28490519 10.00673137 -3.875 6.1875 C-3.50246094 5.59001953 -3.12992187 4.99253906 -2.74609375 4.37695312 C-1.8342952 2.91573749 -0.91764024 1.45755415 0 0 Z " fill="#E84B4B" transform="translate(71,23)"/>
<path d="M0 0 C1 3 1 3 0.0625 5.1875 C-0.4634375 6.0846875 -0.4634375 6.0846875 -1 7 C-0.34 7 0.32 7 1 7 C0.125 10.875 0.125 10.875 -1 12 C-2.66617115 12.04063832 -4.33388095 12.042721 -6 12 C-5.36934243 8.78147169 -4.21979305 6.49198931 -2.4375 3.75 C-1.98246094 3.04359375 -1.52742188 2.3371875 -1.05859375 1.609375 C-0.53458984 0.81273438 -0.53458984 0.81273438 0 0 Z " fill="#E84F51" transform="translate(104,26)"/>
<path d="M0 0 C0.78552246 0.01047363 1.57104492 0.02094727 2.38037109 0.03173828 C3.23115234 0.03818359 4.08193359 0.04462891 4.95849609 0.05126953 C6.29267578 0.07640625 6.29267578 0.07640625 7.65380859 0.10205078 C8.99958984 0.11558594 8.99958984 0.11558594 10.37255859 0.12939453 C12.59157445 0.15300108 14.81005937 0.18592768 17.02880859 0.22705078 C16.69880859 1.54705078 16.36880859 2.86705078 16.02880859 4.22705078 C16.02880859 3.23705078 16.02880859 2.24705078 16.02880859 1.22705078 C13.48375518 1.2602997 10.94714127 1.32769441 8.40380859 1.41455078 C7.33453125 1.42325195 7.33453125 1.42325195 6.24365234 1.43212891 C0.57240475 1.66626298 -1.94515415 3.24546504 -5.97119141 7.22705078 C-3.45522092 0.39798804 -3.45522092 0.39798804 0 0 Z " fill="#F9D8DA" transform="translate(78.97119140625,18.77294921875)"/>
<path d="M0 0 C0.66 0.66 1.32 1.32 2 2 C0.68 4.31 -0.64 6.62 -2 9 C0.64 9 3.28 9 6 9 C6 9.33 6 9.66 6 10 C3.03 10 0.06 10 -3 10 C-3 9.34 -3 8.68 -3 8 C-3.66 7.67 -4.32 7.34 -5 7 C-3.35 4.69 -1.7 2.38 0 0 Z " fill="#EB686A" transform="translate(54,34)"/>
<path d="M0 0 C0.66 1.32 1.32 2.64 2 4 C0.625 6 0.625 6 -1 8 C-1.66 8 -2.32 8 -3 8 C-3.66 9.32 -4.32 10.64 -5 12 C-5 8.55639368 -4.20408468 7.25204608 -2.5 4.3125 C-2.0359375 3.50425781 -1.571875 2.69601563 -1.09375 1.86328125 C-0.7328125 1.24839844 -0.371875 0.63351563 0 0 Z " fill="#F9D9DB" transform="translate(141,26)"/>
<path d="M0 0 C0.66 0 1.32 0 2 0 C2.6875 2.8125 2.6875 2.8125 3 6 C1.8125 7.71875 1.8125 7.71875 0 9 C-2.26171875 9.07421875 -2.26171875 9.07421875 -4.6875 8.6875 C-5.49574219 8.56761719 -6.30398437 8.44773437 -7.13671875 8.32421875 C-7.75160156 8.21722656 -8.36648437 8.11023437 -9 8 C-9 7.67 -9 7.34 -9 7 C-6.36 6.67 -3.72 6.34 -1 6 C-0.29733387 3.02425724 -0.29733387 3.02425724 0 0 Z " fill="#E95659" transform="translate(119,19)"/>
<path d="M0 0 C1.65 0 3.3 0 5 0 C5 1.32 5 2.64 5 4 C3.02 4 1.04 4 -1 4 C-0.67 2.68 -0.34 1.36 0 0 Z " fill="#E95251" transform="translate(40,34)"/>
<path d="M0 0 C0.66 0.99 1.32 1.98 2 3 C0.68 5.31 -0.64 7.62 -2 10 C-2.66 8.68 -3.32 7.36 -4 6 C-2.68 4.02 -1.36 2.04 0 0 Z " fill="#E95556" transform="translate(71,23)"/>
<path d="M0 0 C1.65 0.33 3.3 0.66 5 1 C4.34 2.32 3.68 3.64 3 5 C1.68 5 0.36 5 -1 5 C-0.67 3.35 -0.34 1.7 0 0 Z " fill="#E84749" transform="translate(76,33)"/>
<path d="M0 0 C1.65 0 3.3 0 5 0 C4.67 1.32 4.34 2.64 4 4 C2.35 4 0.7 4 -1 4 C-0.67 2.68 -0.34 1.36 0 0 Z " fill="#E74748" transform="translate(46,24)"/>
<path d="M0 0 C1 3 1 3 0.0625 5.1875 C-0.4634375 6.0846875 -0.4634375 6.0846875 -1 7 C-0.34 7 0.32 7 1 7 C0.67 7.99 0.34 8.98 0 10 C0 9.34 0 8.68 0 8 C-1.32 7.67 -2.64 7.34 -4 7 C-2.68 4.69 -1.36 2.38 0 0 Z " fill="#ED757B" transform="translate(104,26)"/>
<path d="M0 0 C0.33 0.99 0.66 1.98 1 3 C0.34 3 -0.32 3 -1 3 C-1.33 4.32 -1.66 5.64 -2 7 C-2.66 7 -3.32 7 -4 7 C-3.6875 4.625 -3.6875 4.625 -3 2 C-2.01 1.34 -1.02 0.68 0 0 Z " fill="#FBF1F2" transform="translate(137,36)"/>
<path d="M0 0 C0.66 0.66 1.32 1.32 2 2 C1.34 3.32 0.68 4.64 0 6 C0.66 6.33 1.32 6.66 2 7 C0.35 6.67 -1.3 6.34 -3 6 C-2.01 4.02 -1.02 2.04 0 0 Z " fill="#EE7E82" transform="translate(79,27)"/>
</svg>
