<?xml version="1.0" encoding="UTF-8"?>
<svg version="1.1" xmlns="http://www.w3.org/2000/svg" width="448" height="448">
<path d="M0 0 C3.5060971 0.00315144 7.01134112 -0.02033583 10.51733398 -0.0456543 C23.74300107 -0.08358385 36.38567614 0.60228653 49.34350586 3.31567383 C50.42623779 3.54005127 51.50896973 3.76442871 52.62451172 3.99560547 C55.34227601 4.60626362 58.02878805 5.27962253 60.71850586 6.00317383 C62.14984863 6.38445435 62.14984863 6.38445435 63.61010742 6.7734375 C92.68879026 14.78662452 119.81064905 28.44343859 143.34350586 47.31567383 C144.33995117 48.10844727 145.33639648 48.9012207 146.36303711 49.71801758 C160.64105466 61.31279848 173.49269364 74.4681769 184.34350586 89.31567383 C184.93776367 90.10329102 185.53202148 90.8909082 186.14428711 91.70239258 C202.94582085 114.67919171 215.12606621 140.95118642 222.15600586 168.50317383 C222.3386499 169.21256104 222.52129395 169.92194824 222.70947266 170.65283203 C223.31916187 173.19719326 223.83984391 175.74802664 224.34350586 178.31567383 C224.60317139 179.60908691 224.86283691 180.9025 225.13037109 182.23510742 C227.48702389 194.85818948 227.83794517 207.31151772 227.78955078 220.12963867 C227.78105047 223.54773506 227.80990975 226.96414761 227.84155273 230.38208008 C227.99354079 278.50167136 210.39660569 325.84076499 180.34350586 363.31567383 C179.55073242 364.31211914 178.75795898 365.30856445 177.94116211 366.33520508 C166.34638121 380.61322263 153.19100279 393.4648616 138.34350586 404.31567383 C137.55588867 404.90993164 136.76827148 405.50418945 135.95678711 406.11645508 C87.27139988 441.71711345 25.88080655 455.06186849 -33.48461914 445.85913086 C-70.88476716 439.45113136 -106.02843837 424.0759696 -135.65649414 400.31567383 C-136.65293945 399.52290039 -137.64938477 398.73012695 -138.67602539 397.91333008 C-152.95404294 386.31854918 -165.80568192 373.16317076 -176.65649414 358.31567383 C-177.25075195 357.52805664 -177.84500977 356.74043945 -178.45727539 355.92895508 C-213.11569736 308.53211548 -227.43336516 247.92266837 -218.62915039 189.94848633 C-211.73328269 148.6588545 -195.15833196 110.09447015 -167.65649414 78.31567383 C-166.97458008 77.52290039 -166.29266602 76.73012695 -165.59008789 75.91333008 C-154.93603709 63.80734601 -143.62110929 52.90507287 -130.65649414 43.31567383 C-129.86500977 42.71754883 -129.07352539 42.11942383 -128.25805664 41.50317383 C-100.93997323 21.56576559 -69.74357088 8.81307185 -36.65649414 2.31567383 C-35.68542725 2.11917236 -34.71436035 1.9226709 -33.71386719 1.72021484 C-22.55152387 -0.21280357 -11.29553562 -0.02118943 0 0 Z " fill="#FDFDFD" transform="translate(220.656494140625,-0.315673828125)"/>
<path d="M0 0 C3.5060971 0.00315144 7.01134112 -0.02033583 10.51733398 -0.0456543 C23.74300107 -0.08358385 36.38567614 0.60228653 49.34350586 3.31567383 C50.42623779 3.54005127 51.50896973 3.76442871 52.62451172 3.99560547 C55.34227601 4.60626362 58.02878805 5.27962253 60.71850586 6.00317383 C62.14984863 6.38445435 62.14984863 6.38445435 63.61010742 6.7734375 C92.68879026 14.78662452 119.81064905 28.44343859 143.34350586 47.31567383 C144.33995117 48.10844727 145.33639648 48.9012207 146.36303711 49.71801758 C160.64105466 61.31279848 173.49269364 74.4681769 184.34350586 89.31567383 C184.93776367 90.10329102 185.53202148 90.8909082 186.14428711 91.70239258 C202.94582085 114.67919171 215.12606621 140.95118642 222.15600586 168.50317383 C222.3386499 169.21256104 222.52129395 169.92194824 222.70947266 170.65283203 C223.31916187 173.19719326 223.83984391 175.74802664 224.34350586 178.31567383 C224.60317139 179.60908691 224.86283691 180.9025 225.13037109 182.23510742 C227.48702389 194.85818948 227.83794517 207.31151772 227.78955078 220.12963867 C227.78105047 223.54773506 227.80990975 226.96414761 227.84155273 230.38208008 C227.99354079 278.50167136 210.39660569 325.84076499 180.34350586 363.31567383 C179.55073242 364.31211914 178.75795898 365.30856445 177.94116211 366.33520508 C166.34638121 380.61322263 153.19100279 393.4648616 138.34350586 404.31567383 C137.55588867 404.90993164 136.76827148 405.50418945 135.95678711 406.11645508 C87.27139988 441.71711345 25.88080655 455.06186849 -33.48461914 445.85913086 C-70.88476716 439.45113136 -106.02843837 424.0759696 -135.65649414 400.31567383 C-136.65293945 399.52290039 -137.64938477 398.73012695 -138.67602539 397.91333008 C-152.95404294 386.31854918 -165.80568192 373.16317076 -176.65649414 358.31567383 C-177.25075195 357.52805664 -177.84500977 356.74043945 -178.45727539 355.92895508 C-213.11569736 308.53211548 -227.43336516 247.92266837 -218.62915039 189.94848633 C-211.73328269 148.6588545 -195.15833196 110.09447015 -167.65649414 78.31567383 C-166.97458008 77.52290039 -166.29266602 76.73012695 -165.59008789 75.91333008 C-154.93603709 63.80734601 -143.62110929 52.90507287 -130.65649414 43.31567383 C-129.86500977 42.71754883 -129.07352539 42.11942383 -128.25805664 41.50317383 C-100.93997323 21.56576559 -69.74357088 8.81307185 -36.65649414 2.31567383 C-35.68542725 2.11917236 -34.71436035 1.9226709 -33.71386719 1.72021484 C-22.55152387 -0.21280357 -11.29553562 -0.02118943 0 0 Z M-138.39477539 66.24145508 C-140.43974081 68.11688969 -142.53268889 69.90599916 -144.65649414 71.69067383 C-153.87113912 79.75811401 -161.4729408 89.44644144 -168.65649414 99.31567383 C-169.05304199 99.85579102 -169.44958984 100.3959082 -169.8581543 100.95239258 C-201.16108109 144.10763509 -215.13480901 200.89934941 -207.09301758 253.69360352 C-201.6670517 286.28581465 -190.46687829 318.53857306 -170.65649414 345.31567383 C-170.27283691 345.83774414 -169.88917969 346.35981445 -169.49389648 346.89770508 C-164.56115638 353.57635755 -159.3648748 359.94782149 -153.73071289 366.05395508 C-151.85527828 368.0989205 -150.06616881 370.19186858 -148.28149414 372.31567383 C-140.21405396 381.53031881 -130.52572653 389.13212048 -120.65649414 396.31567383 C-119.84631836 396.91049561 -119.84631836 396.91049561 -119.01977539 397.51733398 C-75.65007593 428.97581848 -19.3482193 442.48596966 33.6394043 434.75219727 C66.23504707 429.49027877 98.60348708 418.09862377 125.34350586 398.31567383 C125.86557617 397.9320166 126.38764648 397.54835938 126.92553711 397.15307617 C133.60418958 392.22033607 139.97565352 387.02405449 146.08178711 381.38989258 C148.12675253 379.51445797 150.21970061 377.7253485 152.34350586 375.94067383 C161.55581571 367.87527806 169.16865769 358.18885199 176.34350586 348.31567383 C176.74537109 347.76492188 177.14723633 347.21416992 177.5612793 346.64672852 C210.62436612 300.742056 222.01750229 244.05516118 213.88696289 188.6027832 C207.26641305 148.55827149 188.89849891 111.36022127 161.41772461 81.57739258 C159.54229 79.53242716 157.75318053 77.43947908 155.96850586 75.31567383 C147.90311009 66.10336398 138.21668402 58.490522 128.34350586 51.31567383 C127.79275391 50.91380859 127.24200195 50.51194336 126.67456055 50.09790039 C46.91227398 -7.35131472 -66.37498751 -0.21158591 -138.39477539 66.24145508 Z " fill="#026FB7" transform="translate(220.656494140625,-0.315673828125)"/>
<path d="M0 0 C0 0.99 0 1.98 0 3 C-4.90742442 7.25962415 -11.50571664 9.7310721 -17.375 12.375 C-27.60241275 17.11811934 -38.70373337 22.40746674 -44 33 C-44.70705627 37.14132957 -43.85796809 39.82911371 -41.8125 43.375 C-30.34968208 59.31045949 -3.61907985 63.66458787 13 68 C13 47.87 13 27.74 13 7 C22.9 7 32.8 7 43 7 C43 29.11 43 51.22 43 74 C48.94 74.33 54.88 74.66 61 75 C64.23906258 75.30418196 67.45852981 75.6244578 70.6875 76 C91.5620288 78.23461981 112.59075436 78.23900318 133.5625 78.25 C134.23211384 78.25058914 134.90172768 78.25117828 135.59163284 78.25178528 C171.58218445 78.27400154 207.40465219 76.56981421 243 71 C244.00804687 70.84418457 245.01609375 70.68836914 246.0546875 70.52783203 C268.24069465 67.01479973 289.32335243 61.76465901 309.28515625 51.2734375 C312.3991413 49.81277689 314.60076047 49.75719718 318 50 C317.49259538 54.39750672 314.91706686 56.86948922 312 60 C311.34 60 310.68 60 310 60 C310 60.66 310 61.32 310 62 C276.01787876 91.67563122 216.12530862 93.99923171 173 97 C172.31372528 97.04805786 171.62745056 97.09611572 170.92037964 97.14562988 C154.03043904 98.27335771 137.10704982 98.23931095 120.1875 98.25 C119.44058521 98.251031 118.69367043 98.252062 117.92412186 98.25312424 C55.99999077 98.33333026 55.99999077 98.33333026 43 94 C43 105.88 43 117.76 43 130 C33.1 130 23.2 130 13 130 C13 116.8 13 103.6 13 90 C7.06 89.01 7.06 89.01 1 88 C-22.87817564 83.01861188 -51.10611644 76.13034642 -66.85546875 55.765625 C-71.07762678 49.25226175 -73.558759 42.81777592 -72 35 C-66.84130384 22.4233247 -56.27172616 16.27268593 -44.37890625 10.99072266 C-30.83255299 5.34918925 -14.85852604 -0.87403094 0 0 Z " fill="#026FB6" transform="translate(102,174)"/>
<path d="M0 0 C0.76313004 -0.00524185 1.52626007 -0.0104837 2.31251526 -0.0158844 C3.92553491 -0.02230379 5.53860139 -0.02096861 7.15161133 -0.01245117 C9.61689885 -0.00394767 12.07986374 -0.03268882 14.54492188 -0.06445312 C16.11328056 -0.06606546 17.68164333 -0.06548699 19.25 -0.0625 C19.98552597 -0.07373398 20.72105194 -0.08496796 21.47886658 -0.09654236 C24.92699189 -0.04971339 26.84145522 0.16852401 29.62524414 2.27709961 C32.2582247 5.90252708 32.31114396 8.84526432 32.2890625 13.1953125 C32.28656494 14.20295654 32.28406738 15.21060059 32.28149414 16.2487793 C32.27239014 17.52664307 32.26328613 18.80450684 32.25390625 20.12109375 C32.23328125 24.18421875 32.21265625 28.24734375 32.19140625 32.43359375 C22.95140625 32.76359375 13.71140625 33.09359375 4.19140625 33.43359375 C4.52140625 36.40359375 4.85140625 39.37359375 5.19140625 42.43359375 C8.39979682 42.46068148 11.60795628 42.48047543 14.81640625 42.49609375 C15.72003906 42.50447266 16.62367188 42.51285156 17.5546875 42.52148438 C22.22044914 42.5385127 26.6015391 42.40188798 31.19140625 41.43359375 C31.21838814 43.05850329 31.23779382 44.68354008 31.25390625 46.30859375 C31.26550781 47.21351563 31.27710938 48.1184375 31.2890625 49.05078125 C31.19140625 51.43359375 31.19140625 51.43359375 30.19140625 53.43359375 C24.7288435 53.55740524 19.26710137 53.64803201 13.8034668 53.70825195 C11.94590016 53.73336077 10.08843198 53.76745509 8.23120117 53.81079102 C5.55753267 53.87160499 2.8851726 53.89983895 0.2109375 53.921875 C-1.02996895 53.96058464 -1.02996895 53.96058464 -2.29594421 54.00007629 C-6.36682016 54.00204621 -8.34436714 53.73485237 -11.83520508 51.46948242 C-14.52458148 47.33210823 -14.49749512 44.20814978 -14.40234375 39.37109375 C-14.40238403 38.50218506 -14.40242432 37.63327637 -14.40246582 36.73803711 C-14.3971177 34.90568792 -14.37956511 33.07333876 -14.35058594 31.24121094 C-14.3087291 28.44264335 -14.30951985 25.64648416 -14.31640625 22.84765625 C-14.30591289 21.06378543 -14.292974 19.27992696 -14.27734375 17.49609375 C-14.27714233 16.66263428 -14.27694092 15.8291748 -14.2767334 14.97045898 C-14.18184793 10.29344635 -13.78999751 7.24726217 -10.80859375 3.43359375 C-10.412771 2.84441162 -10.01694824 2.25522949 -9.60913086 1.64819336 C-6.66505247 -0.33781206 -3.4326135 -0.01366268 0 0 Z " fill="#302F2E" transform="translate(280.80859375,176.56640625)"/>
<path d="M0 0 C0.87789688 -0.00902847 1.75579376 -0.01805695 2.66029358 -0.02735901 C4.51885558 -0.04187975 6.37746892 -0.05075277 8.23608398 -0.05444336 C11.08339267 -0.06634662 13.92853929 -0.1155177 16.77539062 -0.16601562 C18.57941648 -0.17547872 20.38345568 -0.1827143 22.1875 -0.1875 C23.46728981 -0.21679848 23.46728981 -0.21679848 24.77293396 -0.24668884 C27.01120503 -0.22955904 28.98712523 -0.16546732 31.16015625 0.37109375 C34.63263789 4.28022978 34.53290043 8.18090805 34.34765625 13.18359375 C34.25484375 16.74140625 34.25484375 16.74140625 34.16015625 20.37109375 C28.88015625 20.37109375 23.60015625 20.37109375 18.16015625 20.37109375 C17.671875 18.3203125 17.18359375 16.26953125 16.6953125 14.21875 C16.32128056 12.37139477 16.32128056 12.37139477 15.16015625 11.37109375 C13.66277501 11.27318805 12.16072733 11.24134511 10.66015625 11.24609375 C9.84546875 11.24351562 9.03078125 11.2409375 8.19140625 11.23828125 C6.16485248 11.14657595 6.16485248 11.14657595 5.16015625 12.37109375 C5.0724002 14.51668202 5.05320406 16.66513796 5.0625 18.8125 C5.06733398 20.77026367 5.06733398 20.77026367 5.07226562 22.76757812 C5.08062224 24.15625065 5.0890872 25.54492252 5.09765625 26.93359375 C5.10266959 28.32617031 5.10723278 29.71874856 5.11132812 31.11132812 C5.12316191 34.53129245 5.13964745 37.95117219 5.16015625 41.37109375 C8.46015625 41.70109375 11.76015625 42.03109375 15.16015625 42.37109375 C15.82015625 38.74109375 16.48015625 35.11109375 17.16015625 31.37109375 C22.77015625 31.37109375 28.38015625 31.37109375 34.16015625 31.37109375 C34.59227359 45.48692677 34.59227359 45.48692677 31.16015625 50.37109375 C28.6663277 52.8649223 27.15647799 52.62698695 23.75115967 52.67463684 C23.01472229 52.67372543 22.27828491 52.67281403 21.51953125 52.671875 C20.3798288 52.67830269 20.3798288 52.67830269 19.21710205 52.68486023 C17.60649614 52.690609 15.99586425 52.69109976 14.38525391 52.68676758 C11.93346053 52.68362363 9.48289266 52.70700219 7.03125 52.73242188 C5.46484527 52.73469659 3.8984373 52.73539757 2.33203125 52.734375 C1.6036908 52.74358475 0.87535034 52.75279449 0.12493896 52.76228333 C-4.59327767 52.71992525 -7.88952453 51.98115244 -11.83984375 49.37109375 C-14.74066699 45.83214162 -14.14563054 41.20926948 -14.140625 36.84375 C-14.14491013 36.01781845 -14.14919525 35.1918869 -14.15361023 34.34092712 C-14.15934441 32.59684159 -14.15986051 30.85273214 -14.15551758 29.10864258 C-14.1523589 26.44636051 -14.1758228 23.78519154 -14.20117188 21.12304688 C-14.20344516 19.42578265 -14.20414823 17.72851544 -14.203125 16.03125 C-14.21233475 15.23840103 -14.22154449 14.44555206 -14.23103333 13.62867737 C-14.14552187 3.36668099 -9.92673948 0.06224632 0 0 Z " fill="#2D2D2C" transform="translate(331.83984375,177.62890625)"/>
<path d="M0 0 C5.94 0 11.88 0 18 0 C17.67 3.63 17.34 7.26 17 11 C20.3 11 23.6 11 27 11 C27 14.3 27 17.6 27 21 C23.7 21 20.4 21 17 21 C17.11798252 25.11193736 17.24221059 29.22363288 17.37231445 33.33520508 C17.41571434 34.73489199 17.45738564 36.13463359 17.49731445 37.53442383 C17.55489445 39.54261495 17.61914 41.55061149 17.68359375 43.55859375 C17.72025146 44.76829834 17.75690918 45.97800293 17.79467773 47.22436523 C17.68938266 49.90705456 17.68938266 49.90705456 19 51 C20.34747084 51.23075082 21.70377565 51.41153063 23.0625 51.5625 C24.361875 51.706875 25.66125 51.85125 27 52 C27 55.3 27 58.6 27 62 C10.90876289 64.42886598 10.90876289 64.42886598 4.4375 61.25 C0.98024507 58.05868776 0.08247928 56.26539179 -0.22705078 51.51660156 C-0.22673617 50.14123539 -0.21555778 48.7658422 -0.1953125 47.390625 C-0.19106766 46.30041046 -0.19106766 46.30041046 -0.18673706 45.18817139 C-0.17557523 42.87527749 -0.15047851 40.56277612 -0.125 38.25 C-0.11496501 36.67839102 -0.10584006 35.10677596 -0.09765625 33.53515625 C-0.07564904 29.68995378 -0.04114715 25.84504336 0 22 C-2.64 22 -5.28 22 -8 22 C-8 18.04 -8 14.08 -8 10 C-5.36 10 -2.72 10 0 10 C0 6.7 0 3.4 0 0 Z " fill="#302F2E" transform="translate(234,167)"/>
<path d="M0 0 C9.57 0 19.14 0 29 0 C29 14.19 29 28.38 29 43 C2.93333333 41.46666667 2.93333333 41.46666667 0 40 C0 26.8 0 13.6 0 0 Z " fill="#016FB6" transform="translate(159,205)"/>
<path d="M0 0 C5.61 0 11.22 0 17 0 C17.33 17.16 17.66 34.32 18 52 C11.73 52 5.46 52 -1 52 C-0.67 51.01 -0.34 50.02 0 49 C0.08722452 47.38904142 0.11767272 45.77468984 0.11352539 44.16137695 C0.11344986 43.1805867 0.11337433 42.19979645 0.11329651 41.18928528 C0.10813522 40.13295395 0.10297394 39.07662262 0.09765625 37.98828125 C0.0962413 36.90491989 0.09482635 35.82155853 0.09336853 34.70536804 C0.08776559 31.24105075 0.07521258 27.7767978 0.0625 24.3125 C0.05748538 21.96549572 0.05292241 19.61849044 0.04882812 17.27148438 C0.0377952 11.51429808 0.02052858 5.75715995 0 0 Z " fill="#2E2D2C" transform="translate(204,178)"/>
<path d="M0 0 C2.97 0.33 5.94 0.66 9 1 C10.74996387 1.12573427 12.50131339 1.23516022 14.25390625 1.31640625 C15.43835327 1.37356812 15.43835327 1.37356812 16.64672852 1.43188477 C17.60893311 1.47498779 18.5711377 1.51809082 19.5625 1.5625 C22.676875 1.706875 25.79125 1.85125 29 2 C29 8.27 29 14.54 29 21 C19.43 21 9.86 21 0 21 C0 14.07 0 7.14 0 0 Z " fill="#0972B8" transform="translate(159,273)"/>
<path d="M0 0 C2.5693511 3.85402665 3.59312655 7.58753327 5 12 C11.93 12.495 11.93 12.495 19 13 C13.35475578 18.80205656 13.35475578 18.80205656 10 21 C9.34 21 8.68 21 8 21 C8.30035156 21.91523438 8.60070312 22.83046875 8.91015625 23.7734375 C9.29042969 24.96195313 9.67070312 26.15046875 10.0625 27.375 C10.44535156 28.55835938 10.82820313 29.74171875 11.22265625 30.9609375 C12 34 12 34 11 36 C7.7 33.36 4.4 30.72 1 28 C-0.423125 28.969375 -1.84625 29.93875 -3.3125 30.9375 C-5.94009076 32.7273082 -7.96916284 33.98972095 -11 35 C-10.68817931 33.58318366 -10.37551263 32.16655349 -10.0625 30.75 C-9.88847656 29.96109375 -9.71445312 29.1721875 -9.53515625 28.359375 C-9.052444 26.23121297 -8.53836822 24.11467158 -8 22 C-8.721875 21.51789063 -9.44375 21.03578125 -10.1875 20.5390625 C-11.115625 19.90742188 -12.04375 19.27578125 -13 18.625 C-13.928125 17.99851563 -14.85625 17.37203125 -15.8125 16.7265625 C-16.534375 16.15679687 -17.25625 15.58703125 -18 15 C-18 14.34 -18 13.68 -18 13 C-13.38 13 -8.76 13 -4 13 C-3.525625 11.22625 -3.05125 9.4525 -2.5625 7.625 C-1.125 2.25 -1.125 2.25 0 0 Z " fill="#E52F2F" transform="translate(308,120)"/>
<path d="M0 0 C3.44587588 3.44587588 3.81292163 8.35960275 5 13 C9.62 13 14.24 13 19 13 C13.35475578 18.80205656 13.35475578 18.80205656 10 21 C9.34 21 8.68 21 8 21 C8.30035156 21.84304687 8.60070312 22.68609375 8.91015625 23.5546875 C9.29042969 24.65039062 9.67070312 25.74609375 10.0625 26.875 C10.63677734 28.51082031 10.63677734 28.51082031 11.22265625 30.1796875 C12 33 12 33 11 35 C7.37 32.69 3.74 30.38 0 28 C-4.95 31.465 -4.95 31.465 -10 35 C-11 33 -11 33 -10.22265625 30.1796875 C-9.83980469 29.08914062 -9.45695313 27.99859375 -9.0625 26.875 C-8.68222656 25.77929688 -8.30195313 24.68359375 -7.91015625 23.5546875 C-7.60980469 22.71164063 -7.30945313 21.86859375 -7 21 C-7.87398437 20.58427734 -7.87398437 20.58427734 -8.765625 20.16015625 C-10.90110897 19.05134726 -12.79545138 17.83658929 -14.75 16.4375 C-15.36359375 16.00308594 -15.9771875 15.56867188 -16.609375 15.12109375 C-17.06828125 14.75113281 -17.5271875 14.38117188 -18 14 C-18 13.67 -18 13.34 -18 13 C-13.38 13 -8.76 13 -4 13 C-3.525625 11.22625 -3.05125 9.4525 -2.5625 7.625 C-1.125 2.25 -1.125 2.25 0 0 Z " fill="#E42C2C" transform="translate(253,119)"/>
<path d="M0 0 C0.66 0.33 1.32 0.66 2 1 C3.23498385 4.94854928 4.0659186 8.9664667 5 13 C9.62 13 14.24 13 19 13 C15.88983545 16.28788824 12.98381075 18.83735988 9 21 C9.34224609 22.13888672 9.34224609 22.13888672 9.69140625 23.30078125 C10.12259766 24.79158203 10.12259766 24.79158203 10.5625 26.3125 C10.85253906 27.29863281 11.14257812 28.28476563 11.44140625 29.30078125 C12 32 12 32 11 35 C10.40832031 34.47148437 9.81664062 33.94296875 9.20703125 33.3984375 C8.41683594 32.73070312 7.62664062 32.06296875 6.8125 31.375 C5.64654297 30.36566406 5.64654297 30.36566406 4.45703125 29.3359375 C2.05498596 27.67124538 2.05498596 27.67124538 -0.6328125 28.65625 C-3.32864494 30.18655752 -5.59579356 32.05064343 -8 34 C-8.66 34 -9.32 34 -10 34 C-9.39172088 29.65514916 -8.72918276 25.32607587 -8 21 C-8.721875 20.50628906 -9.44375 20.01257813 -10.1875 19.50390625 C-11.5796875 18.54291016 -11.5796875 18.54291016 -13 17.5625 C-13.928125 16.92441406 -14.85625 16.28632813 -15.8125 15.62890625 C-16.8953125 14.82259766 -16.8953125 14.82259766 -18 14 C-18 13.67 -18 13.34 -18 13 C-13.38 12.67 -8.76 12.34 -4 12 C-2.68 8.04 -1.36 4.08 0 0 Z " fill="#E4292A" transform="translate(198,118)"/>
<path d="M0 0 C0.66 0 1.32 0 2 0 C2.50757862 1.41396902 3.00574925 2.83131729 3.5 4.25 C3.7784375 5.03890625 4.056875 5.8278125 4.34375 6.640625 C5 9 5 9 5 13 C9.62 13 14.24 13 19 13 C14 18 14 18 11 20 C10.34 20 9.68 20 9 20 C9.34224609 21.01320312 9.34224609 21.01320312 9.69140625 22.046875 C9.97886719 22.93890625 10.26632812 23.8309375 10.5625 24.75 C10.85253906 25.63171875 11.14257812 26.5134375 11.44140625 27.421875 C12.01697435 30.07834316 11.89248371 31.47031106 11 34 C10.22076172 33.33291016 10.22076172 33.33291016 9.42578125 32.65234375 C5.36115341 29.16734655 5.36115341 29.16734655 0.375 27.8125 C-2.87026035 29.43513017 -5.25732023 31.62301087 -8 34 C-8.66 34 -9.32 34 -10 34 C-9.68817931 32.58318366 -9.37551263 31.16655349 -9.0625 29.75 C-8.88847656 28.96109375 -8.71445312 28.1721875 -8.53515625 27.359375 C-8.052444 25.23121297 -7.53836822 23.11467158 -7 21 C-7.721875 20.50628906 -8.44375 20.01257813 -9.1875 19.50390625 C-10.5796875 18.54291016 -10.5796875 18.54291016 -12 17.5625 C-12.928125 16.92441406 -13.85625 16.28632813 -14.8125 15.62890625 C-15.8953125 14.82259766 -15.8953125 14.82259766 -17 14 C-17 13.67 -17 13.34 -17 13 C-12.38 13 -7.76 13 -3 13 C-2.87625 11.96875 -2.7525 10.9375 -2.625 9.875 C-2.06110186 6.37883154 -1.21317941 3.31602373 0 0 Z " fill="#E4282A" transform="translate(362,122)"/>
<path d="M0 0 C2.875 1.5625 2.875 1.5625 5 4 C6.14009771 7.91908586 6.40888632 10.03158504 4.8125 13.8125 C2.85980888 16.16919618 1.94024566 17.18326509 -1 18 C-5.16734046 17.92558321 -7.26644159 17.63951246 -10.4375 14.875 C-12.43514338 11.19933618 -12.66350721 9.12848931 -12 5 C-8.57935012 0.12816532 -5.85570965 -0.94109619 0 0 Z " fill="#8A8A89" transform="translate(391,209)"/>
<path d="M0 0 C0.7734375 -0.01675781 1.546875 -0.03351563 2.34375 -0.05078125 C4.5 0.3125 4.5 0.3125 6.26953125 1.5390625 C8.54881657 4.82412769 7.6683313 8.4408801 7.5 12.3125 C2.55 12.3125 -2.4 12.3125 -7.5 12.3125 C-7.79296875 4.6953125 -7.79296875 4.6953125 -7.5 2.3125 C-4.40219052 0.24729368 -3.5459519 0.01772976 0 0 Z " fill="#EAEBEB" transform="translate(291.5,186.6875)"/>
<path d="M0 0 C0.99 0 1.98 0 3 0 C3 5.94 3 11.88 3 18 C0.03 18 -2.94 18 -6 18 C-9 15 -9 15 -9.36328125 13.02734375 C-9.22222222 7.22222222 -9.22222222 7.22222222 -7 5 C-3.875 4.875 -3.875 4.875 -1 5 C-0.67 3.35 -0.34 1.7 0 0 Z " fill="#E53331" transform="translate(384,285)"/>
<path d="M0 0 C3.9375 0.5 3.9375 0.5 5.9375 1.875 C6.9375 3.5 6.9375 3.5 6.9375 5.5 C3.60416667 4.83333333 0.27083333 4.16666667 -3.0625 3.5 C-3.0625 6.8 -3.0625 10.1 -3.0625 13.5 C-1.4125 13.83 0.2375 14.16 1.9375 14.5 C2.2675 13.84 2.5975 13.18 2.9375 12.5 C4.2575 12.5 5.5775 12.5 6.9375 12.5 C5.1875 17.375 5.1875 17.375 2.9375 18.5 C-3.40367647 18.96117647 -3.40367647 18.96117647 -5.9375 17.1875 C-8.44040876 13.43313686 -8.43996309 9.87857182 -8.0625 5.5 C-6.02149855 1.50303883 -4.39730862 0.18625801 0 0 Z " fill="#E5312E" transform="translate(280.0625,284.5)"/>
<path d="M0 0 C2.875 1.5625 2.875 1.5625 5 4 C6.14009771 7.91908586 6.40888632 10.03158504 4.8125 13.8125 C2.85980888 16.16919618 1.94024566 17.18326509 -1 18 C-5.16734046 17.92558321 -7.26644159 17.63951246 -10.4375 14.875 C-12.43514338 11.19933618 -12.66350721 9.12848931 -12 5 C-8.57935012 0.12816532 -5.85570965 -0.94109619 0 0 Z M-10 6 C-10.50299316 10.10777749 -10.32749345 11.50875983 -8 15 C-4.52894948 15.91256309 -4.52894948 15.91256309 -1 16 C-0.34 15.34 0.32 14.68 1 14 C-0.32 12.68 -1.64 11.36 -3 10 C-1.25 6.125 -1.25 6.125 1 5 C0.34 6.98 -0.32 8.96 -1 11 C0.32 11.66 1.64 12.32 3 13 C3.94607807 10.25038489 3.94607807 10.25038489 4 7 C1.71709901 3.91136925 0.23492622 2.27108137 -3.5625 1.4375 C-6.85940593 2.19832445 -8.04476263 3.24818444 -10 6 Z " fill="#383736" transform="translate(391,209)"/>
<path d="M0 0 C1.7325 0.1546875 1.7325 0.1546875 3.5 0.3125 C5.5 3.3125 5.5 3.3125 5.5 7.3125 C2.86 7.3125 0.22 7.3125 -2.5 7.3125 C-2.17 8.3025 -1.84 9.2925 -1.5 10.3125 C-0.51 10.6425 0.48 10.9725 1.5 11.3125 C1.5 10.6525 1.5 9.9925 1.5 9.3125 C2.82 9.3125 4.14 9.3125 5.5 9.3125 C4.84 10.6325 4.18 11.9525 3.5 13.3125 C0.125 13.4375 0.125 13.4375 -3.5 13.3125 C-5.5 11.3125 -5.5 11.3125 -5.765625 9.21875 C-5.75789063 8.02765625 -5.75789063 8.02765625 -5.75 6.8125 C-5.75515625 6.0184375 -5.7603125 5.224375 -5.765625 4.40625 C-5.27297243 0.52298855 -3.69492625 0.32990413 0 0 Z " fill="#EA5D57" transform="translate(324.5,289.6875)"/>
<path d="M0 0 C2.33294775 -0.04241723 4.66702567 -0.04092937 7 0 C8.81115956 1.81115956 8.38199448 4.61278227 8.5625 7.0625 C8.64628906 8.16722656 8.73007812 9.27195312 8.81640625 10.41015625 C8.87699219 11.26480469 8.93757813 12.11945313 9 13 C7.35425434 13.02688151 5.70838587 13.04634123 4.0625 13.0625 C3.14597656 13.07410156 2.22945313 13.08570313 1.28515625 13.09765625 C-1 13 -1 13 -2 12 C-2.04063832 10.33382885 -2.042721 8.66611905 -2 7 C0.64738916 5.5393715 1.89448334 5 5 5 C5 4.01 5 3.02 5 2 C4.401875 2.33 3.80375 2.66 3.1875 3 C1 4 1 4 -2 4 C-1.34 2.68 -0.68 1.36 0 0 Z " fill="#E42729" transform="translate(392,290)"/>
<path d="M0 0 C0.99 0 1.98 0 3 0 C3 1.98 3 3.96 3 6 C4.134375 5.814375 5.26875 5.62875 6.4375 5.4375 C8.2009375 5.2209375 8.2009375 5.2209375 10 5 C11 6 11 6 11.09765625 8.72265625 C11.08605469 9.82480469 11.07445312 10.92695313 11.0625 12.0625 C11.05347656 13.16722656 11.04445313 14.27195312 11.03515625 15.41015625 C11.02355469 16.26480469 11.01195312 17.11945313 11 18 C10.01 18 9.02 18 8 18 C7.67 14.7 7.34 11.4 7 8 C6.01 8.33 5.02 8.66 4 9 C3.67 11.97 3.34 14.94 3 18 C2.01 18 1.02 18 0 18 C0 12.06 0 6.12 0 0 Z " fill="#E32326" transform="translate(290,285)"/>
<path d="M0 0 C1.32 0 2.64 0 4 0 C4 4.95 4 9.9 4 15 C6.64 15 9.28 15 12 15 C12 15.99 12 16.98 12 18 C8.04 18 4.08 18 0 18 C0 12.06 0 6.12 0 0 Z " fill="#E53131" transform="translate(353,285)"/>
<path d="M0 0 C0.66 1.32 1.32 2.64 2 4 C-0.31 3.67 -2.62 3.34 -5 3 C-5.33 5.31 -5.66 7.62 -6 10 C-4.68 10 -3.36 10 -2 10 C-2 9.34 -2 8.68 -2 8 C-0.68 8 0.64 8 2 8 C1.625 9.9375 1.625 9.9375 1 12 C-1.82883747 13.41441874 -3.87376745 13.31900332 -7 13 C-9.59814888 10.74827097 -9.95716454 9.34982295 -10.375 5.9375 C-10 3 -10 3 -8.9375 1.125 C-5.99772876 -0.58196395 -3.32129197 -0.18799766 0 0 Z " fill="#E73E38" transform="translate(342,290)"/>
<path d="M0 0 C0.33 0 0.66 0 1 0 C1 1.65 1 3.3 1 5 C1.66 5 2.32 5 3 5 C3 5.99 3 6.98 3 8 C2.34 8 1.68 8 1 8 C1 10.31 1 12.62 1 15 C1.66 15 2.32 15 3 15 C3 15.99 3 16.98 3 18 C1.35 18 -0.3 18 -2 18 C-2.33692785 16.39658445 -2.66941093 14.79223445 -3 13.1875 C-3.185625 12.29417969 -3.37125 11.40085937 -3.5625 10.48046875 C-4 8 -4 8 -4 5 C-3.34 5 -2.68 5 -2 5 C-1.7834375 4.0409375 -1.7834375 4.0409375 -1.5625 3.0625 C-1 1 -1 1 0 0 Z " fill="#E63C37" transform="translate(314,285)"/>
<path d="M0 0 C0.66 0 1.32 0 2 0 C2 1.32 2 2.64 2 4 C2.66 4 3.32 4 4 4 C4 4.66 4 5.32 4 6 C3.34 6 2.68 6 2 6 C2 8.64 2 11.28 2 14 C2.66 14 3.32 14 4 14 C4 14.99 4 15.98 4 17 C2.35 16.67 0.7 16.34 -1 16 C-1 12.7 -1 9.4 -1 6 C-1.66 6 -2.32 6 -3 6 C-3 5.34 -3 4.68 -3 4 C-2.34 4 -1.68 4 -1 4 C-0.67 2.68 -0.34 1.36 0 0 Z " fill="#E32326" transform="translate(369,286)"/>
<path d="M0 0 C0.99 0 1.98 0 3 0 C3 5.94 3 11.88 3 18 C1.35 17.67 -0.3 17.34 -2 17 C-1.855625 15.865625 -1.71125 14.73125 -1.5625 13.5625 C-0.99698633 9.04646944 -0.49225191 4.52452819 0 0 Z " fill="#E32125" transform="translate(384,285)"/>
<path d="M0 0 C0.33 1.32 0.66 2.64 1 4 C2.32 4.33 3.64 4.66 5 5 C3.68 5 2.36 5 1 5 C1.33 5.99 1.66 6.98 2 8 C2.99 8.33 3.98 8.66 5 9 C5 8.34 5 7.68 5 7 C6.32 7 7.64 7 9 7 C8.34 8.32 7.68 9.64 7 11 C3.625 11.125 3.625 11.125 0 11 C-2 9 -2 9 -2.25 5.5 C-2 2 -2 2 0 0 Z " fill="#E42D2D" transform="translate(321,292)"/>
<path d="M0 0 C0.33 0 0.66 0 1 0 C1 2.64 1 5.28 1 8 C4.19902639 8.08886184 6.92677456 7.91058531 10 7 C10 7.99 10 8.98 10 10 C9.05125 10.2475 8.1025 10.495 7.125 10.75 C3.9323374 11.67029859 3.9323374 11.67029859 2.75 14 C2.5025 14.66 2.255 15.32 2 16 C1.34 16.66 0.68 17.32 0 18 C0 12.06 0 6.12 0 0 Z " fill="#FBE5DC" transform="translate(387,285)"/>
<path d="M0 0 C6.38603223 0.4819647 6.38603223 0.4819647 9 2.6875 C10.33721014 5.77979844 9.80305964 7.78776145 9 11 C7.68 10.34 6.36 9.68 5 9 C5.33 7.02 5.66 5.04 6 3 C3.69 2.67 1.38 2.34 -1 2 C-0.67 1.34 -0.34 0.68 0 0 Z " fill="#E4E4E4" transform="translate(385,211)"/>
<path d="M0 0 C1.32 0.66 2.64 1.32 4 2 C4 3.65 4 5.3 4 7 C2.34385343 7.38218767 0.67542976 7.71395102 -1 8 C-2 7 -2 7 -2.1875 4.5625 C-2 2 -2 2 0 0 Z " fill="#FBE8E1" transform="translate(380,292)"/>
<path d="M0 0 C0.99 0 1.98 0 3 0 C3 4.29 3 8.58 3 13 C2.01 13 1.02 13 0 13 C0 8.71 0 4.42 0 0 Z " fill="#E31E24" transform="translate(305,290)"/>
<path d="M0 0 C2 2 2 2 2.265625 4.09375 C2.26046875 4.8878125 2.2553125 5.681875 2.25 6.5 C2.25515625 7.2940625 2.2603125 8.088125 2.265625 8.90625 C2 11 2 11 0 13 C0 12.01 0 11.02 0 10 C-0.66 10 -1.32 10 -2 10 C-2 7.36 -2 4.72 -2 2 C-1.34 2 -0.68 2 0 2 C0 1.34 0 0.68 0 0 Z " fill="#FBE9E2" transform="translate(373,290)"/>
<path d="M0 0 C-0.33 1.32 -0.66 2.64 -1 4 C-2.8125 4.625 -2.8125 4.625 -5 5 C-5.99 4.34 -6.98 3.68 -8 3 C-7.67 2.01 -7.34 1.02 -7 0 C-3.86650268 -1.04449911 -3.01031744 -0.93423645 0 0 Z " fill="#EF807A" transform="translate(398,296)"/>
<path d="M0 0 C2.31 0 4.62 0 7 0 C7.66 1.32 8.32 2.64 9 4 C7.39125 3.7215625 7.39125 3.7215625 5.75 3.4375 C2.59608454 3.0695432 0.90181508 2.95534657 -2 4 C-1.34 2.68 -0.68 1.36 0 0 Z " fill="#E5302E" transform="translate(335,290)"/>
<path d="M0 0 C2.88575819 0.39803561 3.82189513 0.79009069 5.75 3.0625 C6.1625 3.701875 6.575 4.34125 7 5 C4.125 5.625 4.125 5.625 1 6 C0.34 5.34 -0.32 4.68 -1 4 C-0.625 1.875 -0.625 1.875 0 0 Z " fill="#DADADA" transform="translate(385,219)"/>
<path d="M0 0 C2.64 0 5.28 0 8 0 C6.02 0.99 6.02 0.99 4 2 C4 2.66 4 3.32 4 4 C2.68 3.67 1.36 3.34 0 3 C0 2.01 0 1.02 0 0 Z " fill="#F8CABA" transform="translate(322,297)"/>
<path d="M0 0 C0.99 0.33 1.98 0.66 3 1 C0.42215154 3.64752004 -1.91648098 5.94432065 -5 8 C-4.66275164 4.88045262 -4.3790035 3.3790035 -2.125 1.125 C-1.42375 0.75375 -0.7225 0.3825 0 0 Z " fill="#3F3F3E" transform="translate(384,209)"/>
</svg>
