<?xml version="1.0" encoding="UTF-8"?>
<svg version="1.1" xmlns="http://www.w3.org/2000/svg" width="610" height="334">
<path d="M0 0 C0.99 1.485 0.99 1.485 2 3 C-1.59829377 6.95948614 -5.14595079 9.40320559 -10 11.6875 C-11.02637573 12.18842163 -11.02637573 12.18842163 -12.07348633 12.69946289 C-16.11198752 14.66012267 -20.18239007 16.54793106 -24.26171875 18.421875 C-34.56645229 23.18198148 -44.00656138 28.02907381 -53 35 C-53.72574219 35.53238281 -54.45148437 36.06476563 -55.19921875 36.61328125 C-60.17769158 40.48542679 -63.30887741 44.93163921 -64.37890625 51.23046875 C-64.76889313 58.53957768 -61.99398375 64.0211406 -57.25 69.4375 C-37.94636421 87.43241472 -6.53198451 93.86700387 18 100 C18.33 70.63 18.66 41.26 19 11 C33.52 11 48.04 11 63 11 C63 43.01 63 75.02 63 108 C70.79625 108.78375 78.5925 109.5675 86.625 110.375 C88.99381348 110.61782715 91.36262695 110.8606543 93.80322266 111.11083984 C126.92423142 114.42158257 160.02701352 115.38353189 193.29730225 115.31785583 C196.1773695 115.31240081 199.05742849 115.31004364 201.9375 115.3079834 C232.38410818 115.27409576 262.64752792 114.57255877 293 112 C294.7857933 111.85383288 296.57160051 111.70783556 298.35742188 111.56201172 C375.865025 105.31286732 375.865025 105.31286732 447.9375 78.8125 C459.35872217 72.50171023 459.35872217 72.50171023 467 74 C465.86972435 83.53142902 455.51074785 90.82250582 448.4609375 96.49609375 C428.25849437 111.55085554 403.10676036 118.9650201 379 125 C377.9702002 125.2587793 376.94040039 125.51755859 375.87939453 125.78417969 C337.00049959 135.36875963 296.81833372 139.87726129 256.9375 142.6875 C255.64919785 142.77890762 255.64919785 142.77890762 254.33486938 142.87216187 C229.25569735 144.62327266 204.19929895 145.20687065 179.0625 145.1875 C178.37014378 145.18738041 177.67778755 145.18726082 176.96445084 145.1871376 C93.8452984 145.16905968 93.8452984 145.16905968 63 139 C63 156.16 63 173.32 63 191 C48.48 191 33.96 191 19 191 C19 171.86 19 152.72 19 133 C11.74 131.68 4.48 130.36 -3 129 C-7.6760354 127.97229991 -12.30266919 126.92700494 -16.9375 125.75 C-18.10571289 125.45407959 -19.27392578 125.15815918 -20.47753906 124.85327148 C-49.7450015 117.24238032 -81.45291727 105.47483468 -100 80 C-105.40344968 70.72340093 -107.87679324 61.99333023 -105.3515625 51.23828125 C-99.55491058 35.45850657 -85.28932281 25.80633635 -70.61328125 19.00390625 C-22.91914584 -2.12214313 -22.91914584 -2.12214313 0 0 Z " fill="#006EB6" transform="translate(113,80)"/>
<path d="M0 0 C1.15745728 -0.00857025 2.31491455 -0.0171405 3.50744629 -0.02597046 C5.95171494 -0.03744329 8.39605187 -0.03846764 10.84033203 -0.02978516 C14.58093483 -0.02345917 18.31838149 -0.0704107 22.05859375 -0.12109375 C24.43489184 -0.12563937 26.81119844 -0.1270469 29.1875 -0.125 C30.3053186 -0.14341949 31.42313721 -0.16183899 32.5748291 -0.18081665 C40.11290325 -0.09091848 40.11290325 -0.09091848 42.90551758 1.88067627 C47.2389167 6.87497475 47.23229509 11.72585001 47.19140625 17.98828125 C47.19039917 18.71261353 47.18939209 19.4369458 47.18835449 20.18322754 C47.18312826 22.88518866 47.16916698 25.5871272 47.15625 28.2890625 C47.135625 34.3321875 47.115 40.3753125 47.09375 46.6015625 C33.23375 46.9315625 19.37375 47.2615625 5.09375 47.6015625 C5.75375 51.8915625 6.41375 56.1815625 7.09375 60.6015625 C11.0314407 60.65604246 14.96836035 60.69546805 18.90625 60.7265625 C20.00646484 60.74332031 21.10667969 60.76007813 22.24023438 60.77734375 C30.44476506 60.82574806 38.27097875 60.20915292 46.09375 57.6015625 C46.12154013 59.08061482 46.14048956 60.55983308 46.15625 62.0390625 C46.16785156 62.86277344 46.17945313 63.68648437 46.19140625 64.53515625 C46.1078116 67.16002826 45.88640016 69.68712977 45.58764648 72.29321289 C45.49571518 73.10085587 45.40378387 73.90849884 45.30906677 74.74061584 C45.20248497 75.66178444 45.20248497 75.66178444 45.09375 76.6015625 C37.48765612 76.71755797 29.88165426 76.80632887 22.27487659 76.86062336 C18.74242155 76.88668638 15.21057287 76.92202116 11.6784668 76.97875977 C7.61501339 77.04362314 3.55219402 77.06776982 -0.51171875 77.08984375 C-1.7764653 77.11565018 -3.04121185 77.1414566 -4.34428406 77.16804504 C-12.97714239 77.17080598 -12.97714239 77.17080598 -17.1184082 74.63354492 C-21.54567202 67.12539398 -21.16873993 59.05012163 -20.98828125 50.55859375 C-20.97037033 49.43136398 -20.95245941 48.30413422 -20.93400574 47.14274597 C-20.89301797 44.77353013 -20.84648305 42.40440439 -20.79467773 40.03540039 C-20.71876835 36.41493784 -20.66991276 32.79476962 -20.62304688 29.17382812 C-20.5797589 26.86455213 -20.53489135 24.55530508 -20.48828125 22.24609375 C-20.47561722 21.16785843 -20.46295319 20.08962311 -20.4499054 18.97871399 C-20.27115459 12.09020721 -19.4726887 7.68838211 -14.96289062 2.26416016 C-10.14476354 -0.35656232 -5.40077467 -0.00880699 0 0 Z M6.09375 16.6015625 C5.76375 21.2215625 5.43375 25.8415625 5.09375 30.6015625 C11.69375 30.6015625 18.29375 30.6015625 25.09375 30.6015625 C25.196875 28.5184375 25.3 26.4353125 25.40625 24.2890625 C25.46425781 23.11730469 25.52226562 21.94554687 25.58203125 20.73828125 C25.42393013 17.45291655 25.42393013 17.45291655 22.8203125 15.703125 C16.64070001 13.20649073 12.21706196 14.56045851 6.09375 16.6015625 Z " fill="#2B2A29" transform="translate(375.90625,84.3984375)"/>
<path d="M0 0 C1.72221268 -0.02409439 1.72221268 -0.02409439 3.47921753 -0.04867554 C8.72733824 -0.09300912 13.97537139 -0.13462196 19.22363281 -0.15722656 C21.99610336 -0.17057296 24.76783907 -0.19843734 27.54003906 -0.23925781 C31.52813806 -0.29798174 35.51587787 -0.31587672 39.50439453 -0.33056641 C40.74615448 -0.35323578 41.98791443 -0.37590515 43.26730347 -0.39926147 C44.99897263 -0.39498642 44.99897263 -0.39498642 46.765625 -0.390625 C47.78107391 -0.39871185 48.79652283 -0.40679871 49.84274292 -0.41513062 C53.49904618 0.41763527 54.51539074 2.10942211 56.51220703 5.19287109 C59.25617309 13.15296131 58.67627844 21.90726481 58.51220703 30.19287109 C49.93220703 30.19287109 41.35220703 30.19287109 32.51220703 30.19287109 C32.18220703 26.89287109 31.85220703 23.59287109 31.51220703 20.19287109 C29.74996867 16.79854639 29.74996867 16.79854639 25.82470703 16.38037109 C21.74067271 15.8156449 18.41771148 17.03382 14.51220703 18.19287109 C14.48756065 24.01358732 14.46937273 29.83427344 14.45727539 35.6550293 C14.45223436 37.63680551 14.44540165 39.61857798 14.43676758 41.6003418 C14.42469188 44.44239218 14.41897658 47.28439357 14.41455078 50.12646484 C14.4093895 51.01812851 14.40422821 51.90979218 14.39891052 52.82847595 C14.39871527 54.95027711 14.45010673 57.07197889 14.51220703 59.19287109 C15.62347362 60.53188901 15.62347362 60.53188901 18.45361328 60.29052734 C19.64857422 60.27892578 20.84353516 60.26732422 22.07470703 60.25537109 C23.27224609 60.24634766 24.46978516 60.23732422 25.70361328 60.22802734 C27.09386719 60.210625 27.09386719 60.210625 28.51220703 60.19287109 C30.53340047 54.93776815 30.85080425 51.14549615 31.51220703 45.19287109 C40.42220703 45.19287109 49.33220703 45.19287109 58.51220703 45.19287109 C58.51220703 67.06787109 58.51220703 67.06787109 52.51220703 74.19287109 C49.98880108 76.71627704 49.13157031 76.44955221 45.63867188 76.4675293 C44.62356537 76.47706131 43.60845886 76.48659332 42.56259155 76.49641418 C41.46057404 76.49550278 40.35855652 76.49459137 39.22314453 76.49365234 C37.52455795 76.50008003 37.52455795 76.50008003 35.79165649 76.50663757 C33.38910593 76.51239123 30.98653793 76.51287356 28.58398438 76.50854492 C24.92303249 76.50540185 21.26290166 76.52877321 17.60205078 76.55419922 C15.26741638 76.55647391 12.93277981 76.55717492 10.59814453 76.55615234 C9.5082724 76.56536209 8.41840027 76.57457184 7.29550171 76.58406067 C0.48640436 76.54304361 -6.3230567 76.35760736 -11.42529297 71.25537109 C-13.27369396 67.66729858 -13.61470299 64.40274107 -13.63305664 60.39941406 C-13.63943649 59.45097626 -13.64581635 58.50253845 -13.65238953 57.52536011 C-13.65350235 56.50556061 -13.65461517 55.48576111 -13.65576172 54.43505859 C-13.65909012 53.37682892 -13.66241852 52.31859924 -13.66584778 51.228302 C-13.67090992 48.98732945 -13.67325632 46.74634936 -13.6730957 44.50537109 C-13.67527141 41.10159604 -13.69340508 37.69815086 -13.71240234 34.29443359 C-13.71533868 32.11214303 -13.71732187 29.92985093 -13.71826172 27.74755859 C-13.72544724 26.73990448 -13.73263275 25.73225037 -13.74003601 24.69406128 C-13.71637568 17.25480433 -13.65158818 9.50618251 -9.48779297 3.13037109 C-6.30045294 0.04263544 -4.34040416 0.05505643 0 0 Z " fill="#2B2A29" transform="translate(443.48779296875,84.80712890625)"/>
<path d="M0 0 C201.3 0 402.6 0 610 0 C610 1.98 610 3.96 610 6 C408.7 6 207.4 6 0 6 C0 4.02 0 2.04 0 0 Z " fill="#006EB6" transform="translate(0,277)"/>
<path d="M0 0 C9.24 0 18.48 0 28 0 C27.67 4.95 27.34 9.9 27 15 C31.95 15 36.9 15 42 15 C42 20.28 42 25.56 42 31 C37.05 31 32.1 31 27 31 C27 44.86 27 58.72 27 73 C34.48971023 73.72684178 34.48971023 73.72684178 42 74 C42 79.28 42 84.56 42 90 C35.27457515 90.76861998 28.57732649 91.1785154 21.8125 91.3125 C21.06500488 91.34214844 20.31750977 91.37179688 19.54736328 91.40234375 C13.95384519 91.46152137 9.64682722 90.17772242 5 87 C1.084994 81.82208885 0.85095883 77.03437896 0.8671875 70.74609375 C0.86623077 69.93060562 0.86527405 69.11511749 0.86428833 68.2749176 C0.86360762 66.54582645 0.86545431 64.81673273 0.86962891 63.08764648 C0.87493052 60.47178205 0.86970539 57.85609312 0.86328125 55.24023438 C0.86035701 47.0941814 0.94769191 39.09275029 2 31 C-1.96 31 -5.92 31 -10 31 C-10 25.72 -10 20.44 -10 15 C-4.555 14.505 -4.555 14.505 1 14 C1.020625 12.618125 1.04125 11.23625 1.0625 9.8125 C1.07410156 9.03519531 1.08570313 8.25789063 1.09765625 7.45703125 C1.04662335 4.55270381 1.04662335 4.55270381 0 0 Z " fill="#2B2A29" transform="translate(306,70)"/>
<path d="M0 0 C14.52 0 29.04 0 44 0 C44 20.79 44 41.58 44 63 C33.88457523 63 24.58998955 62.87590855 14.6875 61.5625 C13.59244141 61.42779297 12.49738281 61.29308594 11.36914062 61.15429688 C3.46949405 60.15649802 3.46949405 60.15649802 0 59 C0 39.53 0 20.06 0 0 Z " fill="#006EB6" transform="translate(196,126)"/>
<path d="M0 0 C8.91 0 17.82 0 27 0 C27.495 37.62 27.495 37.62 28 76 C18.76 76 9.52 76 0 76 C0.33 74.35 0.66 72.7 1 71 C1.10606634 69.54188193 1.17411303 68.08053404 1.20532227 66.61889648 C1.22526749 65.78289413 1.24521271 64.94689178 1.26576233 64.08555603 C1.28247482 63.18978348 1.29918732 62.29401093 1.31640625 61.37109375 C1.3475779 59.95462303 1.3475779 59.95462303 1.37937927 58.50953674 C1.42258587 56.50485586 1.46363479 54.50012747 1.50268555 52.49536133 C1.56127677 49.5000347 1.62669019 46.50492211 1.69335938 43.50976562 C1.79852524 38.6312911 1.88513857 33.75278994 1.95733643 28.87371826 C1.98581806 26.95526213 2.01687173 25.03684248 2.05047607 23.11846924 C2.09557369 20.38237034 2.12615391 17.64649396 2.15234375 14.91015625 C2.16745499 14.09703476 2.18256622 13.28391327 2.19813538 12.44615173 C2.20227951 11.68411942 2.20642365 10.9220871 2.21069336 10.13696289 C2.21838242 9.4796669 2.22607147 8.82237091 2.23399353 8.14515686 C1.99942799 5.29331402 1.99942799 5.29331402 0 0 Z " fill="#2B2A29" transform="translate(262,85)"/>
<path d="M0 0 C14.68289061 0.80823251 29.33620214 1.8946886 44 3 C44 12.24 44 21.48 44 31 C29.48 31 14.96 31 0 31 C0 20.77 0 10.54 0 0 Z " fill="#006EB6" transform="translate(196,226)"/>
<path d="M0 0 C0.66 0 1.32 0 2 0 C2.83857688 2.60258324 3.67103344 5.20685647 4.5 7.8125 C4.73847656 8.55048828 4.97695313 9.28847656 5.22265625 10.04882812 C6.19940136 13.13255196 7 15.74495809 7 19 C13.93 19 20.86 19 28 19 C24.48022006 22.51977994 21.68948416 25.09115077 17.6875 27.8125 C16.80449219 28.41707031 15.92148437 29.02164063 15.01171875 29.64453125 C14.34785156 30.09183594 13.68398438 30.53914063 13 31 C14.43609983 37.73862227 16.14008287 44.36629557 18 51 C12.71636853 49.20050233 9.00142495 45.97307088 4.71875 42.484375 C2.13539403 40.69423805 2.13539403 40.69423805 -0.48046875 41.5078125 C-3.39227103 43.23232176 -6.10074029 45.09934817 -8.8125 47.125 C-9.78832031 47.84945312 -10.76414062 48.57390625 -11.76953125 49.3203125 C-12.87361328 50.15175781 -12.87361328 50.15175781 -14 51 C-14.66 50.67 -15.32 50.34 -16 50 C-15.6390625 48.87980469 -15.278125 47.75960937 -14.90625 46.60546875 C-14.4372741 45.13288442 -13.9685365 43.66022419 -13.5 42.1875 C-13.26152344 41.44951172 -13.02304687 40.71152344 -12.77734375 39.95117188 C-11.80059864 36.86744804 -11 34.25504191 -11 31 C-13.27934704 29.18534565 -15.52227338 27.54999824 -17.9375 25.9375 C-24.88414634 21.23170732 -24.88414634 21.23170732 -26 19 C-19.07 19 -12.14 19 -5 19 C-4.34 16.03 -3.68 13.06 -3 10 C-2.48312351 8.13877043 -1.94672708 6.28261922 -1.375 4.4375 C-1.11460937 3.59058594 -0.85421875 2.74367188 -0.5859375 1.87109375 C-0.39257812 1.25363281 -0.19921875 0.63617187 0 0 Z " fill="#E31E24" transform="translate(495,4)"/>
<path d="M0 0 C2 1 2 1 3.2890625 4.2734375 C3.74216125 5.63806434 4.18713794 7.0054082 4.625 8.375 C4.96917969 9.40367188 4.96917969 9.40367188 5.3203125 10.453125 C6.28795001 13.413635 7 15.86608457 7 19 C7.68964844 18.9278125 8.37929688 18.855625 9.08984375 18.78125 C15.09588659 18.18806058 20.9657 17.90107705 27 18 C25.91999975 21.24000075 25.50216138 21.6336358 22.83984375 23.48046875 C22.21142578 23.92197266 21.58300781 24.36347656 20.93554688 24.81835938 C19.94651367 25.49608398 19.94651367 25.49608398 18.9375 26.1875 C18.27427734 26.65091797 17.61105469 27.11433594 16.92773438 27.59179688 C15.28992495 28.73472863 13.64557103 29.8682718 12 31 C12.54140625 32.68029297 12.54140625 32.68029297 13.09375 34.39453125 C13.5627259 35.86711558 14.0314635 37.33977581 14.5 38.8125 C14.73847656 39.55048828 14.97695313 40.28847656 15.22265625 41.04882812 C16.19940136 44.13255196 17 46.74495809 17 50 C12.35622999 47.94581468 8.68015535 44.65158567 4.75390625 41.484375 C2.13776806 39.69476665 2.13776806 39.69476665 -0.4921875 40.5078125 C-3.37173291 42.22118687 -6.02101607 44.09512547 -8.6875 46.125 C-13.78291815 50 -13.78291815 50 -16 50 C-15.54321462 48.14545138 -15.0844894 46.29138051 -14.625 44.4375 C-14.36976563 43.40496094 -14.11453125 42.37242188 -13.8515625 41.30859375 C-12.96182434 37.85167532 -11.99427833 34.42809877 -11 31 C-11.45439453 30.67725098 -11.90878906 30.35450195 -12.37695312 30.02197266 C-14.42288345 28.56306695 -16.46146277 27.09421602 -18.5 25.625 C-19.21542969 25.11710937 -19.93085938 24.60921875 -20.66796875 24.0859375 C-21.34472656 23.59609375 -22.02148438 23.10625 -22.71875 22.6015625 C-23.34716797 22.15119629 -23.97558594 21.70083008 -24.62304688 21.23681641 C-25.07744141 20.82866699 -25.53183594 20.42051758 -26 20 C-26 19.34 -26 18.68 -26 18 C-19.26257354 17.88955039 -12.70019789 18.29867087 -6 19 C-5.81824219 18.29875 -5.63648438 17.5975 -5.44921875 16.875 C-3.92000933 11.10321471 -2.19945637 5.55100893 0 0 Z " fill="#E31E24" transform="translate(415,3)"/>
<path d="M0 0 C0.66 0 1.32 0 2 0 C2.83887056 2.43572059 3.67126529 4.87333217 4.5 7.3125 C4.85771484 8.34793945 4.85771484 8.34793945 5.22265625 9.40429688 C6.23208263 12.38931489 7 14.82658914 7 18 C13.6 18 20.2 18 27 18 C27 18.66 27 19.32 27 20 C24.69833213 21.79083852 22.39761099 23.47259242 20 25.125 C19.33226562 25.59292969 18.66453125 26.06085937 17.9765625 26.54296875 C16.32185734 27.70126236 14.66144693 28.85139765 13 30 C13.61898993 34.98226208 14.67440832 39.23253159 16.4765625 43.88671875 C17 46 17 46 16 50 C11.05 46.37 6.1 42.74 1 39 C-4.40582812 42.57616322 -9.74855137 46.20107972 -15 50 C-16 48 -16 48 -15.00390625 44.62890625 C-14.5307872 43.27085466 -14.04997468 41.91546496 -13.5625 40.5625 C-11.64520717 35.41656146 -11.64520717 35.41656146 -11 30 C-13.27934704 28.18534565 -15.52227338 26.54999824 -17.9375 24.9375 C-24.88414634 20.23170732 -24.88414634 20.23170732 -26 18 C-16.1 17.505 -16.1 17.505 -6 17 C-4.02 11.39 -2.04 5.78 0 0 Z " fill="#E31E24" transform="translate(254,0)"/>
<path d="M0 0 C2.85885097 2.85885097 3.5011577 6.34331169 4.625 10.125 C5.40875 12.72375 6.1925 15.3225 7 18 C13.6 18.33 20.2 18.66 27 19 C23.48022006 22.51977994 20.68948416 25.09115077 16.6875 27.8125 C15.80449219 28.41707031 14.92148437 29.02164062 14.01171875 29.64453125 C13.34785156 30.09183594 12.68398438 30.53914063 12 31 C12.29003906 32.051875 12.29003906 32.051875 12.5859375 33.125 C14.125617 38.73492134 15.61417657 44.35010447 17 50 C12.84848662 48.55797524 9.70021555 46.4989562 6.1875 43.875 C5.21167969 43.15054688 4.23585938 42.42609375 3.23046875 41.6796875 C2.49441406 41.12539063 1.75835937 40.57109375 1 40 C-3.78527393 42.59202338 -8.03696349 45.44387672 -12.30078125 48.828125 C-14 50 -14 50 -16 50 C-14.56390017 43.26137773 -12.85991713 36.63370443 -11 30 C-11.71542969 29.75378906 -12.43085938 29.50757812 -13.16796875 29.25390625 C-16.32994926 27.85391212 -18.63725072 26.12129608 -21.3125 23.9375 C-22.19550781 23.22464844 -23.07851563 22.51179688 -23.98828125 21.77734375 C-24.65214844 21.19082031 -25.31601562 20.60429687 -26 20 C-26 19.67 -26 19.34 -26 19 C-19.4 19 -12.8 19 -6 19 C-5.34 16.03 -4.68 13.06 -4 10 C-3.34589586 8.1260155 -2.64754077 6.26584649 -1.875 4.4375 C-1.52179688 3.59058594 -1.16859375 2.74367187 -0.8046875 1.87109375 C-0.53914063 1.25363281 -0.27359375 0.63617187 0 0 Z " fill="#E31E24" transform="translate(335,1)"/>
<path d="M0 0 C1.875 1.5625 1.875 1.5625 3 4 C3.23407276 6.72044561 3.13705174 9.25896515 3 12 C3.99 11.34 4.98 10.68 6 10 C5.773125 9.278125 5.54625 8.55625 5.3125 7.8125 C5 5 5 5 6.0625 2.25 C8 0 8 0 11 -0.875 C14 -1 14 -1 17 0 C18.1875 3.0625 18.1875 3.0625 19 6 C18.01 6.66 17.02 7.32 16 8 C16.66 8.66 17.32 9.32 18 10 C18.46382725 13.55600891 18.42769679 15.34990088 16.4375 18.375 C13.02544071 20.64970619 11.02388226 20.63534983 7 20 C4.0625 17.5 4.0625 17.5 2 15 C1.2265625 16.2375 1.2265625 16.2375 0.4375 17.5 C-2 20 -2 20 -5.5625 20.5 C-9 20 -9 20 -10.875 19 C-13.07582776 15.08741732 -13.44227214 11.08708588 -12.52734375 6.76953125 C-11.50771815 3.71065446 -10.65176414 1.56186564 -8.1875 -0.5625 C-5.11846319 -1.17630736 -2.99731785 -0.89281808 0 0 Z M-5 5 C-6.66846734 6.69495956 -6.66846734 6.69495956 -8 9 C-7.77802187 11.6984589 -7.77802187 11.6984589 -7 14 C-4.24358584 13.50243908 -4.24358584 13.50243908 -2 12 C-1.95919217 10.00041636 -1.95745644 7.99954746 -2 6 C-2.99 5.67 -3.98 5.34 -5 5 Z M10 5 C11.98 5.99 11.98 5.99 14 7 C13.67 6.34 13.34 5.68 13 5 C12.01 5 11.02 5 10 5 Z M8 11 C8.33 11.99 8.66 12.98 9 14 C10.32 13.67 11.64 13.34 13 13 C10.525 12.01 10.525 12.01 8 11 Z " fill="#006FB7" transform="translate(108,306)"/>
<path d="M0 0 C1.4540625 0.0309375 1.4540625 0.0309375 2.9375 0.0625 C3.5975 3.6925 4.2575 7.3225 4.9375 11.0625 C6.2575 7.4325 7.5775 3.8025 8.9375 0.0625 C11.2475 0.0625 13.5575 0.0625 15.9375 0.0625 C15.29628726 9.12384845 14.20269458 18.07102005 12.9375 27.0625 C11.2875 27.0625 9.6375 27.0625 7.9375 27.0625 C7.9375 24.4225 7.9375 21.7825 7.9375 19.0625 C6.9475 21.7025 5.9575 24.3425 4.9375 27.0625 C3.2875 27.0625 1.6375 27.0625 -0.0625 27.0625 C-0.3925 23.4325 -0.7225 19.8025 -1.0625 16.0625 C-1.7225 19.6925 -2.3825 23.3225 -3.0625 27.0625 C-4.7125 27.0625 -6.3625 27.0625 -8.0625 27.0625 C-7.42331301 22.74898722 -6.77504479 18.43688877 -6.125 14.125 C-5.85139648 12.27745117 -5.85139648 12.27745117 -5.57226562 10.39257812 C-5.39501953 9.22275391 -5.21777344 8.05292969 -5.03515625 6.84765625 C-4.79164429 5.22162476 -4.79164429 5.22162476 -4.54321289 3.56274414 C-3.84453478 -0.07116268 -3.80779375 0.07771008 0 0 Z M8.9375 13.0625 C9.9375 15.0625 9.9375 15.0625 9.9375 15.0625 Z " fill="#006FB7" transform="translate(280.0625,298.9375)"/>
<path d="M0 0 C3.76266417 1.77871397 5.51796464 3.33137031 7.9375 6.6875 C9.34975785 11.09042153 9.31415697 14.56669938 8 19 C5.96757487 22.50922325 3.93079881 24.68973373 0 26 C-4.30451937 26.5945053 -8.30445244 26.96192644 -12.17578125 24.765625 C-15.13824625 22.28770396 -16.76081568 20.71755296 -18 17 C-18.50171564 10.87906919 -18.08833623 7.8832905 -14 3 C-9.64690293 -0.89000163 -5.60592788 -0.78819523 0 0 Z M-10 5 C-9.36191406 5.06058594 -8.72382812 5.12117187 -8.06640625 5.18359375 C-7.24011719 5.26738281 -6.41382813 5.35117188 -5.5625 5.4375 C-4.32693359 5.55931641 -4.32693359 5.55931641 -3.06640625 5.68359375 C-1 6 -1 6 0 7 C0.14068352 9.60264504 0.1458221 11.59898923 -0.75 14.0625 C-0.87375 15.0215625 -0.87375 15.0215625 -1 16 C0.85432087 18.27144074 0.85432087 18.27144074 3 20 C5.45899354 16.31150969 5.80114533 13.28112038 5 9 C2.39207726 5.2856858 0.7734254 4.20002381 -3.625 3.0625 C-7.13271366 2.67680131 -7.13271366 2.67680131 -10 5 Z M-12 6 C-14.22095188 8.90432169 -15.02297746 10.42556348 -14.875 14.125 C-14.14828431 17.32230392 -14.14828431 17.32230392 -11 20 C-11 15.38 -11 10.76 -11 6 C-11.33 6 -11.66 6 -12 6 Z M-8 9 C-8 9.66 -8 10.32 -8 11 C-6.35 11 -4.7 11 -3 11 C-3 10.34 -3 9.68 -3 9 C-4.65 9 -6.3 9 -8 9 Z M-8 15 C-8 16.65 -8 18.3 -8 20 C-8.99 20.33 -9.98 20.66 -11 21 C-7.51131349 23.32579101 -6.10281481 23.41865457 -2 23 C0.34261608 21.62073227 0.34261608 21.62073227 2 20 C1.21625 19.731875 0.4325 19.46375 -0.375 19.1875 C-3 18 -3 18 -5 15 C-5.99 15 -6.98 15 -8 15 Z " fill="#2B2A29" transform="translate(537,132)"/>
<path d="M0 0 C7 0 7 0 8.9375 0.5 C12.49647761 1.36278245 15.48435671 0.76013909 19 0 C21.45059196 3.1789795 22.0118944 4.68978125 21.85546875 8.76953125 C21.65123605 10.12010231 21.4281068 11.46793258 21.1875 12.8125 C21.02411133 13.85180664 21.02411133 13.85180664 20.85742188 14.91210938 C20.5879823 16.61075014 20.29621456 18.30582319 20 20 C18.35 20.33 16.7 20.66 15 21 C15.33 16.38 15.66 11.76 16 7 C12.71568547 10.28431453 12.4856148 11.28636475 11.8125 15.6875 C11.65394531 16.68136719 11.49539063 17.67523438 11.33203125 18.69921875 C11.22246094 19.45847656 11.11289062 20.21773438 11 21 C9.35 21 7.7 21 6 21 C6.96355353 10.44191344 6.96355353 10.44191344 8 6 C4.12003565 8.5866429 4.23372587 10.15047436 3.3125 14.625 C3.06113281 15.81351562 2.80976563 17.00203125 2.55078125 18.2265625 C2.36902344 19.14179688 2.18726563 20.05703125 2 21 C0.35 21 -1.3 21 -3 21 C-2.01 14.07 -1.02 7.14 0 0 Z " fill="#006FB7" transform="translate(381,305)"/>
<path d="M0 0 C0.78375 0.185625 1.5675 0.37125 2.375 0.5625 C4.97089775 1.25962266 4.97089775 1.25962266 7 0 C10.0625 -0.125 10.0625 -0.125 13 0 C15.04698414 2.04698414 14.70045693 6.30411241 15 9 C16.94268841 6.08596738 18.46395304 3.14191424 20 0 C21.65 0 23.3 0 25 0 C22.76686274 7.44379088 19.59727921 14.11976695 16 21 C14.35 20.67 12.7 20.34 11 20 C10.34 15.38 9.68 10.76 9 6 C7.68 6.33 6.36 6.66 5 7 C4.01 11.62 3.02 16.24 2 21 C0.35 21 -1.3 21 -3 21 C-2.53752467 13.80729161 -1.74922933 6.9969173 0 0 Z " fill="#006FB7" transform="translate(40,305)"/>
<path d="M0 0 C1.65 0 3.3 0 5 0 C5 8.58 5 17.16 5 26 C-8 26 -8 26 -11.3125 24.125 C-13.70924756 19.68657859 -13.99295385 15.93247808 -13 11 C-10.9375 7.8125 -10.9375 7.8125 -8 6 C-4.1875 6.1875 -4.1875 6.1875 -1 7 C-0.67 4.69 -0.34 2.38 0 0 Z M-6 11 C-7.82660197 15.12148343 -7.82660197 15.12148343 -7.125 19.375 C-6.75375 19.91125 -6.3825 20.4475 -6 21 C-4.35 20.67 -2.7 20.34 -1 20 C-0.31506627 17.14221967 -0.31506627 17.14221967 0 14 C-0.66 13.01 -1.32 12.02 -2 11 C-3.32 11 -4.64 11 -6 11 Z " fill="#E31E24" transform="translate(537,239)"/>
<path d="M0 0 C2.51591931 2.08461886 3.26620137 3.71358642 4.1875 6.8125 C2.2075 7.1425 0.2275 7.4725 -1.8125 7.8125 C-2.4725 6.8225 -3.1325 5.8325 -3.8125 4.8125 C-7.39607241 4.56234127 -7.39607241 4.56234127 -10.8125 4.8125 C-11.8515717 11.84032042 -11.8515717 11.84032042 -10.8125 18.8125 C-8.5025 18.8125 -6.1925 18.8125 -3.8125 18.8125 C-3.1525 17.4925 -2.4925 16.1725 -1.8125 14.8125 C0.1675 15.4725 2.1475 16.1325 4.1875 16.8125 C3.6251049 20.07439156 2.7734495 21.72384848 0.1875 23.8125 C-4.33202327 25.31900776 -8.17209378 25.55813919 -12.5625 23.5625 C-16.38629709 20.58843559 -17.58314994 18.81181096 -18.6875 14 C-19.17036014 8.82373935 -17.57285774 5.01294717 -14.3125 0.9375 C-10.0772984 -2.2389012 -4.67899042 -1.97557373 0 0 Z " fill="#E31E24" transform="translate(413.8125,240.1875)"/>
<path d="M0 0 C2.51591931 2.08461886 3.26620137 3.71358642 4.1875 6.8125 C2.2075 7.1425 0.2275 7.4725 -1.8125 7.8125 C-2.4725 6.8225 -3.1325 5.8325 -3.8125 4.8125 C-7.39607241 4.56234127 -7.39607241 4.56234127 -10.8125 4.8125 C-11.8515717 11.84032042 -11.8515717 11.84032042 -10.8125 18.8125 C-8.5025 18.8125 -6.1925 18.8125 -3.8125 18.8125 C-3.1525 17.4925 -2.4925 16.1725 -1.8125 14.8125 C0.1675 15.4725 2.1475 16.1325 4.1875 16.8125 C3.6251049 20.07439156 2.7734495 21.72384848 0.1875 23.8125 C-4.33202327 25.31900776 -8.17209378 25.55813919 -12.5625 23.5625 C-16.38629709 20.58843559 -17.58314994 18.81181096 -18.6875 14 C-19.17036014 8.82373935 -17.57285774 5.01294717 -14.3125 0.9375 C-10.0772984 -2.2389012 -4.67899042 -1.97557373 0 0 Z " fill="#E31E24" transform="translate(296.8125,240.1875)"/>
<path d="M0 0 C1.32 0 2.64 0 4 0 C3.45520982 8.75965262 2.45892001 17.34562983 1 26 C-3.09704884 26.87441318 -6.79584269 27.31729489 -11 27 C-13.97709357 22.53435964 -13.49063212 18.23596468 -13 13 C-11.64393229 9.50277274 -10.76332671 8.45016704 -7.5625 6.5625 C-5 6 -5 6 -2.6875 6.875 C-2.130625 7.24625 -1.57375 7.6175 -1 8 C-1.020625 7.05125 -1.04125 6.1025 -1.0625 5.125 C-1 2 -1 2 0 0 Z M-6 12 C-7.66846734 13.69495956 -7.66846734 13.69495956 -9 16 C-8.77802187 18.6984589 -8.77802187 18.6984589 -8 21 C-6.68 20.67 -5.36 20.34 -4 20 C-3.67 17.69 -3.34 15.38 -3 13 C-3.99 12.67 -4.98 12.34 -6 12 Z " fill="#006FB7" transform="translate(517,299)"/>
<path d="M0 0 C1.65 0 3.3 0 5 0 C5.33 2.31 5.66 4.62 6 7 C7.0725 6.7525 8.145 6.505 9.25 6.25 C13 6 13 6 15.21875 7.46875 C17.68911981 10.97927552 17.43924731 14.13023172 17.25 18.25 C17.23195313 18.99507813 17.21390625 19.74015625 17.1953125 20.5078125 C17.14835649 22.33909701 17.07661652 24.16971649 17 26 C15.02 26 13.04 26 11 26 C10.67 21.38 10.34 16.76 10 12 C9.01 12 8.02 12 7 12 C5.64908472 14.70183055 5.66141942 17.11808206 5.4375 20.125 C5.35371094 21.22070312 5.26992188 22.31640625 5.18359375 23.4453125 C5.12300781 24.28835938 5.06242187 25.13140625 5 26 C3.35 26 1.7 26 0 26 C0 17.42 0 8.84 0 0 Z " fill="#E31E24" transform="translate(422,239)"/>
<path d="M0 0 C1.65 0 3.3 0 5 0 C5.33 2.31 5.66 4.62 6 7 C7.0725 6.7525 8.145 6.505 9.25 6.25 C13 6 13 6 15.21875 7.46875 C17.68911981 10.97927552 17.43924731 14.13023172 17.25 18.25 C17.23195313 18.99507813 17.21390625 19.74015625 17.1953125 20.5078125 C17.14835649 22.33909701 17.07661652 24.16971649 17 26 C15.02 26 13.04 26 11 26 C10.67 21.38 10.34 16.76 10 12 C9.01 12 8.02 12 7 12 C5.64908472 14.70183055 5.66141942 17.11808206 5.4375 20.125 C5.35371094 21.22070312 5.26992188 22.31640625 5.18359375 23.4453125 C5.12300781 24.28835938 5.06242187 25.13140625 5 26 C3.35 26 1.7 26 0 26 C0 17.42 0 8.84 0 0 Z " fill="#E31E24" transform="translate(305,239)"/>
<path d="M0 0 C1.9375 1.8125 1.9375 1.8125 3 4 C3 5.32 3 6.64 3 8 C1.35 8 -0.3 8 -2 8 C-2.33 7.01 -2.66 6.02 -3 5 C-4.32 5.33 -5.64 5.66 -7 6 C-6.443125 6.556875 -5.88625 7.11375 -5.3125 7.6875 C-4.549375 8.450625 -3.78625 9.21375 -3 10 C-1.6078125 11.11375 -1.6078125 11.11375 -0.1875 12.25 C2.14635784 15.18399271 2.34548345 15.61343261 2.0625 19.125 C1.52386692 21.74404157 1.08824882 22.89138607 -0.625 25 C-3.94486236 26.39783678 -6.43330664 26.38214572 -10 26 C-12.375 24.8125 -12.375 24.8125 -14 23 C-14.75 20.3125 -14.75 20.3125 -15 18 C-13.35 17.67 -11.7 17.34 -10 17 C-9.67 17.99 -9.34 18.98 -9 20 C-7.35 20 -5.7 20 -4 20 C-4 19.01 -4 18.02 -4 17 C-5.134375 16.38125 -6.26875 15.7625 -7.4375 15.125 C-10.875 13.25 -10.875 13.25 -12 11 C-12.46622517 3.65695364 -12.46622517 3.65695364 -10.625 1.0625 C-6.80272223 -1.43668162 -4.45340427 -1.01568869 0 0 Z " fill="#006FB7" transform="translate(18,300)"/>
<path d="M0 0 C2.20703125 0.9765625 2.20703125 0.9765625 4 3 C4.63983453 5.88595624 4.69679346 8.73937395 4.75 11.6875 C4.77964844 12.48478516 4.80929687 13.28207031 4.83984375 14.10351562 C4.91044082 16.06846749 4.95749708 18.03423977 5 20 C-0.45224613 20 -5.61457709 19.9791678 -11 19 C-11.66 18.34 -12.32 17.68 -13 17 C-12.625 13.375 -12.625 13.375 -12 10 C-11.36191406 9.80664062 -10.72382812 9.61328125 -10.06640625 9.4140625 C-9.24011719 9.15367187 -8.41382813 8.89328125 -7.5625 8.625 C-6.73878906 8.36976563 -5.91507813 8.11453125 -5.06640625 7.8515625 C-2.82201984 7.19117773 -2.82201984 7.19117773 -2 5 C-2.721875 5.350625 -3.44375 5.70125 -4.1875 6.0625 C-7.3122705 7.10409017 -8.88161996 6.89096572 -12 6 C-11.6875 4.125 -11.6875 4.125 -11 2 C-7.3946611 -0.40355927 -4.20638975 -0.75085268 0 0 Z M-7 12 C-7 12.99 -7 13.98 -7 15 C-5.35 14.67 -3.7 14.34 -2 14 C-2 13.01 -2 12.02 -2 11 C-4.21081851 10.89459074 -4.21081851 10.89459074 -7 12 Z " fill="#E31E24" transform="translate(558,245)"/>
<path d="M0 0 C2.8125 1.5 2.8125 1.5 5 4 C5.7094525 6.73347877 5.85759646 9.15192916 6 12 C0.555 12.495 0.555 12.495 -5 13 C-1.33560916 13.73287817 2.31352622 14.39987636 6 15 C3.25194049 18.33098122 1.83784855 19.86534577 -2.5 20.5625 C-6.69237096 19.8887261 -8.28189143 19.27771916 -11 16 C-12.3061051 11.67856585 -12.52716392 8.2388352 -10.75 4.0625 C-7.44283433 0.16476903 -4.97151686 -0.59658202 0 0 Z M-5 5 C-5.33 5.99 -5.66 6.98 -6 8 C-4.02 8 -2.04 8 0 8 C-0.33 7.01 -0.66 6.02 -1 5 C-2.32 5 -3.64 5 -5 5 Z " fill="#E31E24" transform="translate(473,245)"/>
<path d="M0 0 C2.8125 1.5 2.8125 1.5 5 4 C5.7094525 6.73347877 5.85759646 9.15192916 6 12 C2.04 12 -1.92 12 -6 12 C-5.67 12.66 -5.34 13.32 -5 14 C-3.906875 13.979375 -2.81375 13.95875 -1.6875 13.9375 C2 14 2 14 5 15 C3.25 18.875 3.25 18.875 1 20 C-6.72093023 20.42894057 -6.72093023 20.42894057 -10 18 C-12.32124376 14.98238312 -12.41188886 11.71020256 -12.328125 7.96875 C-11.80947233 4.85683396 -10.21445226 3.14932131 -8 1 C-5.14675563 -0.42662219 -3.16545451 -0.31033868 0 0 Z M-5 5 C-5.33 5.99 -5.66 6.98 -6 8 C-4.02 8 -2.04 8 0 8 C-0.33 7.01 -0.66 6.02 -1 5 C-2.32 5 -3.64 5 -5 5 Z " fill="#E31E24" transform="translate(358,245)"/>
<path d="M0 0 C1.65 0 3.3 0 5 0 C5.66 3.3 6.32 6.6 7 10 C8.32 6.7 9.64 3.4 11 0 C12.65 0 14.3 0 16 0 C15.38687551 3.5730358 14.42647213 6.68048247 13.00390625 10.01171875 C12.61009766 10.93404297 12.21628906 11.85636719 11.81054688 12.80664062 C11.39869141 13.75732422 10.98683594 14.70800781 10.5625 15.6875 C10.15451172 16.64978516 9.74652344 17.61207031 9.32617188 18.60351562 C8.93107422 19.52197266 8.53597656 20.44042969 8.12890625 21.38671875 C7.76869385 22.22420654 7.40848145 23.06169434 7.03735352 23.92456055 C6 26 6 26 4 28 C0.875 28.125 0.875 28.125 -2 28 C-2 26.02 -2 24.04 -2 22 C-0.68 21.67 0.64 21.34 2 21 C1.34 14.07 0.68 7.14 0 0 Z " fill="#006FB7" transform="translate(250,305)"/>
<path d="M0 0 C2.20767722 2.73696262 1.97924451 4.33342691 1.7578125 7.890625 C1.55941833 9.3455156 1.34808127 10.79868968 1.125 12.25 C1.02058594 12.99507813 0.91617187 13.74015625 0.80859375 14.5078125 C0.55018787 16.34014511 0.27657918 18.17032234 0 20 C-1.79133978 20.05391993 -3.58313899 20.09275571 -5.375 20.125 C-6.37273437 20.14820313 -7.37046875 20.17140625 -8.3984375 20.1953125 C-11 20 -11 20 -13 18 C-13.375 14.5625 -13.375 14.5625 -13 11 C-10.41126058 8.12362287 -7.76085859 7.52234147 -4 7 C-4.99 7 -5.98 7 -7 7 C-8.66666667 7 -10.33333333 7 -12 7 C-10.6875 3.5625 -10.6875 3.5625 -9 0 C-5.44712603 -1.18429132 -3.58589143 -0.99184231 0 0 Z M-8 12 C-8 12.66 -8 13.32 -8 14 C-7.01 14 -6.02 14 -5 14 C-5 13.34 -5 12.68 -5 12 C-5.99 12 -6.98 12 -8 12 Z " fill="#006FB7" transform="translate(309,306)"/>
<path d="M0 0 C2.08229108 3.12343663 2.23770457 3.53852922 1.9765625 7.01171875 C1.925 7.76904297 1.8734375 8.52636719 1.8203125 9.30664062 C1.75585938 10.09232422 1.69140625 10.87800781 1.625 11.6875 C1.56828125 12.48478516 1.5115625 13.28207031 1.453125 14.10351562 C1.31183972 16.06973581 1.15720094 18.03498824 1 20 C-0.95766281 20.08082094 -2.91626728 20.13910778 -4.875 20.1875 C-6.51082031 20.23970703 -6.51082031 20.23970703 -8.1796875 20.29296875 C-9.11039063 20.19628906 -10.04109375 20.09960938 -11 20 C-13.31361802 16.52957297 -13.51020728 15.08165827 -13 11 C-11.375 9.125 -11.375 9.125 -9 8 C-5.75 7.8125 -5.75 7.8125 -3 8 C-3 7.01 -3 6.02 -3 5 C-3.99 5 -4.98 5 -6 5 C-6 5.66 -6 6.32 -6 7 C-7.65 7 -9.3 7 -11 7 C-10.67694236 4.01171686 -10.34810879 2.38678755 -8.3125 0.125 C-5.13750771 -1.41959084 -3.33197451 -1.0140792 0 0 Z M-5 11 C-5.99 11.33 -6.98 11.66 -8 12 C-8 12.66 -8 13.32 -8 14 C-6.68 13.67 -5.36 13.34 -4 13 C-4.33 12.34 -4.66 11.68 -5 11 Z " fill="#006FB7" transform="translate(594,306)"/>
<path d="M0 0 C0.721875 0.185625 1.44375 0.37125 2.1875 0.5625 C4.98289847 1.17900449 4.98289847 1.17900449 7.625 0.375 C10 0 10 0 11.8125 0.9375 C15.15206721 6.73780095 12.4044229 14.88072877 11 21 C9.35 21 7.7 21 6 21 C6.66 16.05 7.32 11.1 8 6 C3.99464045 10.00535955 3.48657455 10.59397814 2.75 15.75 C2.60046875 16.73484375 2.4509375 17.7196875 2.296875 18.734375 C2.19890625 19.48203125 2.1009375 20.2296875 2 21 C0.35 21 -1.3 21 -3 21 C-2.53752467 13.80729161 -1.74922933 6.9969173 0 0 Z " fill="#006FB7" transform="translate(489,305)"/>
<path d="M0 0 C9.18181818 0 9.18181818 0 12 1 C14.38656893 4.5798534 14.11935675 5.70211916 13.6875 9.875 C13.58824219 10.90367187 13.48898437 11.93234375 13.38671875 12.9921875 C13.03877758 15.6983966 12.57549148 18.33404802 12 21 C10.35 21 8.7 21 7 21 C7.33 16.38 7.66 11.76 8 7 C4.78772298 8.6712636 4.78772298 8.6712636 4.26953125 11.6015625 C4.11871094 12.59929687 3.96789062 13.59703125 3.8125 14.625 C3.65394531 15.62789063 3.49539063 16.63078125 3.33203125 17.6640625 C3.22246094 18.43492187 3.11289062 19.20578125 3 20 C1.35 20.33 -0.3 20.66 -2 21 C-1.03644647 6.21867882 -1.03644647 6.21867882 0 0 Z " fill="#006FB7" transform="translate(429,305)"/>
<path d="M0 0 C3.03333922 3.03333922 2.6646334 5.7743808 3 10 C2 11 2 11 -0.06640625 11.09765625 C-0.89011719 11.08605469 -1.71382812 11.07445312 -2.5625 11.0625 C-3.38878906 11.05347656 -4.21507812 11.04445313 -5.06640625 11.03515625 C-5.70449219 11.02355469 -6.34257812 11.01195312 -7 11 C-6.67 11.66 -6.34 12.32 -6 13 C-5.01 13.33 -4.02 13.66 -3 14 C-3 13.34 -3 12.68 -3 12 C-1.35 12.33 0.3 12.66 2 13 C0.92598892 15.91517292 0.22189824 17.77810176 -2 20 C-4.875 20.4375 -4.875 20.4375 -8 20 C-11.37886909 17.15463656 -11.94818455 15.46633903 -12.4375 11.0625 C-12.22286166 7.14720055 -11.19661365 4.29492047 -9 1 C-5.8728466 -1.39748428 -3.6821843 -1.16279504 0 0 Z M-5 5 C-5.33 5.66 -5.66 6.32 -6 7 C-4.68 6.67 -3.36 6.34 -2 6 C-2.99 5.67 -3.98 5.34 -5 5 Z " fill="#006FB7" transform="translate(165,306)"/>
<path d="M0 0 C3.03333922 3.03333922 2.6646334 5.7743808 3 10 C2 11 2 11 -0.06640625 11.09765625 C-0.89011719 11.08605469 -1.71382812 11.07445312 -2.5625 11.0625 C-3.38878906 11.05347656 -4.21507812 11.04445313 -5.06640625 11.03515625 C-5.70449219 11.02355469 -6.34257812 11.01195312 -7 11 C-6.67 11.66 -6.34 12.32 -6 13 C-5.01 13.33 -4.02 13.66 -3 14 C-3 13.34 -3 12.68 -3 12 C-1.35 12.33 0.3 12.66 2 13 C0.92598892 15.91517292 0.22189824 17.77810176 -2 20 C-4.875 20.4375 -4.875 20.4375 -8 20 C-11.37886909 17.15463656 -11.94818455 15.46633903 -12.4375 11.0625 C-12.22286166 7.14720055 -11.19661365 4.29492047 -9 1 C-5.8728466 -1.39748428 -3.6821843 -1.16279504 0 0 Z M-5 5 C-5.33 5.66 -5.66 6.32 -6 7 C-4.68 6.67 -3.36 6.34 -2 6 C-2.99 5.67 -3.98 5.34 -5 5 Z " fill="#006FB7" transform="translate(34,306)"/>
<path d="M0 0 C9.41666667 0 9.41666667 0 12 1 C14.06183027 3.73997378 13.98735548 5.19170718 13.7578125 8.671875 C13.55956727 10.0331589 13.34824113 11.39259129 13.125 12.75 C13.02058594 13.44738281 12.91617187 14.14476562 12.80859375 14.86328125 C12.55032364 16.57725559 12.27667048 18.2888995 12 20 C10.35 20.33 8.7 20.66 7 21 C7.33 16.38 7.66 11.76 8 7 C7.01 7 6.02 7 5 7 C4.01 11.62 3.02 16.24 2 21 C0.35 21 -1.3 21 -3 21 C-2.01 14.07 -1.02 7.14 0 0 Z " fill="#006FB7" transform="translate(356,305)"/>
<path d="M0 0 C9.41666667 0 9.41666667 0 12 1 C14.06183027 3.73997378 13.98735548 5.19170718 13.7578125 8.671875 C13.55956727 10.0331589 13.34824113 11.39259129 13.125 12.75 C13.02058594 13.44738281 12.91617187 14.14476562 12.80859375 14.86328125 C12.55032364 16.57725559 12.27667048 18.2888995 12 20 C10.35 20.33 8.7 20.66 7 21 C7.33 16.38 7.66 11.76 8 7 C7.01 7 6.02 7 5 7 C4.01 11.62 3.02 16.24 2 21 C0.35 21 -1.3 21 -3 21 C-2.01 14.07 -1.02 7.14 0 0 Z " fill="#006FB7" transform="translate(314,305)"/>
<path d="M0 0 C9.41666667 0 9.41666667 0 12 1 C14.06183027 3.73997378 13.98735548 5.19170718 13.7578125 8.671875 C13.55956727 10.0331589 13.34824113 11.39259129 13.125 12.75 C13.02058594 13.44738281 12.91617188 14.14476562 12.80859375 14.86328125 C12.55032364 16.57725559 12.27667048 18.2888995 12 20 C10.35 20.33 8.7 20.66 7 21 C7.33 16.38 7.66 11.76 8 7 C7.01 7 6.02 7 5 7 C4.01 11.62 3.02 16.24 2 21 C0.35 21 -1.3 21 -3 21 C-2.01 14.07 -1.02 7.14 0 0 Z " fill="#006FB7" transform="translate(186,305)"/>
<path d="M0 0 C2.96956761 4.45435142 2.51186394 8.77440392 2 14 C0.62747293 17.11937969 0.020457 18.4897715 -3 20 C-6.42723983 20.37252607 -8.36467848 20.36781772 -11.375 18.625 C-13.90030656 14.54565863 -13.74223617 10.66653435 -13 6 C-9.74221697 -0.40322872 -6.95021905 -1.77452401 0 0 Z M-6 5 C-8.41121859 6.95633975 -8.41121859 6.95633975 -8.125 10.625 C-8.08375 11.73875 -8.0425 12.8525 -8 14 C-6.35 13.67 -4.7 13.34 -3 13 C-2.67 11.02 -2.34 9.04 -2 7 C-3.32 6.34 -4.64 5.68 -6 5 Z " fill="#006FB7" transform="translate(467,306)"/>
<path d="M0 0 C1.8125 1.625 1.8125 1.625 3 4 C3.1875 7.75 3.1875 7.75 3 11 C-0.3 11 -3.6 11 -7 11 C-6.67 11.66 -6.34 12.32 -6 13 C-5.236875 12.814375 -4.47375 12.62875 -3.6875 12.4375 C-1 12 -1 12 2 13 C1.60856977 15.27029534 1.11258722 16.83408198 -0.1875 18.75 C-2.8779472 20.60548083 -4.81350376 20.39831203 -8 20 C-10.00724631 18.45374806 -10.87190969 17.41832025 -11.6171875 14.984375 C-12.26484899 9.37130873 -11.90483163 5.90816379 -9 1 C-5.94714701 -1.4422824 -3.61912453 -1.29917291 0 0 Z M-5 5 C-5.33 5.66 -5.66 6.32 -6 7 C-4.68 6.67 -3.36 6.34 -2 6 C-2.99 5.67 -3.98 5.34 -5 5 Z " fill="#006FB6" transform="translate(350,306)"/>
<path d="M0 0 C2 2 2 2 2.125 4.625 C2.08375 5.40875 2.0425 6.1925 2 7 C1.01 7.33 0.02 7.66 -1 8 C-0.34 8.66 0.32 9.32 1 10 C1.54587156 16.00458716 1.54587156 16.00458716 -0.0625 18.9375 C-3.1652833 20.63902633 -5.53769185 20.42519574 -9 20 C-11.4375 18.25 -11.4375 18.25 -13 16 C-13 14.68 -13 13.36 -13 12 C-12.01 11.34 -11.02 10.68 -10 10 C-10.33 9.67 -10.66 9.34 -11 9 C-11.26293056 4.96839809 -11.29404844 3.44107266 -9 0 C-5.47955362 -1.17348213 -3.57539179 -0.83679382 0 0 Z M-6 5 C-5.67 5.66 -5.34 6.32 -5 7 C-4.01 6.67 -3.02 6.34 -2 6 C-3.32 5.67 -4.64 5.34 -6 5 Z M-9 11 C-8.67 11.99 -8.34 12.98 -8 14 C-6.35 14 -4.7 14 -3 14 C-5.67247634 11.65712582 -5.67247634 11.65712582 -9 11 Z " fill="#006FB6" transform="translate(550,306)"/>
<path d="M0 0 C1.65 0 3.3 0 5 0 C4.47462276 5.0302076 3.89405214 10.01885239 3 15 C3.99 15 4.98 15 6 15 C6.99 10.05 7.98 5.1 9 0 C10.65 0 12.3 0 14 0 C13.01 6.93 12.02 13.86 11 21 C7 21 3 21 -1 21 C-4.05016081 14.89967838 -1.30172262 6.32265272 0 0 Z " fill="#006FB7" transform="translate(523,305)"/>
<path d="M0 0 C2.77617807 2.89970824 3.41173726 4.96375267 3.375 8.9375 C3.25351458 13.05585583 2.72160833 15.75500546 0 19 C-2.84083641 20.42041821 -4.85477278 20.31452272 -8 20 C-10.375 18.6875 -10.375 18.6875 -12 16 C-12.79085764 10.75451567 -12.88896456 6.4816076 -10.125 1.875 C-6.49614341 -1.32693229 -4.65901302 -1.23606468 0 0 Z M-5 5 C-6.66846734 6.69495956 -6.66846734 6.69495956 -8 9 C-7.77802187 11.6984589 -7.77802187 11.6984589 -7 14 C-5.68 14 -4.36 14 -3 14 C-2.34 11.69 -1.68 9.38 -1 7 C-2.32 6.34 -3.64 5.68 -5 5 Z " fill="#006FB6" transform="translate(237,306)"/>
<path d="M0 0 C2.67927341 4.01891012 2.15601248 6.24161923 2 11 C-2.455 11.495 -2.455 11.495 -7 12 C-7 12.66 -7 13.32 -7 14 C-6.236875 13.649375 -5.47375 13.29875 -4.6875 12.9375 C-2 12 -2 12 1 13 C0.6875 15.375 0.6875 15.375 0 18 C-3.47042703 20.31361802 -4.91834173 20.51020728 -9 20 C-11.95017623 17.00817422 -12.43176557 14.69702457 -12.4375 10.5625 C-12.34048824 6.73819421 -12.13604107 5.22673512 -10.125 1.875 C-6.48882758 -1.33338743 -4.66898714 -1.16724679 0 0 Z M-6 5 C-6.33 5.66 -6.66 6.32 -7 7 C-5.35 7 -3.7 7 -2 7 C-2.33 6.34 -2.66 5.68 -3 5 C-3.99 5 -4.98 5 -6 5 Z " fill="#006FB7" transform="translate(424,306)"/>
<path d="M0 0 C0.7940625 0.06703125 1.588125 0.1340625 2.40625 0.203125 C4.5 0.75 4.5 0.75 6.5 3.75 C6.5 4.74 6.5 5.73 6.5 6.75 C4.85 7.08 3.2 7.41 1.5 7.75 C1.17 6.76 0.84 5.77 0.5 4.75 C-0.82 5.08 -2.14 5.41 -3.5 5.75 C-3.5 8.72 -3.5 11.69 -3.5 14.75 C-2.18 14.42 -0.86 14.09 0.5 13.75 C0.83 12.76 1.16 11.77 1.5 10.75 C4.47 11.245 4.47 11.245 7.5 11.75 C6.046875 17.3203125 6.046875 17.3203125 3.75 19.125 C0.77670129 19.95091631 -1.42228079 20.12686358 -4.5 19.75 C-7.19990662 17.95006226 -9.0418865 16.666227 -10.5 13.75 C-11.0811138 6.66041162 -11.0811138 6.66041162 -8.625 2.8125 C-5.55877146 -0.16354535 -4.14079348 -0.40332404 0 0 Z " fill="#E31E24" transform="translate(376.5,245.25)"/>
<path d="M0 0 C1.98 0 3.96 0 6 0 C6 6.93 6 13.86 6 21 C9.96 21 13.92 21 18 21 C18 22.65 18 24.3 18 26 C12.06 26 6.12 26 0 26 C0 17.42 0 8.84 0 0 Z " fill="#E31E24" transform="translate(492,239)"/>
<path d="M0 0 C2.20970874 2.89548041 3 4.33157745 3 8 C1.35 8 -0.3 8 -2 8 C-2.33 7.34 -2.66 6.68 -3 6 C-3.66 6 -4.32 6 -5 6 C-5.66 8.64 -6.32 11.28 -7 14 C-6.01 13.67 -5.02 13.34 -4 13 C-3.67 12.34 -3.34 11.68 -3 11 C-1.35 11.33 0.3 11.66 2 12 C-0.75 18.875 -0.75 18.875 -3 20 C-5.9375 20.375 -5.9375 20.375 -9 20 C-11.73902545 17.07837286 -11.99501624 15.05232944 -12.375 11.0625 C-12.21127185 7.12558227 -11.20937664 4.31406497 -9 1 C-5.91204656 -1.36743097 -3.60235915 -1.38552275 0 0 Z " fill="#006FB7" transform="translate(221,306)"/>
<path d="M0 0 C5.61 0 11.22 0 17 0 C16.67 1.65 16.34 3.3 16 5 C14.02 5 12.04 5 10 5 C9.01 12.26 8.02 19.52 7 27 C5.35 27 3.7 27 2 27 C2.48827713 19.52165033 3.33405548 12.31074682 5 5 C3.02 5 1.04 5 -1 5 C-0.67 3.35 -0.34 1.7 0 0 Z " fill="#006FB6" transform="translate(138,299)"/>
<path d="M0 0 C2.1519437 3.22791555 2.20086443 4.28400809 2 8 C0.35 7.67 -1.3 7.34 -3 7 C-3 6.34 -3 5.68 -3 5 C-6.31460705 6.70892499 -6.31460705 6.70892499 -6.6875 10.125 C-6.790625 11.07375 -6.89375 12.0225 -7 13 C-6.236875 12.649375 -5.47375 12.29875 -4.6875 11.9375 C-2 11 -2 11 1 12 C0.64505955 14.62655933 0.27538036 16.57968261 -1.1875 18.8125 C-3.88924432 20.58260835 -5.84673574 20.39415803 -9 20 C-10.6640625 18.8125 -10.6640625 18.8125 -12 17 C-12.76494202 12.15536721 -12.6052244 7.48279978 -10.75 2.9375 C-7.37454692 -0.79960877 -4.8516999 -1.65979207 0 0 Z " fill="#006FB7" transform="translate(181,306)"/>
<path d="M0 0 C2.1519437 3.22791555 2.20086443 4.28400809 2 8 C0.68 8 -0.64 8 -2 8 C-2.33 7.34 -2.66 6.68 -3 6 C-3.99 6.33 -4.98 6.66 -6 7 C-6.33 9.31 -6.66 11.62 -7 14 C-6.01 14 -5.02 14 -4 14 C-3.67 13.01 -3.34 12.02 -3 11 C-1.68 11.33 -0.36 11.66 1 12 C0.64505955 14.62655933 0.27538036 16.57968261 -1.1875 18.8125 C-3.91793933 20.60140853 -5.81738719 20.46413104 -9 20 C-11.75006585 17.14640226 -12.43139027 15.04744615 -12.4375 11.125 C-12.297721 6.39348074 -11.22548151 3.59410797 -8 0 C-4.67212881 -1.1092904 -3.3006216 -1.01557588 0 0 Z " fill="#006FB7" transform="translate(84,306)"/>
<path d="M0 0 C0 1.98 0 3.96 0 6 C0.99 6 1.98 6 3 6 C3 7.65 3 9.3 3 11 C2.01 11 1.02 11 0 11 C0 14.3 0 17.6 0 21 C1.32 21.33 2.64 21.66 4 22 C3.67 23.32 3.34 24.64 3 26 C-2.45454545 26.36363636 -2.45454545 26.36363636 -4.6875 24.875 C-6.58347379 22.16646601 -6.29278753 20.07641345 -6.1875 16.8125 C-6.16042969 15.72582031 -6.13335937 14.63914063 -6.10546875 13.51953125 C-6.07066406 12.68808594 -6.03585937 11.85664063 -6 11 C-6.66 11 -7.32 11 -8 11 C-8 9.35 -8 7.7 -8 6 C-7.34 6 -6.68 6 -6 6 C-5.9175 5.38125 -5.835 4.7625 -5.75 4.125 C-5 2 -5 2 -3 0.75 C-1 0 -1 0 0 0 Z " fill="#E31E24" transform="translate(342,239)"/>
<path d="M0 0 C0 1.98 0 3.96 0 6 C1.32 6 2.64 6 4 6 C4 7.65 4 9.3 4 11 C2.68 11 1.36 11 0 11 C0.33 13.97 0.66 16.94 1 20 C1.99 20.33 2.98 20.66 4 21 C3.67 22.65 3.34 24.3 3 26 C0.125 26.125 0.125 26.125 -3 26 C-5 24 -5 24 -5.1953125 20.9609375 C-5.16050781 19.18589844 -5.16050781 19.18589844 -5.125 17.375 C-5.10695313 16.18648437 -5.08890625 14.99796875 -5.0703125 13.7734375 C-5.04710937 12.85820312 -5.02390625 11.94296875 -5 11 C-5.99 11 -6.98 11 -8 11 C-8 9.35 -8 7.7 -8 6 C-7.01 6 -6.02 6 -5 6 C-4.896875 5.38125 -4.79375 4.7625 -4.6875 4.125 C-3.92730223 1.77529781 -2.85021248 0 0 0 Z " fill="#E31E24" transform="translate(519,239)"/>
<path d="M0 0 C0 1.65 0 3.3 0 5 C0.66 5 1.32 5 2 5 C1.625 7.9375 1.625 7.9375 1 11 C0.01 11.495 0.01 11.495 -1 12 C-1.68472665 13.88764903 -1.68472665 13.88764903 -2.125 16.0625 C-2.29257812 16.79597656 -2.46015625 17.52945312 -2.6328125 18.28515625 C-2.75398437 18.85105469 -2.87515625 19.41695313 -3 20 C-2.01 20 -1.02 20 0 20 C-0.33 21.98 -0.66 23.96 -1 26 C-2.99954746 26.04254356 -5.00041636 26.04080783 -7 26 C-7.33 25.67 -7.66 25.34 -8 25 C-7.81847224 21.62358357 -7.4781895 18.27198117 -7.15625 14.90625 C-7.1046875 13.9471875 -7.053125 12.988125 -7 12 C-7.33 11.67 -7.66 11.34 -8 11 C-8.04080783 9.00041636 -8.04254356 6.99954746 -8 5 C-7.01 5 -6.02 5 -5 5 C-4.67 4.01 -4.34 3.02 -4 2 C-1 0 -1 0 0 0 Z " fill="#006FB7" transform="translate(562,300)"/>
<path d="M0 0 C0.33 0.99 0.66 1.98 1 3 C0.67 3.66 0.34 4.32 0 5 C0.66 5 1.32 5 2 5 C2 6.98 2 8.96 2 11 C1.01 11 0.02 11 -1 11 C-1.33 13.97 -1.66 16.94 -2 20 C-1.34 20 -0.68 20 0 20 C0 21.98 0 23.96 0 26 C-1.99954746 26.04254356 -4.00041636 26.04080783 -6 26 C-7 25 -7 25 -7.1328125 22.85546875 C-7.13023437 21.97503906 -7.12765625 21.09460938 -7.125 20.1875 C-7.12757813 19.31480469 -7.13015625 18.44210937 -7.1328125 17.54296875 C-7.01114834 15.21345785 -6.65514709 13.23061985 -6 11 C-6.66 11 -7.32 11 -8 11 C-7.9375 8.3125 -7.9375 8.3125 -7 5 C-4.85695876 3.00635346 -2.51607093 1.48467893 0 0 Z " fill="#006FB7" transform="translate(337,300)"/>
<path d="M0 0 C0.33 3.63 0.66 7.26 1 11 C0.01 11 -0.98 11 -2 11 C-2.33 13.97 -2.66 16.94 -3 20 C-2.34 20 -1.68 20 -1 20 C-1 21.98 -1 23.96 -1 26 C-2.99954746 26.04254356 -5.00041636 26.04080783 -7 26 C-8 25 -8 25 -8.125 21.3125 C-8.08693698 17.79167021 -7.69181295 14.45906475 -7 11 C-7.66 10.67 -8.32 10.34 -9 10 C-8.67 8.35 -8.34 6.7 -8 5 C-7.01 5 -6.02 5 -5 5 C-4.67 4.01 -4.34 3.02 -4 2 C-1 0 -1 0 0 0 Z " fill="#006FB7" transform="translate(453,300)"/>
<path d="M0 0 C1.98 0 3.96 0 6 0 C6 8.58 6 17.16 6 26 C4.02 26 2.04 26 0 26 C0 17.42 0 8.84 0 0 Z " fill="#E31F25" transform="translate(453,239)"/>
<path d="M0 0 C1.65 0 3.3 0 5 0 C4.43708547 9.16191918 2.79203512 18.01728306 1 27 C-0.65 27 -2.3 27 -4 27 C-2.68 18.09 -1.36 9.18 0 0 Z " fill="#006FB7" transform="translate(600,299)"/>
<path d="M0 0 C1.65 0 3.3 0 5 0 C3.68 8.91 2.36 17.82 1 27 C-0.65 27 -2.3 27 -4 27 C-3.43708547 17.83808082 -1.79203512 8.98271694 0 0 Z " fill="#006FB7" transform="translate(482,299)"/>
<path d="M0 0 C1.65 0.33 3.3 0.66 5 1 C7.23167185 0.63143136 7.23167185 0.63143136 9 0 C9.33 1.32 9.66 2.64 10 4 C9.071875 4.3403125 9.071875 4.3403125 8.125 4.6875 C5.21929852 6.48219797 4.95875899 7.71282632 4 11 C3.26741487 14.32207008 2.61081232 17.65352822 2 21 C0.35 21 -1.3 21 -3 21 C-2.01 14.07 -1.02 7.14 0 0 Z " fill="#006FB7" transform="translate(565,305)"/>
<path d="M0 0 C1.98 0 3.96 0 6 0 C6 6.6 6 13.2 6 20 C4.02 20 2.04 20 0 20 C0 13.4 0 6.8 0 0 Z " fill="#E31F25" transform="translate(443,245)"/>
<path d="M0 0 C1.98 0 3.96 0 6 0 C6 6.6 6 13.2 6 20 C4.02 20 2.04 20 0 20 C0 13.4 0 6.8 0 0 Z " fill="#E31F25" transform="translate(326,245)"/>
<path d="M0 0 C1.65 0 3.3 0 5 0 C4.69073032 2.75039833 4.3777116 5.50028178 4.0625 8.25 C3.97548828 9.02730469 3.88847656 9.80460937 3.79882812 10.60546875 C3.71181641 11.35957031 3.62480469 12.11367188 3.53515625 12.890625 C3.456604 13.58188477 3.37805176 14.27314453 3.29711914 14.98535156 C2.99455017 17.03695313 2.53587616 18.99782535 2 21 C0.35 21 -1.3 21 -3 21 C-2.01 14.07 -1.02 7.14 0 0 Z " fill="#006FB7" transform="translate(576,305)"/>
<path d="M0 0 C1.65 0 3.3 0 5 0 C4.69073032 2.75039833 4.3777116 5.50028178 4.0625 8.25 C3.97548828 9.02730469 3.88847656 9.80460937 3.79882812 10.60546875 C3.71181641 11.35957031 3.62480469 12.11367188 3.53515625 12.890625 C3.456604 13.58188477 3.37805176 14.27314453 3.29711914 14.98535156 C2.99455017 17.03695313 2.53587616 18.99782535 2 21 C0.35 21 -1.3 21 -3 21 C-2.01 14.07 -1.02 7.14 0 0 Z " fill="#006FB7" transform="translate(406,305)"/>
<path d="M0 0 C1.65 0 3.3 0 5 0 C4.01 6.93 3.02 13.86 2 21 C0.35 21 -1.3 21 -3 21 C-2.48462048 13.86606248 -1.55994099 6.98187183 0 0 Z " fill="#006FB7" transform="translate(90,305)"/>
<path d="M0 0 C1.65 0 3.3 0 5 0 C4.53752467 7.19270839 3.74922933 14.0030827 2 21 C0.35 21 -1.3 21 -3 21 C-2.01 14.07 -1.02 7.14 0 0 Z " fill="#006FB7" transform="translate(373,305)"/>
<path d="M0 0 C1.65 0 3.3 0 5 0 C4.53752467 7.19270839 3.74922933 14.0030827 2 21 C0.35 21 -1.3 21 -3 21 C-2.01 14.07 -1.02 7.14 0 0 Z " fill="#006FB7" transform="translate(66,305)"/>
<path d="M0 0 C1.32 0 2.64 0 4 0 C3.03644647 13.6332574 3.03644647 13.6332574 2 20 C0.35 20.33 -1.3 20.66 -3 21 C-2.58169634 13.77875787 -2.04538889 6.95432222 0 0 Z " fill="#006EB6" transform="translate(204,305)"/>
<path d="M0 0 C1.98 0 3.96 0 6 0 C6 1.98 6 3.96 6 6 C4.02 6 2.04 6 0 6 C0 4.02 0 2.04 0 0 Z " fill="#E31F25" transform="translate(566,259)"/>
<path d="M0 0 C1.98 0 3.96 0 6 0 C6 1.65 6 3.3 6 5 C4.02 5 2.04 5 0 5 C0 3.35 0 1.7 0 0 Z " fill="#E31F25" transform="translate(443,239)"/>
<path d="M0 0 C1.98 0 3.96 0 6 0 C6 1.65 6 3.3 6 5 C4.02 5 2.04 5 0 5 C0 3.35 0 1.7 0 0 Z " fill="#E31F25" transform="translate(326,239)"/>
<path d="M0 0 C1.65 0 3.3 0 5 0 C4.67 1.98 4.34 3.96 4 6 C2.35 6 0.7 6 -1 6 C-0.67 4.02 -0.34 2.04 0 0 Z " fill="#006FB7" transform="translate(605,320)"/>
<path d="M0 0 C1.65 0 3.3 0 5 0 C4 2 3 4 2 6 C0.68 6 -0.64 6 -2 6 C-1.34 4.02 -0.68 2.04 0 0 Z " fill="#006FB7" transform="translate(162,298)"/>
<path d="M0 0 C1.65 0 3.3 0 5 0 C5 1.65 5 3.3 5 5 C3.35 5 1.7 5 0 5 C0 3.35 0 1.7 0 0 Z " fill="#0070B7" transform="translate(374,299)"/>
<path d="M0 0 C1.65 0 3.3 0 5 0 C5 1.65 5 3.3 5 5 C3.35 5 1.7 5 0 5 C0 3.35 0 1.7 0 0 Z " fill="#0070B7" transform="translate(67,299)"/>
<path d="M0 0 C1.65 0 3.3 0 5 0 C4.67 1.65 4.34 3.3 4 5 C2.35 5 0.7 5 -1 5 C-0.67 3.35 -0.34 1.7 0 0 Z " fill="#006FB7" transform="translate(577,299)"/>
<path d="M0 0 C1.65 0 3.3 0 5 0 C4.67 1.65 4.34 3.3 4 5 C2.35 5 0.7 5 -1 5 C-0.67 3.35 -0.34 1.7 0 0 Z " fill="#006FB7" transform="translate(407,299)"/>
<path d="M0 0 C1.32 0 2.64 0 4 0 C4 1.65 4 3.3 4 5 C2.35 5 0.7 5 -1 5 C-0.67 3.35 -0.34 1.7 0 0 Z " fill="#006FB7" transform="translate(205,299)"/>
<path d="M0 0 C1.65 0 3.3 0 5 0 C4.67 1.65 4.34 3.3 4 5 C2.35 5 0.7 5 -1 5 C-0.67 3.35 -0.34 1.7 0 0 Z " fill="#006FB7" transform="translate(91,299)"/>
</svg>
